<?xml version="1.0" standalone="no"?>
<!DOCTYPE svg PUBLIC "-//W3C//DTD SVG 1.1//EN" "http://www.w3.org/Graphics/SVG/1.1/DTD/svg11.dtd" >
<svg xmlns="http://www.w3.org/2000/svg" xmlns:xlink="http://www.w3.org/1999/xlink" version="1.1">
<metadata>
Created by FontForge 20170910 at Fri Mar 30 23:44:25 2018
 By Jimmy Wärting
Copyright (c) 2016 by THOMAS GILLETT. All rights reserved.
</metadata>
<defs>
<font id="Gordita-Regular" horiz-adv-x="680" >
  <font-face 
    font-family="Gordita"
    font-weight="400"
    font-stretch="normal"
    units-per-em="1000"
    panose-1="0 0 0 0 0 0 0 0 0 0"
    ascent="800"
    descent="-200"
    x-height="534"
    cap-height="783"
    bbox="-188 -303 1250 1122"
    underline-thickness="50"
    underline-position="-100"
    stemh="69"
    stemv="78"
    unicode-range="U+0020-FB04"
  />
<missing-glyph horiz-adv-x="799" 
d="M750 0h-660v783l660 1v-784zM129 739l577 -699v699h-577z" />
    <glyph glyph-name="fi" unicode="fi" horiz-adv-x="615" 
d="M124 534v99c0 124 69 184 164 184c14 0 38 -3 59 -10v-66c-21 7 -44 7 -56 7c-39 0 -89 -22 -89 -113v-101h324v-534h-78v466h-246v-466h-78v466h-99v68h99zM429 725c0 33 26 59 58 59c33 0 59 -26 59 -59c0 -32 -26 -58 -59 -58c-32 0 -58 26 -58 58z" />
    <glyph glyph-name="fl" unicode="fl" horiz-adv-x="615" 
d="M124 534v99c0 124 69 184 164 184c14 0 38 -3 59 -10v-66c-21 7 -44 7 -56 7c-39 0 -89 -22 -89 -113v-101h246v281h78v-815h-78v466h-246v-466h-78v466h-99v68h99z" />
    <glyph glyph-name="ff" unicode="ff" horiz-adv-x="683" 
d="M615 748c-39 0 -90 -22 -90 -113v-101h140v-68h-140v-466h-77v466h-246v-466h-78v466h-99v68h99v99c0 124 69 184 164 184c14 0 38 -3 59 -10v-66c-21 7 -44 7 -56 7c-39 0 -89 -22 -89 -113v-101h246v99c0 124 69 184 164 184c14 0 37 -3 58 -10v-66c-20 7 -44 7 -55 7z
" />
    <glyph glyph-name="ffi" unicode="ffi" horiz-adv-x="939" 
d="M124 0v466h-99v68h99v99c0 124 69 184 164 184c14 0 38 -3 58 -10v-66c-20 7 -43 7 -55 7c-39 0 -89 -22 -89 -113v-101h246v99c0 124 69 184 164 184c14 0 37 -3 58 -10v-66c-20 7 -44 7 -55 7c-39 0 -89 -22 -89 -113v-101h325v-534h-79v466h-246v-466h-78v466h-246
v-466h-78zM753 725c0 33 26 59 58 59c33 0 59 -26 59 -59c0 -32 -26 -58 -59 -58c-32 0 -58 26 -58 58z" />
    <glyph glyph-name="ffl" unicode="ffl" horiz-adv-x="939" 
d="M291 748c-39 0 -89 -22 -89 -113v-101h246v99c0 124 69 184 164 184c14 0 37 -3 58 -10v-66c-20 7 -44 7 -55 7c-39 0 -89 -22 -89 -113v-101h247v281h78v-815h-78v466h-247v-466h-78v466h-246v-466h-78v466h-99v68h99v99c0 124 69 184 164 184c14 0 38 -3 58 -10v-66
c-20 7 -43 7 -55 7z" />
    <glyph glyph-name=".notdef" horiz-adv-x="799" 
d="M750 0h-660v783l660 1v-784zM129 739l577 -699v699h-577z" />
    <glyph glyph-name="exclam" unicode="!" horiz-adv-x="286" 
d="M184 783v-137l-5 -439h-73l-4 439v137h82zM84 50c0 32 26 58 59 58c32 0 59 -26 59 -58c0 -33 -27 -59 -59 -59c-33 0 -59 26 -59 59z" />
    <glyph glyph-name="quotedbl" unicode="&#x22;" horiz-adv-x="403" 
d="M63 721c0 32 14 57 46 57s46 -24 46 -57c0 -23 -25 -257 -25 -257h-42s-25 234 -25 257zM248 721c0 32 14 57 46 57s46 -24 46 -57c0 -23 -25 -257 -25 -257h-42s-25 234 -25 257z" />
    <glyph glyph-name="numbersign" unicode="#" horiz-adv-x="829" 
d="M723 217h-157l-47 -217h-73l47 217h-238l-47 -217h-73l47 217h-142v65h157l51 236h-142v65h157l44 200h73l-44 -200h238l44 200h73l-44 -200h142v-65h-157l-51 -236h142v-65zM560 518h-239l-51 -236h238z" />
    <glyph glyph-name="dollar" unicode="$" horiz-adv-x="623" 
d="M567 213c0 -105 -80 -201 -215 -215v-100h-68v100c-117 11 -194 79 -234 187l70 37c32 -80 80 -137 165 -148v292c-146 40 -213 106 -213 210c0 122 97 198 212 210v105h68v-105c108 -12 177 -76 208 -159l-69 -39c-23 56 -62 109 -140 121v-276c69 -20 126 -49 163 -89
c32 -36 53 -80 53 -131zM153 580c0 -63 39 -101 132 -129v259c-71 -10 -132 -59 -132 -130zM351 348v-274c75 12 133 62 133 133c0 69 -47 113 -133 141z" />
    <glyph glyph-name="percent" unicode="%" horiz-adv-x="864" 
d="M392 614c0 -97 -79 -176 -177 -176c-97 0 -176 79 -176 176c0 98 79 177 176 177c98 0 177 -79 177 -177zM727 783l-511 -783h-79l510 783h80zM326 614c0 62 -50 111 -111 111s-111 -49 -111 -111c0 -61 50 -110 111 -110s111 49 111 110zM826 170
c0 -97 -79 -176 -177 -176s-177 79 -177 176c0 98 79 177 177 177s177 -79 177 -177zM760 170c0 62 -50 111 -111 111s-110 -49 -110 -111c0 -61 49 -110 110 -110s111 49 111 110z" />
    <glyph glyph-name="ampersand" unicode="&#x26;" horiz-adv-x="716" 
d="M672 0h-99l-76 88l-3 4c-61 -59 -135 -99 -219 -99c-124 0 -222 75 -222 192c0 104 90 171 171 221l-57 66c-29 33 -55 83 -55 130c0 112 98 189 204 189c101 0 199 -78 199 -184c0 -83 -44 -126 -112 -168l-72 -44l163 -189c38 54 68 121 87 195l74 -18
c-19 -77 -57 -163 -111 -234l7 -9zM190 602c0 -61 54 -104 89 -147l9 -11l79 48c50 30 70 66 70 111c0 66 -57 117 -122 117s-125 -51 -125 -118zM278 65c58 0 117 31 168 83l-178 206c-61 -37 -133 -83 -133 -160s61 -129 143 -129z" />
    <glyph glyph-name="quotesingle" unicode="'" horiz-adv-x="218" 
d="M63 721c0 32 14 57 46 57s46 -24 46 -57c0 -23 -25 -257 -25 -257h-42s-25 234 -25 257z" />
    <glyph glyph-name="parenleft" unicode="(" horiz-adv-x="397" 
d="M54 358v25c0 208 105 384 284 488l33 -51c-161 -104 -238 -246 -238 -437v-25c0 -191 76 -332 237 -435l-32 -53c-179 105 -284 280 -284 488z" />
    <glyph glyph-name="parenright" unicode=")" horiz-adv-x="397" 
d="M344 383v-25c0 -208 -105 -383 -284 -488l-33 53c161 103 237 244 237 435v25c0 191 -77 333 -238 437l34 51c179 -104 284 -280 284 -488z" />
    <glyph glyph-name="asterisk" unicode="*" horiz-adv-x="507" 
d="M253 525l-97 -132l-47 35l95 132l-155 51l19 56l156 -51v167h59v-167l156 51l19 -56l-154 -51l94 -132l-47 -35z" />
    <glyph glyph-name="plus" unicode="+" horiz-adv-x="591" 
d="M258 340h-208v74h208v205h75v-205h208v-74h-208v-207h-75v207z" />
    <glyph glyph-name="comma" unicode="," horiz-adv-x="287" 
d="M110 -153l-39 36c45 34 80 74 87 120c-7 -3 -16 -5 -24 -5c-38 0 -66 26 -66 66c0 41 32 71 70 71c46 0 79 -38 79 -98v-4c0 -70 -37 -136 -107 -186z" />
    <glyph glyph-name="hyphen" unicode="-" horiz-adv-x="436" 
d="M361 271h-286v83h286v-83z" />
    <glyph glyph-name="period" unicode="." horiz-adv-x="279" 
d="M68 63c0 40 32 72 72 72c39 0 71 -32 71 -72s-32 -72 -71 -72c-40 0 -72 32 -72 72z" />
    <glyph glyph-name="slash" unicode="/" horiz-adv-x="492" 
d="M458 814l-341 -819h-82l341 819h82z" />
    <glyph glyph-name="zero" unicode="0" horiz-adv-x="767" 
d="M382 -8c-215 0 -324 203 -324 397s111 402 328 402c215 0 323 -204 323 -398s-110 -401 -327 -401zM383 715c-169 0 -240 -181 -240 -322s71 -326 241 -326c169 0 241 182 241 322s-73 326 -242 326z" />
    <glyph glyph-name="one" unicode="1" horiz-adv-x="430" 
d="M50 584l-37 62l227 137h80v-783h-82v696z" />
    <glyph glyph-name="two" unicode="2" horiz-adv-x="643" 
d="M55 76l284 252c122 107 155 155 155 231c0 80 -64 156 -172 156c-96 0 -150 -57 -182 -141l-74 31c31 104 121 187 258 187c145 0 255 -94 255 -231c0 -103 -55 -172 -172 -275l-240 -210h416v-76h-528v76z" />
    <glyph glyph-name="three" unicode="3" horiz-adv-x="644" 
d="M583 216c0 -125 -109 -224 -270 -224c-134 0 -225 71 -264 180l72 36c35 -87 91 -139 192 -139c124 0 186 73 186 146c0 80 -61 145 -187 145h-78v76h76c107 0 171 66 171 141c0 70 -58 138 -170 138c-96 0 -148 -58 -180 -136l-74 33c35 103 124 180 256 180
c167 0 252 -107 252 -208c0 -89 -50 -146 -125 -180v-1c87 -28 143 -95 143 -187z" />
    <glyph glyph-name="four" unicode="4" horiz-adv-x="681" 
d="M437 188h-407v90l384 505h103v-524h131v-71h-131v-188h-80v188zM437 698l-334 -439h334v439z" />
    <glyph glyph-name="five" unicode="5" horiz-adv-x="630" 
d="M192 706l-41 -278c38 42 112 64 170 64c153 0 257 -92 257 -243c0 -160 -123 -257 -274 -257c-124 0 -217 68 -258 177l71 38c35 -84 89 -138 189 -138c104 0 188 66 188 178c0 104 -75 172 -188 172c-57 0 -122 -30 -163 -80l-76 31l60 413h413v-77h-348z" />
    <glyph glyph-name="six" unicode="6" horiz-adv-x="674" 
d="M397 713c-174 0 -254 -150 -255 -327c52 84 150 113 216 113c165 0 263 -116 263 -245c0 -169 -129 -262 -274 -262c-93 0 -190 43 -239 128c-39 67 -48 128 -48 243c0 223 106 428 336 428c90 0 161 -38 212 -88l-44 -65c-42 40 -92 75 -167 75zM346 427
c-104 0 -194 -71 -194 -173c0 -117 97 -186 194 -186c103 0 194 61 194 182c0 92 -73 177 -194 177z" />
    <glyph glyph-name="seven" unicode="7" horiz-adv-x="609" 
d="M38 783h533v-76l-361 -707h-91l364 707h-445v76z" />
    <glyph glyph-name="eight" unicode="8" horiz-adv-x="666" 
d="M333 -8c-134 0 -275 73 -275 222c0 82 58 156 164 190c-97 28 -145 112 -145 179c0 136 141 208 256 208c118 0 257 -69 257 -208c0 -74 -53 -151 -146 -179c108 -31 164 -108 164 -190c0 -144 -139 -222 -275 -222zM333 717c-74 0 -175 -46 -175 -137
c0 -99 108 -144 175 -144s176 46 176 143c0 91 -100 138 -176 138zM333 66c82 0 192 45 192 148s-108 152 -192 152c-82 0 -192 -48 -192 -150c0 -106 107 -150 192 -150z" />
    <glyph glyph-name="nine" unicode="9" horiz-adv-x="676" 
d="M285 70c171 0 245 148 249 319c-52 -84 -150 -113 -216 -113c-165 0 -263 110 -263 253c0 166 129 262 274 262c93 0 190 -43 239 -128c39 -67 48 -128 48 -243c0 -223 -102 -428 -330 -428c-104 0 -168 42 -219 92l44 65c42 -40 93 -79 174 -79zM330 348
c111 0 194 79 194 181c0 117 -97 186 -194 186c-103 0 -194 -65 -194 -182c0 -106 73 -185 194 -185z" />
    <glyph glyph-name="colon" unicode=":" horiz-adv-x="294" 
d="M75 470c0 40 32 72 72 72s72 -32 72 -72c0 -39 -32 -72 -72 -72s-72 33 -72 72zM75 63c0 40 32 72 72 72s72 -32 72 -72s-32 -72 -72 -72s-72 32 -72 72z" />
    <glyph glyph-name="semicolon" unicode=";" horiz-adv-x="302" 
d="M78 470c0 40 32 72 72 72c39 0 72 -32 72 -72c0 -39 -33 -72 -72 -72c-40 0 -72 33 -72 72zM120 -153l-39 36c45 34 80 74 87 120c-7 -3 -16 -5 -24 -5c-38 0 -66 26 -66 66c0 41 32 71 70 71c46 0 79 -38 79 -98v-4c0 -70 -37 -136 -107 -186z" />
    <glyph glyph-name="less" unicode="&#x3c;" horiz-adv-x="641" 
d="M558 583l-432 -204l432 -204v-79l-518 246v72l518 246v-77z" />
    <glyph glyph-name="equal" unicode="=" horiz-adv-x="619" 
d="M541 451h-463v78h463v-78zM541 226h-463v76h463v-76z" />
    <glyph glyph-name="greater" unicode="&#x3e;" horiz-adv-x="641" 
d="M83 582v78l518 -246v-72l-518 -246v78l432 204z" />
    <glyph glyph-name="question" unicode="?" horiz-adv-x="511" 
d="M256 715c-75 0 -124 -42 -150 -115l-72 37c36 102 122 155 222 155c125 0 213 -84 213 -197c0 -46 -12 -78 -29 -107c-20 -33 -51 -63 -94 -99c-58 -48 -81 -77 -81 -142v-40h-77v49c0 72 28 123 90 177l28 24c62 55 79 85 79 137c0 65 -45 121 -129 121zM168 50
c0 32 27 58 59 58c33 0 58 -26 58 -58c0 -33 -25 -59 -58 -59c-32 0 -59 26 -59 59z" />
    <glyph glyph-name="at" unicode="@" horiz-adv-x="865" 
d="M755 299c8 24 14 56 14 81c0 174 -144 284 -310 284c-190 0 -347 -161 -347 -351c0 -197 146 -338 342 -338c74 0 149 25 209 68l29 -46c-60 -48 -162 -78 -238 -78c-227 0 -398 165 -398 394c0 222 180 406 403 406c197 0 365 -134 365 -339c0 -81 -35 -186 -113 -232
c-26 -15 -52 -25 -83 -25c-45 0 -82 29 -95 72c-34 -45 -83 -72 -140 -72c-87 0 -158 83 -158 168c0 111 80 221 199 221c50 0 99 -27 122 -73l11 70h73l-41 -250c-4 -20 -6 -71 44 -71c57 0 97 64 112 111zM443 450c-81 0 -136 -76 -136 -153c0 -60 41 -111 102 -111
c80 0 133 85 133 158c0 58 -39 106 -99 106z" />
    <glyph glyph-name="A" unicode="A" horiz-adv-x="775" 
d="M87 0h-84l338 783h93l338 -783h-87l-85 200h-427zM568 275l-182 423l-182 -423h364z" />
    <glyph glyph-name="B" unicode="B" horiz-adv-x="733" 
d="M109 783h281c143 0 252 -69 252 -197c0 -35 -9 -130 -119 -179c116 -30 154 -132 154 -192c0 -151 -129 -215 -277 -215h-291v783zM190 435h187c129 0 182 65 182 142c0 95 -86 131 -176 131h-193v-273zM190 75h212c85 0 191 34 191 146c0 111 -115 141 -206 141h-197
v-287z" />
    <glyph glyph-name="C" unicode="C" horiz-adv-x="837" 
d="M444 -8c-216 0 -390 161 -390 397c0 238 180 402 394 402c192 0 312 -121 349 -240l-74 -34c-32 96 -114 196 -277 196c-166 0 -306 -130 -306 -319c0 -186 130 -324 307 -324c144 0 234 82 277 198l74 -35c-42 -119 -162 -241 -354 -241z" />
    <glyph glyph-name="D" unicode="D" horiz-adv-x="809" 
d="M109 783h233c244 0 413 -169 413 -390c0 -233 -184 -393 -413 -393h-233v783zM191 77h148c198 0 331 131 331 314c0 180 -128 315 -332 315h-147v-629z" />
    <glyph glyph-name="E" unicode="E" horiz-adv-x="664" 
d="M599 707h-408v-271h373v-76h-373v-284h412v-76h-494v783h490v-76z" />
    <glyph glyph-name="F" unicode="F" horiz-adv-x="635" 
d="M560 349h-369v-349h-82v783h485v-77h-403v-281h369v-76z" />
    <glyph glyph-name="G" unicode="G" horiz-adv-x="857" 
d="M797 554l-74 -34c-33 94 -113 193 -277 193c-168 0 -307 -130 -307 -319c0 -178 117 -325 308 -325c139 0 267 85 276 234h-327v76h415v-30c0 -198 -138 -357 -366 -357c-237 0 -391 173 -391 397c0 226 169 402 394 402c194 0 310 -120 349 -237z" />
    <glyph glyph-name="H" unicode="H" horiz-adv-x="828" 
d="M191 0h-82v783h82v-346h446v346h82v-783h-82v358h-446v-358z" />
    <glyph glyph-name="I" unicode="I" horiz-adv-x="300" 
d="M191 0h-82v783h82v-783z" />
    <glyph glyph-name="J" unicode="J" horiz-adv-x="577" 
d="M249 69c90 0 145 58 145 152v562h82v-559c0 -142 -86 -232 -225 -232c-98 0 -178 56 -221 169l68 38c33 -85 83 -130 151 -130z" />
    <glyph glyph-name="K" unicode="K" horiz-adv-x="677" 
d="M191 783v-346h5l351 346h115l-384 -375l402 -408h-116l-367 377h-6v-377h-82v783h82z" />
    <glyph glyph-name="L" unicode="L" horiz-adv-x="583" 
d="M191 77h371v-77h-453v783h82v-706z" />
    <glyph glyph-name="M" unicode="M" horiz-adv-x="1035" 
d="M845 0v671h-1l-291 -671h-74l-289 666v-666h-81v783h116l293 -671l290 671h118v-783h-81z" />
    <glyph glyph-name="N" unicode="N" horiz-adv-x="856" 
d="M747 0h-88l-469 667v-667h-81v783h95l462 -654v654h81v-783z" />
    <glyph glyph-name="O" unicode="O" horiz-adv-x="895" 
d="M841 394c0 -225 -168 -402 -395 -402c-224 0 -392 174 -392 397c0 225 168 402 395 402c224 0 392 -174 392 -397zM756 389c0 176 -128 325 -310 325c-180 0 -307 -145 -307 -320c0 -177 128 -325 310 -325c180 0 307 145 307 320z" />
    <glyph glyph-name="P" unicode="P" horiz-adv-x="681" 
d="M109 0v783h262c191 0 275 -113 275 -235c0 -133 -99 -242 -289 -242h-166v-306h-82zM191 382h169c144 0 202 84 202 163c0 77 -44 161 -198 161h-173v-324z" />
    <glyph glyph-name="Q" unicode="Q" horiz-adv-x="897" 
d="M791 -19l-102 92c-66 -51 -149 -81 -243 -81c-225 0 -392 174 -392 397c0 225 168 402 394 402c225 0 393 -174 393 -397c0 -102 -35 -195 -95 -266l99 -85zM139 394c0 -177 127 -325 309 -325c70 0 132 21 181 57l-150 131l55 61l152 -137c44 56 70 129 70 208
c0 176 -128 325 -310 325c-180 0 -307 -145 -307 -320z" />
    <glyph glyph-name="R" unicode="R" horiz-adv-x="720" 
d="M191 317v-317h-82v783h271c191 0 275 -106 275 -228c0 -134 -98 -209 -215 -224l242 -331h-100l-231 317h-160zM191 392h182c142 0 199 81 199 160c0 77 -48 154 -197 154h-184v-314z" />
    <glyph glyph-name="S" unicode="S" horiz-adv-x="628" 
d="M320 -8c-137 0 -226 72 -271 191l71 37c37 -91 93 -151 200 -151c92 0 168 54 168 136s-66 128 -182 156c-161 39 -234 108 -234 217c0 134 116 214 246 214s212 -70 247 -163l-70 -39c-26 65 -75 125 -179 125c-84 0 -162 -51 -162 -133c0 -71 49 -110 167 -140
c84 -21 154 -52 197 -99c33 -36 54 -80 54 -132c0 -115 -95 -219 -252 -219z" />
    <glyph glyph-name="T" unicode="T" horiz-adv-x="648" 
d="M283 706h-262v77h606v-77h-261v-706h-83v706z" />
    <glyph glyph-name="U" unicode="U" horiz-adv-x="786" 
d="M687 783v-477c0 -198 -108 -314 -294 -314c-190 0 -294 124 -294 309v482h82v-478c0 -171 94 -236 215 -236c135 0 209 85 209 231v483h82z" />
    <glyph glyph-name="V" unicode="V" horiz-adv-x="768" 
d="M23 783h91l270 -690l272 690h89l-315 -783h-92z" />
    <glyph glyph-name="W" unicode="W" horiz-adv-x="1147" 
d="M114 783l205 -664h2l207 664h93l208 -668h2l206 668h83l-246 -783h-92l-209 672l-210 -672h-90l-245 783h86z" />
    <glyph glyph-name="X" unicode="X" horiz-adv-x="715" 
d="M8 0l300 401l-287 382h96l242 -323l239 323h96l-287 -381l300 -402h-96l-254 342l-253 -342h-96z" />
    <glyph glyph-name="Y" unicode="Y" horiz-adv-x="741" 
d="M412 331v-331h-83v330l-303 453h99l247 -374l250 374h94z" />
    <glyph glyph-name="Z" unicode="Z" horiz-adv-x="644" 
d="M36 76l467 632h-451v75h547v-75l-468 -632h470v-76h-565v76z" />
    <glyph glyph-name="bracketleft" unicode="[" horiz-adv-x="414" 
d="M377 794h-198v-847h198v-68h-274v983h274v-68z" />
    <glyph glyph-name="backslash" unicode="\" horiz-adv-x="492" 
d="M375 -5l-342 819h83l341 -819h-82z" />
    <glyph glyph-name="bracketright" unicode="]" horiz-adv-x="414" 
d="M235 794h-198v68h274v-983h-274v68h198v847z" />
    <glyph glyph-name="asciicircum" unicode="^" horiz-adv-x="589" 
d="M54 451l207 332h67l207 -332h-92l-149 254l-149 -254h-91z" />
    <glyph glyph-name="underscore" unicode="_" horiz-adv-x="534" 
d="M534 -87v-66h-534v66h534z" />
    <glyph glyph-name="grave" unicode="`" horiz-adv-x="239" 
d="M114 797l108 -172h-75l-128 172h95z" />
    <glyph glyph-name="a" unicode="a" horiz-adv-x="568" 
d="M410 308v36c0 86 -47 130 -136 130c-82 0 -127 -49 -153 -105l-64 36c37 85 111 138 219 138c113 0 169 -51 195 -110c12 -29 16 -71 16 -88v-345h-76v94h-1c-42 -66 -100 -103 -180 -103c-108 0 -179 67 -179 157v6c0 116 116 154 211 154h148zM410 244h-149
c-57 0 -132 -18 -132 -90c0 -60 51 -94 115 -94c95 0 166 67 166 165v19z" />
    <glyph glyph-name="b" unicode="b" horiz-adv-x="673" 
d="M623 268c0 -144 -99 -276 -251 -276c-101 0 -164 50 -207 120v-112h-77v814h78v-395c44 68 106 124 206 124c152 0 251 -136 251 -275zM356 61c118 0 187 92 187 205c0 111 -69 208 -187 208c-110 0 -191 -98 -191 -205c0 -110 78 -208 191 -208z" />
    <glyph glyph-name="c" unicode="c" horiz-adv-x="600" 
d="M129 270c0 -111 76 -210 193 -210c96 0 146 61 169 120l68 -30c-30 -84 -109 -159 -238 -159c-152 0 -272 116 -272 276c0 156 122 276 273 276c126 0 207 -73 235 -156l-68 -30c-21 58 -72 117 -167 117c-114 0 -193 -93 -193 -204z" />
    <glyph glyph-name="d" unicode="d" horiz-adv-x="673" 
d="M50 268c0 139 99 275 250 275c103 0 164 -58 207 -121v392h77v-814h-76v114c-41 -68 -105 -122 -208 -122c-153 0 -250 130 -250 276zM316 61c113 0 192 98 192 208c0 106 -81 205 -192 205c-117 0 -187 -93 -187 -208c0 -110 70 -205 187 -205z" />
    <glyph glyph-name="e" unicode="e" horiz-adv-x="607" 
d="M560 243h-432c6 -104 87 -183 191 -183c78 0 139 46 169 107l58 -38c-46 -89 -132 -138 -226 -138c-155 0 -271 123 -271 277c0 145 110 275 260 275c165 0 252 -118 252 -274c0 -9 0 -18 -1 -26zM129 309h353c-10 97 -71 166 -173 166c-93 0 -167 -77 -180 -166z" />
    <glyph glyph-name="f" unicode="f" horiz-adv-x="359" 
d="M291 748c-39 0 -89 -22 -89 -113v-101h140v-68h-140v-466h-78v466h-99v68h99v99c0 124 69 184 164 184c14 0 38 -3 59 -10v-66c-21 7 -44 7 -56 7z" />
    <glyph glyph-name="g" unicode="g" horiz-adv-x="673" 
d="M507 -5v124c-41 -68 -106 -121 -207 -121c-153 0 -250 126 -250 272c0 139 99 273 250 273c104 0 166 -58 208 -121v112h77v-536c0 -172 -106 -265 -268 -265c-138 0 -218 68 -264 172l63 37c28 -58 76 -141 200 -141c103 0 191 55 191 194zM316 66c113 0 192 96 192 205
c0 105 -81 203 -192 203c-117 0 -186 -90 -186 -206c0 -110 69 -202 186 -202z" />
    <glyph glyph-name="h" unicode="h" horiz-adv-x="632" 
d="M473 0v311c0 95 -49 162 -148 162c-93 0 -159 -74 -159 -169v-304h-78v814h78v-376c42 70 104 106 183 106c131 0 202 -89 202 -214v-330h-78z" />
    <glyph glyph-name="i" unicode="i" horiz-adv-x="255" 
d="M69 725c0 33 26 59 58 59c33 0 59 -26 59 -59c0 -32 -26 -58 -59 -58c-32 0 -58 26 -58 58zM167 0h-79v534h79v-534z" />
    <glyph glyph-name="j" unicode="j" horiz-adv-x="263" 
d="M77 725c0 33 26 59 58 59c33 0 59 -26 59 -59c0 -32 -26 -58 -59 -58c-32 0 -58 26 -58 58zM174 534v-648c0 -99 -51 -153 -152 -153c-16 0 -34 4 -49 8v65c12 -3 26 -4 38 -4c55 0 85 31 85 86v646h78z" />
    <glyph glyph-name="k" unicode="k" horiz-adv-x="545" 
d="M88 0v815h78v-498l254 217h111l-281 -240l294 -294h-109l-266 267h-3v-267h-78z" />
    <glyph glyph-name="l" unicode="l" horiz-adv-x="255" 
d="M167 0h-79v815h79v-815z" />
    <glyph glyph-name="m" unicode="m" horiz-adv-x="975" 
d="M452 0v313c0 88 -42 160 -138 160c-93 0 -148 -82 -148 -169v-304h-78v534h77v-93c43 65 92 103 172 103c78 0 139 -37 171 -107c45 69 104 106 188 106c129 0 197 -89 197 -213v-330h-78v311c0 89 -40 161 -138 161c-94 0 -148 -76 -148 -165v-307h-77z" />
    <glyph glyph-name="n" unicode="n" horiz-adv-x="632" 
d="M473 0v311c0 95 -49 162 -148 162c-93 0 -159 -74 -159 -169v-304h-78v534h77v-98c42 72 105 108 184 108c131 0 202 -89 202 -214v-330h-78z" />
    <glyph glyph-name="o" unicode="o" horiz-adv-x="650" 
d="M324 -9c-155 0 -275 122 -275 274c0 158 119 278 277 278c154 0 275 -121 275 -274c0 -158 -121 -278 -277 -278zM326 60c114 0 195 94 195 205c0 112 -81 210 -197 210s-195 -94 -195 -206s80 -209 197 -209z" />
    <glyph glyph-name="p" unicode="p" horiz-adv-x="673" 
d="M623 268c0 -144 -99 -276 -251 -276c-99 0 -163 50 -206 118v-373h-78v797h77v-116c43 67 106 125 207 125c152 0 251 -136 251 -275zM356 61c118 0 187 92 187 205c0 111 -69 208 -187 208c-110 0 -191 -98 -191 -205c0 -110 78 -208 191 -208z" />
    <glyph glyph-name="q" unicode="q" horiz-adv-x="673" 
d="M50 268c0 139 99 275 250 275c105 0 165 -60 208 -123v114h76v-797h-77v375c-42 -68 -107 -120 -207 -120c-153 0 -250 130 -250 276zM316 61c113 0 192 98 192 208c0 106 -81 205 -192 205c-117 0 -187 -93 -187 -208c0 -110 70 -205 187 -205z" />
    <glyph glyph-name="r" unicode="r" horiz-adv-x="380" 
d="M165 534v-106c40 83 111 114 172 114c5 0 20 0 26 -1v-83c-10 1 -20 2 -30 2c-126 0 -167 -104 -167 -199v-261h-78v534h77z" />
    <glyph glyph-name="s" unicode="s" horiz-adv-x="493" 
d="M442 152c0 -93 -82 -161 -192 -161c-108 0 -172 55 -209 138l64 35c25 -53 64 -104 144 -104c58 0 114 31 114 87c0 47 -39 69 -134 91c-71 16 -109 32 -139 66c-19 22 -29 50 -29 80c0 97 96 159 186 159c106 0 160 -58 189 -124l-64 -35c-24 51 -58 90 -125 90
c-58 0 -108 -38 -108 -84c0 -44 26 -63 125 -84c65 -14 108 -33 140 -66c23 -23 38 -53 38 -88z" />
    <glyph glyph-name="t" unicode="t" horiz-adv-x="380" 
d="M275 -4c-116 0 -151 64 -151 142v327h-99v69h99v154h77v-154h135v-69h-135v-325c0 -48 28 -75 87 -75c17 0 36 1 48 4v-65c-16 -5 -47 -8 -61 -8z" />
    <glyph glyph-name="u" unicode="u" horiz-adv-x="632" 
d="M159 534v-311c0 -95 49 -162 148 -162c93 0 159 73 159 168v305h77v-534h-76v98c-42 -73 -105 -108 -183 -108c-131 0 -202 89 -202 214v330h77z" />
    <glyph glyph-name="v" unicode="v" horiz-adv-x="584" 
d="M109 534l183 -448l186 448h83l-228 -534h-83l-227 534h86z" />
    <glyph glyph-name="w" unicode="w" horiz-adv-x="866" 
d="M25 534h83l140 -443h1l145 443h78l146 -444h1l141 444h81l-180 -534h-87l-141 434h-1l-142 -434h-86z" />
    <glyph glyph-name="x" unicode="x" horiz-adv-x="551" 
d="M19 0l210 271l-203 263h92l158 -207l158 207h90l-202 -262l211 -272h-93l-165 217l-166 -217h-90z" />
    <glyph glyph-name="y" unicode="y" horiz-adv-x="594" 
d="M21 534h90l196 -413l185 413h84l-366 -797h-84l138 299z" />
    <glyph glyph-name="z" unicode="z" horiz-adv-x="514" 
d="M42 0v67l333 400h-326v67h419v-66l-333 -401h334v-67h-427z" />
    <glyph glyph-name="braceleft" unicode="{" horiz-adv-x="422" 
d="M22 336v69c72 2 145 28 130 135l-16 112c-24 168 59 210 210 210h39v-68h-33c-149 0 -153 -50 -136 -163l13 -91c7 -45 1 -149 -111 -169v-1c112 -20 120 -113 112 -163l-14 -97c-17 -112 -13 -163 136 -163h33v-68h-39c-151 0 -234 42 -210 210l16 112
c16 108 -58 133 -130 135z" />
    <glyph glyph-name="bar" unicode="|" horiz-adv-x="282" 
d="M179 -116h-76v1007h76v-1007z" />
    <glyph glyph-name="braceright" unicode="}" horiz-adv-x="422" 
d="M400 405v-69c-71 -2 -146 -27 -130 -135l16 -112c25 -168 -58 -210 -209 -210h-39v68h33c148 0 152 51 136 163l-15 97c-7 50 1 143 113 163v1c-112 20 -119 124 -112 169l14 91c16 113 12 163 -136 163h-33v68h39c151 0 233 -42 209 -210l-16 -112
c-15 -107 59 -133 130 -135z" />
    <glyph glyph-name="asciitilde" unicode="~" horiz-adv-x="610" 
d="M408 219c-60 0 -93 30 -126 64c-30 31 -53 46 -79 46c-38 0 -58 -29 -61 -108h-70c1 121 45 185 131 185c57 0 93 -28 137 -75c24 -27 48 -35 68 -35c38 0 57 29 60 108h70c-1 -120 -44 -185 -130 -185z" />
    <glyph glyph-name="Euro" unicode="&#x20ac;" horiz-adv-x="902" 
d="M789 268l74 -35c-42 -119 -162 -241 -354 -241c-179 0 -329 110 -375 282h-87v69h74c-1 15 -2 30 -2 46c0 17 1 34 3 51h-75v69h88c49 171 202 282 378 282c192 0 312 -121 349 -240l-74 -34c-32 96 -114 196 -277 196c-130 0 -243 -79 -287 -204h359l-22 -69h-353
c-2 -15 -3 -30 -3 -46c0 -17 1 -34 3 -51h328l-22 -69h-289c43 -122 151 -204 287 -204c144 0 234 82 277 198z" />
    <glyph glyph-name="quotesinglbase" unicode="&#x201a;" horiz-adv-x="287" 
d="M110 -153l-39 36c45 34 80 74 87 120c-7 -3 -16 -5 -24 -5c-38 0 -66 26 -66 66c0 41 32 71 70 71c46 0 79 -38 79 -98v-4c0 -70 -37 -136 -107 -186z" />
    <glyph glyph-name="florin" unicode="&#x192;" horiz-adv-x="583" 
d="M286 534l13 66c18 87 78 186 210 186c10 0 27 -1 44 -3v-68c-14 2 -24 2 -30 2c-85 0 -132 -50 -146 -125l-11 -58h138v-68h-151l-57 -292c-17 -87 -78 -183 -209 -183c-10 0 -28 1 -45 3v67c14 -1 25 -1 30 -1c85 0 132 49 146 125l55 281h-115v68h128z" />
    <glyph glyph-name="quotedblbase" unicode="&#x201e;" horiz-adv-x="482" 
d="M110 -153l-39 36c45 34 80 74 87 120c-7 -3 -16 -5 -24 -5c-38 0 -66 26 -66 66c0 41 32 71 70 71c46 0 79 -38 79 -98v-4c0 -70 -37 -136 -107 -186zM305 -153l-39 36c45 34 80 74 87 120c-7 -3 -16 -5 -24 -5c-38 0 -66 26 -66 66c0 41 32 71 70 71c46 0 79 -38 79 -98
v-4c0 -70 -37 -136 -107 -186z" />
    <glyph glyph-name="ellipsis" unicode="&#x2026;" horiz-adv-x="855" 
d="M68 63c0 40 32 72 72 72c39 0 71 -32 71 -72s-32 -72 -71 -72c-40 0 -72 32 -72 72zM356 63c0 40 33 72 72 72c40 0 72 -32 72 -72s-32 -72 -72 -72c-39 0 -72 32 -72 72zM644 63c0 40 32 72 71 72c40 0 72 -32 72 -72s-32 -72 -72 -72c-39 0 -71 32 -71 72z" />
    <glyph glyph-name="dagger" unicode="&#x2020;" horiz-adv-x="629" 
d="M354 517h194v-72h-194v-445h-76v445h-197v72h197v224h76v-224z" />
    <glyph glyph-name="daggerdbl" unicode="&#x2021;" horiz-adv-x="629" 
d="M64 535h212v206h76v-206h213v-71h-213v-392h213v-72h-213v-207h-76v207h-212v72h212v392h-212v71z" />
    <glyph glyph-name="perthousand" unicode="&#x2030;" horiz-adv-x="1253" 
d="M216 438c-98 0 -177 79 -177 176c0 98 79 177 177 177c97 0 177 -79 177 -177c0 -97 -80 -176 -177 -176zM135 0l511 783h79l-511 -783h-79zM216 725c-61 0 -111 -50 -111 -111s50 -110 111 -110s111 49 111 110s-50 111 -111 111zM649 -6c-97 0 -176 79 -176 176
c0 98 79 177 176 177c98 0 177 -79 177 -177c0 -97 -79 -176 -177 -176zM1038 -6c-98 0 -177 79 -177 176c0 98 79 177 177 177c97 0 176 -79 176 -177c0 -97 -79 -176 -176 -176zM649 281c-61 0 -110 -50 -110 -111s49 -110 110 -110c62 0 111 49 111 110s-49 111 -111 111
zM1038 281c-61 0 -111 -50 -111 -111s50 -110 111 -110s110 49 110 110s-49 111 -110 111z" />
    <glyph glyph-name="Scaron" unicode="&#x160;" horiz-adv-x="628" 
d="M270 856l-133 173h83l89 -118h2l91 118h83l-137 -173h-78zM320 -8c-137 0 -226 72 -271 191l71 37c37 -91 93 -151 200 -151c92 0 168 54 168 136s-66 128 -182 156c-161 39 -234 108 -234 217c0 134 116 214 246 214s212 -70 247 -163l-70 -39c-26 65 -75 125 -179 125
c-84 0 -162 -51 -162 -133c0 -71 49 -110 167 -140c84 -21 154 -52 197 -99c33 -36 54 -80 54 -132c0 -115 -95 -219 -252 -219z" />
    <glyph glyph-name="guilsinglleft" unicode="&#x2039;" horiz-adv-x="347" 
d="M148 303l127 -132l-47 -47l-181 177l181 181l47 -47z" />
    <glyph glyph-name="OE" unicode="&#x152;" horiz-adv-x="1311" 
d="M447 -7c-225 0 -393 173 -393 394v8c0 221 175 396 395 396c134 0 234 -61 306 -165h1v157h490v-76h-408v-271h373v-76h-373v-284h412v-76h-494v157h-2c-71 -105 -172 -164 -307 -164zM449 70c180 0 308 143 308 314v12c0 171 -127 317 -308 317
c-182 0 -309 -144 -309 -317v-8c0 -173 127 -318 309 -318z" />
    <glyph glyph-name="quoteleft" unicode="&#x2018;" horiz-adv-x="276" 
d="M169 792l39 -36c-45 -34 -80 -74 -87 -120c7 3 16 5 24 5c38 0 66 -26 66 -66c0 -41 -32 -71 -70 -71c-46 0 -79 38 -79 98v4c0 70 37 136 107 186z" />
    <glyph glyph-name="quoteright" unicode="&#x2019;" horiz-adv-x="278" 
d="M114 500l-39 36c45 34 80 74 87 120c-7 -3 -16 -5 -24 -5c-38 0 -66 26 -66 66c0 41 32 71 70 71c46 0 79 -38 79 -98v-4c0 -70 -37 -136 -107 -186z" />
    <glyph glyph-name="quotedblleft" unicode="&#x201c;" horiz-adv-x="471" 
d="M169 792l39 -36c-45 -34 -80 -74 -87 -120c7 3 16 5 24 5c38 0 66 -26 66 -66c0 -41 -32 -71 -70 -71c-46 0 -79 38 -79 98v4c0 70 37 136 107 186zM364 792l39 -36c-45 -34 -80 -74 -87 -120c7 3 16 5 24 5c38 0 66 -26 66 -66c0 -41 -32 -71 -70 -71
c-46 0 -79 38 -79 98v4c0 70 37 136 107 186z" />
    <glyph glyph-name="quotedblright" unicode="&#x201d;" horiz-adv-x="473" 
d="M114 500l-39 36c45 34 80 74 87 120c-7 -3 -16 -5 -24 -5c-38 0 -66 26 -66 66c0 41 32 71 70 71c46 0 79 -38 79 -98v-4c0 -70 -37 -136 -107 -186zM309 500l-39 36c45 34 80 74 87 120c-7 -3 -16 -5 -24 -5c-38 0 -66 26 -66 66c0 41 32 71 70 71c46 0 79 -38 79 -98
v-4c0 -70 -37 -136 -107 -186z" />
    <glyph glyph-name="bullet" unicode="&#x2022;" horiz-adv-x="503" 
d="M252 190c-96 0 -174 79 -174 175c0 95 78 177 174 177s173 -82 173 -177c0 -96 -77 -175 -173 -175z" />
    <glyph glyph-name="endash" unicode="&#x2013;" horiz-adv-x="609" 
d="M75 352h459v-78h-459v78z" />
    <glyph glyph-name="emdash" unicode="&#x2014;" horiz-adv-x="1022" 
d="M75 352h872v-78h-872v78z" />
    <glyph glyph-name="trademark" unicode="&#x2122;" horiz-adv-x="1032" 
d="M242 332h-67v391h-135v60h337v-60h-135v-391zM455 783h99l145 -366l140 366h103v-451h-64v382h-3l-149 -382h-56l-150 375h-3v-375h-62v451z" />
    <glyph glyph-name="scaron" unicode="&#x161;" horiz-adv-x="492" 
d="M283 625h-78l-134 172h83l90 -118h3l90 118h83zM441 152c0 -93 -82 -161 -192 -161c-108 0 -172 55 -209 138l64 35c25 -53 64 -104 144 -104c58 0 114 31 114 87c0 47 -39 69 -134 91c-71 16 -109 32 -139 66c-19 22 -29 50 -29 80c0 97 96 159 186 159
c106 0 160 -58 189 -124l-64 -35c-24 51 -58 90 -125 90c-58 0 -108 -38 -108 -84c0 -44 26 -63 125 -84c65 -14 108 -33 140 -66c23 -23 38 -53 38 -88z" />
    <glyph glyph-name="guilsinglright" unicode="&#x203a;" horiz-adv-x="347" 
d="M71 435l48 47l180 -181l-180 -177l-48 47l127 129z" />
    <glyph glyph-name="oe" unicode="&#x153;" horiz-adv-x="1075" 
d="M1027 243h-431c6 -104 86 -183 191 -183c78 0 139 46 170 107l57 -38c-46 -89 -132 -138 -226 -138c-102 0 -186 54 -230 136c-48 -82 -132 -136 -234 -136c-155 0 -275 122 -275 274c0 158 119 278 277 278c101 0 185 -52 233 -137c43 84 121 137 217 137
c165 0 252 -118 252 -274c0 -9 0 -18 -1 -26zM326 60c114 0 193 94 193 205c0 112 -79 210 -195 210s-195 -94 -195 -206s80 -209 197 -209zM597 309h352c-10 97 -71 166 -173 166c-92 0 -166 -77 -179 -166z" />
    <glyph glyph-name="Ydieresis" unicode="&#x178;" horiz-adv-x="741" 
d="M271 858c-30 0 -59 27 -59 60s29 60 59 60s59 -27 59 -60s-29 -60 -59 -60zM471 858c-30 0 -59 27 -59 60s29 60 59 60s59 -27 59 -60s-29 -60 -59 -60zM372 409l250 374h94l-304 -452v-331h-83v330l-303 453h99z" />
    <glyph glyph-name="exclamdown" unicode="&#xa1;" horiz-adv-x="265" 
d="M74 485c0 33 26 58 58 58c33 0 59 -25 59 -58c0 -32 -26 -59 -59 -59c-32 0 -58 27 -58 59zM91 -249v138l5 419h72l5 -419v-138h-82z" />
    <glyph glyph-name="cent" unicode="&#xa2;" horiz-adv-x="605" 
d="M496 180l68 -30c-28 -78 -98 -148 -211 -158v-94h-65v95c-134 18 -234 128 -234 274c0 142 102 255 234 273v97h65v-95c111 -9 183 -78 209 -155l-68 -30c-19 53 -63 107 -143 116v-412c80 10 124 65 145 119zM134 270c0 -98 60 -187 155 -206v406
c-93 -18 -155 -102 -155 -200z" />
    <glyph glyph-name="sterling" unicode="&#xa3;" horiz-adv-x="648" 
d="M548 145l57 -40c-29 -71 -100 -116 -174 -116c-91 0 -121 48 -198 48c-39 0 -79 -13 -129 -39l-44 78c93 56 149 119 149 206c0 20 -6 42 -15 64h-131v75h93c-27 46 -50 95 -50 145c0 115 102 225 244 225c140 0 208 -83 232 -160l-72 -34c-22 66 -71 118 -159 118
c-78 0 -160 -55 -160 -153c0 -46 30 -92 57 -141h222v-75h-187c6 -19 10 -39 10 -57c0 -67 -32 -136 -108 -189v-1c20 8 43 13 64 13c71 0 122 -46 184 -46c54 0 93 37 115 79z" />
    <glyph glyph-name="currency" unicode="&#xa4;" horiz-adv-x="663" 
d="M572 270c0 -54 -20 -103 -52 -142l84 -85l-48 -48l-87 87c-39 -26 -87 -41 -138 -41s-98 15 -137 41l-87 -87l-48 48l85 85c-32 39 -51 89 -51 142s19 103 50 142l-84 85l48 48l87 -86c38 27 86 42 137 42s99 -15 138 -42l87 86l48 -48l-84 -84c32 -39 52 -89 52 -143z
M167 270c0 -95 70 -160 164 -160s167 65 167 160s-73 163 -167 163s-164 -68 -164 -163z" />
    <glyph glyph-name="yen" unicode="&#xa5;" horiz-adv-x="737" 
d="M410 0h-83v136h-242v66h242v99h-242v67h218l-265 415h99l233 -379l234 379h95l-266 -415h219v-67h-242v-99h242v-66h-242v-136z" />
    <glyph glyph-name="brokenbar" unicode="&#xa6;" horiz-adv-x="279" 
d="M178 891v-390h-76v390h76zM178 -116h-76v390h76v-390z" />
    <glyph glyph-name="section" unicode="&#xa7;" horiz-adv-x="650" 
d="M458 143c0 52 -71 74 -153 95l-51 13c-103 26 -204 60 -204 149c0 80 75 118 145 129c-42 21 -81 58 -81 108c0 104 99 155 200 155c121 0 179 -71 209 -138l-65 -36c-25 52 -65 103 -146 103c-54 0 -116 -27 -116 -80c0 -49 58 -72 132 -91l97 -25
c94 -24 179 -59 179 -142c0 -79 -75 -117 -144 -129c43 -21 81 -58 81 -108c0 -110 -107 -158 -201 -158c-136 0 -205 75 -243 161l66 36c31 -63 76 -126 176 -126c51 0 119 25 119 84zM405 296c71 0 119 35 119 77c0 37 -35 66 -155 96c-54 13 -91 17 -119 17
c-71 0 -120 -34 -120 -76c0 -37 36 -66 156 -96c52 -13 90 -18 119 -18z" />
    <glyph glyph-name="dieresis" unicode="&#xa8;" horiz-adv-x="334" 
d="M70 624c-30 0 -59 26 -59 60c0 33 29 60 59 60c31 0 59 -27 59 -60c0 -34 -28 -60 -59 -60zM261 624c-31 0 -59 26 -59 60c0 33 28 60 59 60c30 0 59 -27 59 -60c0 -34 -29 -60 -59 -60z" />
    <glyph glyph-name="copyright" unicode="&#xa9;" horiz-adv-x="902" 
d="M847 391c0 -221 -178 -399 -396 -399c-219 0 -396 178 -396 399s177 401 396 401c218 0 396 -180 396 -401zM795 391c0 194 -151 353 -344 353s-344 -159 -344 -353s151 -351 344 -351s344 157 344 351zM672 291l-66 29c-22 -55 -66 -108 -150 -108
c-103 0 -170 86 -170 183s70 178 170 178c84 0 128 -51 148 -105l66 29c-26 78 -100 143 -214 143c-137 0 -248 -108 -248 -247c0 -144 109 -248 247 -248c117 0 189 68 217 146z" />
    <glyph glyph-name="ordfeminine" unicode="&#xaa;" horiz-adv-x="566" 
d="M403 449h-3c-22 -41 -71 -69 -128 -69c-109 0 -181 92 -181 192c0 97 73 193 181 193c60 0 105 -32 128 -71h3v65h71v-374h-71v64zM403 573c0 66 -51 126 -119 126c-72 0 -120 -55 -120 -128c0 -69 51 -126 120 -126c70 0 119 60 119 128zM81 209v66h379v-66h-379z" />
    <glyph glyph-name="guillemotleft" unicode="&#xab;" horiz-adv-x="567" 
d="M148 303l127 -132l-47 -47l-181 177l181 181l47 -47zM369 303l127 -132l-48 -47l-180 177l180 181l48 -47z" />
    <glyph glyph-name="logicalnot" unicode="&#xac;" horiz-adv-x="659" 
d="M62 522h514v-258h-75v185h-439v73z" />
    <glyph glyph-name="registered" unicode="&#xae;" horiz-adv-x="615" 
d="M307 274c-140 0 -254 116 -254 259c0 142 114 258 254 258c141 0 255 -116 255 -258c0 -143 -114 -259 -255 -259zM307 752c-118 0 -213 -99 -213 -219c0 -121 95 -221 213 -221s214 100 214 221s-96 219 -214 219zM206 688h105c75 0 111 -43 111 -95
c0 -50 -33 -79 -72 -90l86 -126h-60l-81 118h-40v-118h-49v311zM372 592c0 23 -13 48 -63 48h-54v-98l53 1c48 0 64 26 64 49z" />
    <glyph glyph-name="degree" unicode="&#xb0;" horiz-adv-x="457" 
d="M228 441c-96 0 -174 77 -174 175c0 95 78 174 174 174c98 0 175 -79 175 -174c0 -98 -77 -175 -175 -175zM228 724c-61 0 -108 -48 -108 -108c0 -59 47 -109 108 -109s108 50 108 109c0 57 -50 108 -108 108z" />
    <glyph glyph-name="plusminus" unicode="&#xb1;" horiz-adv-x="651" 
d="M364 408h217v-73h-217v-184h-76v184h-217v73h217v181h76v-181zM579 82h-506v-72h506v72z" />
    <glyph glyph-name="uni00B2" unicode="&#xb2;" horiz-adv-x="465" 
d="M394 426h-328v63l170 137c53 43 86 79 86 121s-35 79 -88 79c-52 0 -83 -33 -101 -80l-62 26c22 74 85 119 164 119c95 0 157 -65 157 -142c0 -67 -38 -108 -106 -163l-122 -97h230v-63z" />
    <glyph glyph-name="uni00B3" unicode="&#xb3;" horiz-adv-x="446" 
d="M220 418c-77 0 -144 43 -167 117l60 26c20 -47 49 -79 107 -79c60 0 98 32 98 72c0 44 -29 74 -96 74h-56v60h52c65 0 91 28 91 70c0 34 -30 69 -90 69c-54 0 -84 -31 -103 -78l-60 26c22 73 88 116 164 116c94 0 158 -60 158 -128c0 -42 -18 -79 -67 -102
c50 -18 75 -57 75 -109c0 -71 -68 -134 -166 -134z" />
    <glyph glyph-name="acute" unicode="&#xb4;" horiz-adv-x="240" 
d="M21 625l108 172h95l-128 -172h-75z" />
    <glyph glyph-name="uni00B5" unicode="&#xb5;" horiz-adv-x="661" 
d="M177 534v-311c0 -95 49 -162 148 -162c92 0 159 73 159 168v305h77v-534h-76v98c-43 -73 -105 -108 -184 -108c-51 0 -93 13 -125 38v-192h-77v698h78z" />
    <glyph glyph-name="paragraph" unicode="&#xb6;" horiz-adv-x="507" 
d="M314 381h-75c-111 0 -201 91 -201 202s90 200 201 200h155v-783h-80v381z" />
    <glyph glyph-name="periodcentered" unicode="&#xb7;" horiz-adv-x="293" 
d="M75 316c0 40 32 72 71 72c40 0 72 -32 72 -72c0 -39 -32 -71 -72 -71c-39 0 -71 32 -71 71z" />
    <glyph glyph-name="uni00B9" unicode="&#xb9;" horiz-adv-x="304" 
d="M152 425v381l-94 -55l-31 52l132 78h63v-455z" />
    <glyph glyph-name="ordmasculine" unicode="&#xba;" horiz-adv-x="555" 
d="M277 380c-109 0 -194 85 -194 191c0 110 84 194 195 194c109 0 194 -84 194 -191c0 -110 -85 -194 -195 -194zM277 700c-71 0 -120 -57 -120 -126s50 -128 121 -128c70 0 121 57 121 125c0 70 -51 129 -122 129zM88 209v66h379v-66h-379z" />
    <glyph glyph-name="guillemotright" unicode="&#xbb;" horiz-adv-x="561" 
d="M71 435l48 47l180 -181l-180 -177l-48 47l127 129zM286 435l47 47l181 -181l-181 -177l-47 47l127 129z" />
    <glyph glyph-name="onequarter" unicode="&#xbc;" horiz-adv-x="862" 
d="M36 705l131 78h63v-456h-70v381l-94 -55zM98 0h80l510 783h-79zM419 100h249v-100h69v100h82v63h-82v294h-85l-233 -280v-77zM668 163h-178l178 214v-214z" />
    <glyph glyph-name="onehalf" unicode="&#xbd;" horiz-adv-x="871" 
d="M230 783v-456h-69v381l-95 -55l-30 52l131 78h63zM168 0l511 783h-79l-511 -783h79zM589 63l122 97c68 55 106 96 106 163c0 77 -62 142 -157 142c-79 0 -142 -45 -164 -119l62 -26c18 47 49 80 101 80c53 0 88 -37 88 -79s-33 -78 -86 -121l-170 -137v-63h328v63h-230z
" />
    <glyph glyph-name="threequarters" unicode="&#xbe;" horiz-adv-x="964" 
d="M210 319c-77 0 -144 43 -167 117l60 26c20 -47 49 -79 107 -79c60 0 98 32 98 72c0 44 -29 74 -96 74h-56v60h52c65 0 91 28 91 70c0 34 -30 69 -90 69c-54 0 -84 -31 -103 -78l-60 26c22 73 88 116 164 116c94 0 158 -60 158 -128c0 -42 -18 -79 -67 -102
c50 -18 75 -57 75 -109c0 -71 -68 -134 -166 -134zM794 783l-511 -783h-79l510 783h80zM925 100h-82v-100h-69v100h-249v77l233 280h85v-294h82v-63zM596 163h178v214z" />
    <glyph glyph-name="questiondown" unicode="&#xbf;" horiz-adv-x="511" 
d="M343 484c0 -32 -27 -58 -59 -58c-33 0 -58 26 -58 58c0 33 25 59 58 59c32 0 59 -26 59 -59zM255 -181c75 0 124 42 150 115l72 -37c-36 -102 -122 -155 -222 -155c-125 0 -213 84 -213 197c0 46 12 78 29 107c20 33 51 63 94 99c58 48 81 77 81 142v40h77v-49
c0 -72 -28 -123 -90 -177l-28 -24c-62 -55 -79 -85 -79 -137c0 -65 45 -121 129 -121z" />
    <glyph glyph-name="Agrave" unicode="&#xc0;" horiz-adv-x="775" 
d="M317 1027l109 -172h-75l-128 172h94zM600 200h-427l-86 -200h-84l338 783h93l338 -783h-87zM568 275l-182 423l-182 -423h364z" />
    <glyph glyph-name="Aacute" unicode="&#xc1;" horiz-adv-x="775" 
d="M350 855l108 172h95l-129 -172h-74zM600 200h-427l-86 -200h-84l338 783h93l338 -783h-87zM568 275l-182 423l-182 -423h364z" />
    <glyph glyph-name="Acircumflex" unicode="&#xc2;" horiz-adv-x="775" 
d="M479 854l-91 118h-3l-89 -118h-84l134 172h78l138 -172h-83zM600 200h-427l-86 -200h-84l338 783h93l338 -783h-87zM568 275l-182 423l-182 -423h364z" />
    <glyph glyph-name="Atilde" unicode="&#xc3;" horiz-adv-x="775" 
d="M418 944c19 -19 36 -25 50 -25c26 0 41 20 43 81h62c2 -93 -33 -147 -105 -147c-48 0 -75 23 -101 49c-22 23 -39 33 -58 33c-26 0 -41 -19 -43 -80h-62c-1 92 33 146 105 146c46 0 76 -21 109 -57zM600 200h-427l-86 -200h-84l338 783h93l338 -783h-87zM568 275
l-182 423l-182 -423h364z" />
    <glyph glyph-name="Adieresis" unicode="&#xc4;" horiz-adv-x="775" 
d="M286 858c-31 0 -59 27 -59 60s28 60 59 60c30 0 59 -27 59 -60s-29 -60 -59 -60zM486 858c-30 0 -59 27 -59 60s29 60 59 60s59 -27 59 -60s-29 -60 -59 -60zM600 200h-427l-86 -200h-84l338 783h93l338 -783h-87zM568 275l-182 423l-182 -423h364z" />
    <glyph glyph-name="Aring" unicode="&#xc5;" horiz-adv-x="775" 
d="M3 0l315 731c-42 23 -71 67 -71 118c0 72 63 132 139 132c78 0 140 -60 140 -132c0 -50 -28 -94 -70 -117l316 -732h-87l-85 200h-427l-86 -200h-84zM386 926c-45 0 -80 -33 -80 -77s35 -79 80 -79s80 35 80 79c0 41 -38 77 -80 77zM204 275h364l-182 423z" />
    <glyph glyph-name="AE" unicode="&#xc6;" horiz-adv-x="1047" 
d="M948 436v-76h-373v-284h412l-1 -76h-492v200h-300l-113 -200h-90l450 783h541l1 -76h-408v-271h373zM494 709h-11l-247 -434h258v434z" />
    <glyph glyph-name="Ccedilla" unicode="&#xc7;" horiz-adv-x="837" 
d="M724 268l74 -35c-39 -112 -147 -226 -319 -240c20 -25 34 -59 34 -90c0 -93 -75 -147 -165 -147c-25 0 -52 4 -76 12v61c23 -6 46 -9 69 -9c66 0 101 35 101 95c0 32 -14 59 -32 78c-200 16 -356 173 -356 396c0 238 180 402 394 402c192 0 312 -121 349 -240l-74 -34
c-32 96 -114 196 -277 196c-166 0 -306 -130 -306 -319c0 -186 130 -324 307 -324c144 0 234 82 277 198z" />
    <glyph glyph-name="Egrave" unicode="&#xc8;" horiz-adv-x="664" 
d="M300 1027l109 -172h-76l-127 172h94zM191 76h412v-76h-494v783h490v-76h-408v-271h373v-76h-373v-284z" />
    <glyph glyph-name="Eacute" unicode="&#xc9;" horiz-adv-x="664" 
d="M303 855l109 172h94l-128 -172h-75zM599 783h-490v-783h494v76h-412v284h373v76h-373v271h408v76z" />
    <glyph glyph-name="Ecircumflex" unicode="&#xca;" horiz-adv-x="664" 
d="M448 854l-91 118h-3l-89 -118h-83l133 172h78l138 -172h-83zM191 76h412v-76h-494v783h490v-76h-408v-271h373v-76h-373v-284z" />
    <glyph glyph-name="Edieresis" unicode="&#xcb;" horiz-adv-x="664" 
d="M253 858c-30 0 -59 27 -59 60s29 60 59 60c31 0 59 -27 59 -60s-28 -60 -59 -60zM454 858c-31 0 -59 27 -59 60s28 60 59 60c30 0 59 -27 59 -60s-29 -60 -59 -60zM191 76h412v-76h-494v783h490v-76h-408v-271h373v-76h-373v-284z" />
    <glyph glyph-name="Igrave" unicode="&#xcc;" horiz-adv-x="300" 
d="M80 1027l108 -172h-75l-128 172h95zM109 783h82v-783h-82v783z" />
    <glyph glyph-name="Iacute" unicode="&#xcd;" horiz-adv-x="300" 
d="M112 855l108 172h95l-128 -172h-75zM191 783h-82v-783h82v783z" />
    <glyph glyph-name="Icircumflex" unicode="&#xce;" horiz-adv-x="300" 
d="M242 854l-91 118h-3l-89 -118h-83l133 172h78l138 -172h-83zM109 783h82v-783h-82v783z" />
    <glyph glyph-name="Idieresis" unicode="&#xcf;" horiz-adv-x="300" 
d="M50 858c-30 0 -59 27 -59 60s29 60 59 60s59 -27 59 -60s-29 -60 -59 -60zM250 858c-30 0 -59 27 -59 60s29 60 59 60s59 -27 59 -60s-29 -60 -59 -60zM109 783h82v-783h-82v783z" />
    <glyph glyph-name="Eth" unicode="&#xd0;" horiz-adv-x="820" 
d="M121 783h232c246 0 414 -169 414 -390c0 -233 -184 -393 -414 -393h-232v359h-106v77h106v347zM203 77h148c197 0 331 131 331 314c0 180 -129 315 -332 315h-147v-270h191v-77h-191v-282z" />
    <glyph glyph-name="Ntilde" unicode="&#xd1;" horiz-adv-x="856" 
d="M480 944c19 -19 36 -25 50 -25c26 0 41 20 43 81h62c2 -93 -33 -147 -105 -147c-48 0 -75 23 -101 49c-22 23 -39 33 -58 33c-26 0 -41 -19 -43 -80h-62c-1 92 33 146 105 146c46 0 76 -21 109 -57zM747 0h-88l-469 667v-667h-81v783h95l462 -654v654h81v-783z" />
    <glyph glyph-name="Ograve" unicode="&#xd2;" horiz-adv-x="896" 
d="M382 1027l109 -172h-75l-128 172h94zM842 394c0 223 -168 397 -393 397c-226 0 -395 -177 -395 -402c0 -223 168 -397 393 -397c227 0 395 177 395 402zM756 389c0 -175 -127 -320 -307 -320c-182 0 -310 148 -310 325c0 175 128 320 308 320c182 0 309 -149 309 -325z
" />
    <glyph glyph-name="Oacute" unicode="&#xd3;" horiz-adv-x="896" 
d="M405 855l108 172h95l-129 -172h-74zM842 394c0 223 -168 397 -393 397c-226 0 -395 -177 -395 -402c0 -223 168 -397 393 -397c227 0 395 177 395 402zM756 389c0 -175 -127 -320 -307 -320c-182 0 -310 148 -310 325c0 175 128 320 308 320c182 0 309 -149 309 -325z
" />
    <glyph glyph-name="Ocircumflex" unicode="&#xd4;" horiz-adv-x="896" 
d="M539 854l-91 118h-2l-90 -118h-83l134 172h77l138 -172h-83zM842 394c0 223 -168 397 -393 397c-226 0 -395 -177 -395 -402c0 -223 168 -397 393 -397c227 0 395 177 395 402zM756 389c0 -175 -127 -320 -307 -320c-182 0 -310 148 -310 325c0 175 128 320 308 320
c182 0 309 -149 309 -325z" />
    <glyph glyph-name="Otilde" unicode="&#xd5;" horiz-adv-x="896" 
d="M477 944c19 -19 36 -25 50 -25c26 0 41 20 43 81h62c2 -93 -33 -147 -105 -147c-48 0 -75 23 -101 49c-22 23 -39 33 -58 33c-26 0 -41 -19 -43 -80h-62c-1 92 33 146 105 146c46 0 76 -21 109 -57zM842 394c0 -225 -168 -402 -395 -402c-225 0 -393 174 -393 397
c0 225 169 402 395 402c225 0 393 -174 393 -397zM756 389c0 176 -127 325 -309 325c-180 0 -308 -145 -308 -320c0 -177 128 -325 310 -325c180 0 307 145 307 320z" />
    <glyph glyph-name="Odieresis" unicode="&#xd6;" horiz-adv-x="895" 
d="M349 858c-31 0 -59 27 -59 60s28 60 59 60c30 0 59 -27 59 -60s-29 -60 -59 -60zM549 858c-30 0 -59 27 -59 60s29 60 59 60s59 -27 59 -60s-29 -60 -59 -60zM841 394c0 223 -168 397 -392 397c-227 0 -395 -177 -395 -402c0 -223 168 -397 392 -397
c227 0 395 177 395 402zM756 389c0 -175 -127 -320 -307 -320c-182 0 -310 148 -310 325c0 175 127 320 307 320c182 0 310 -149 310 -325z" />
    <glyph glyph-name="multiply" unicode="&#xd7;" horiz-adv-x="622" 
d="M551 549l-190 -190l190 -190l-50 -50l-189 191l-190 -191l-50 50l190 190l-190 190l50 51l190 -192l189 192z" />
    <glyph glyph-name="Oslash" unicode="&#xd8;" horiz-adv-x="900" 
d="M847 772l-102 -111c62 -70 99 -163 99 -267c0 -225 -168 -402 -395 -402c-92 0 -175 29 -240 79l-103 -111l-50 49l101 111c-63 70 -100 164 -100 269c0 225 168 402 395 402c92 0 175 -30 242 -82l102 112zM142 394c0 -81 26 -155 71 -212l427 466
c-52 42 -117 66 -191 66c-180 0 -307 -145 -307 -320zM759 389c0 79 -26 153 -71 210l-425 -467c50 -39 114 -63 189 -63c180 0 307 145 307 320z" />
    <glyph glyph-name="Ugrave" unicode="&#xd9;" horiz-adv-x="786" 
d="M328 1027l108 -172h-75l-128 172h95zM687 783v-477c0 -198 -107 -314 -294 -314c-190 0 -294 124 -294 309v482h82v-478c0 -171 94 -236 215 -236c135 0 209 85 209 231v483h82z" />
    <glyph glyph-name="Uacute" unicode="&#xda;" horiz-adv-x="786" 
d="M350 855l108 172h95l-128 -172h-75zM605 783v-483c0 -146 -74 -231 -209 -231c-121 0 -215 65 -215 236v478h-82v-482c0 -185 104 -309 294 -309c187 0 294 116 294 314v477h-82z" />
    <glyph glyph-name="Ucircumflex" unicode="&#xdb;" horiz-adv-x="786" 
d="M484 854l-90 118h-3l-89 -118h-83l133 172h78l137 -172h-83zM687 783v-477c0 -198 -107 -314 -294 -314c-190 0 -294 124 -294 309v482h82v-478c0 -171 94 -236 215 -236c135 0 209 85 209 231v483h82z" />
    <glyph glyph-name="Udieresis" unicode="&#xdc;" horiz-adv-x="786" 
d="M293 858c-30 0 -59 27 -59 60s29 60 59 60s59 -27 59 -60s-29 -60 -59 -60zM493 858c-30 0 -59 27 -59 60s29 60 59 60s59 -27 59 -60s-29 -60 -59 -60zM687 783v-477c0 -198 -108 -314 -294 -314c-190 0 -294 124 -294 309v482h82v-478c0 -171 94 -236 215 -236
c135 0 209 85 209 231v483h82z" />
    <glyph glyph-name="Yacute" unicode="&#xdd;" horiz-adv-x="742" 
d="M328 855l109 172h94l-128 -172h-75zM125 783h-99l304 -453v-330h83v331l303 452h-94l-249 -374z" />
    <glyph glyph-name="Thorn" unicode="&#xde;" 
d="M645 398c0 -133 -98 -243 -288 -243h-166v-155h-82v783h82v-150h179c189 -1 275 -113 275 -235zM562 396c0 76 -44 160 -198 160h-173v-325h169c144 0 202 85 202 165z" />
    <glyph glyph-name="germandbls" unicode="&#xdf;" horiz-adv-x="654" 
d="M622 150c0 -95 -81 -159 -185 -159c-87 0 -154 37 -196 118l59 39c28 -57 73 -90 136 -90c58 0 107 34 107 87c0 51 -30 78 -112 118c-79 38 -133 70 -133 140c0 112 158 164 158 242c0 58 -43 103 -127 103c-109 0 -164 -93 -164 -193v-555h-77v550
c0 166 105 267 242 267c111 0 205 -64 205 -163c0 -52 -22 -94 -89 -152c-49 -43 -69 -66 -69 -95s17 -47 108 -88c47 -21 84 -50 106 -80c20 -27 31 -55 31 -89z" />
    <glyph glyph-name="agrave" unicode="&#xe0;" horiz-adv-x="568" 
d="M216 797l108 -172h-74l-129 172h95zM410 308v36c0 86 -47 130 -136 130c-82 0 -127 -49 -153 -105l-64 36c37 85 111 138 219 138c113 0 169 -51 195 -110c12 -29 16 -71 16 -88v-345h-76v94h-1c-42 -66 -100 -103 -180 -103c-108 0 -179 67 -179 157v6
c0 116 116 154 211 154h148zM410 244h-149c-57 0 -132 -18 -132 -90c0 -60 51 -94 115 -94c95 0 166 67 166 165v19z" />
    <glyph glyph-name="aacute" unicode="&#xe1;" horiz-adv-x="568" 
d="M228 625l108 172h95l-128 -172h-75zM410 308v36c0 86 -47 130 -136 130c-82 0 -127 -49 -153 -105l-64 36c37 85 111 138 219 138c113 0 169 -51 195 -110c12 -29 16 -71 16 -88v-345h-76v94h-1c-42 -66 -100 -103 -180 -103c-108 0 -179 67 -179 157v6
c0 116 116 154 211 154h148zM410 244h-149c-57 0 -132 -18 -132 -90c0 -60 51 -94 115 -94c95 0 166 67 166 165v19z" />
    <glyph glyph-name="acircumflex" unicode="&#xe2;" horiz-adv-x="568" 
d="M373 625l-91 118h-3l-89 -118h-84l134 172h78l138 -172h-83zM410 308v36c0 86 -47 130 -136 130c-82 0 -127 -49 -153 -105l-64 36c37 85 111 138 219 138c113 0 169 -51 195 -110c12 -29 16 -71 16 -88v-345h-76v94h-1c-42 -66 -100 -103 -180 -103
c-108 0 -179 67 -179 157v6c0 116 116 154 211 154h148zM410 244h-149c-57 0 -132 -18 -132 -90c0 -60 51 -94 115 -94c95 0 166 67 166 165v19z" />
    <glyph glyph-name="atilde" unicode="&#xe3;" horiz-adv-x="568" 
d="M301 715c19 -19 36 -25 50 -25c26 0 41 20 43 81h62c2 -93 -33 -147 -105 -147c-48 0 -75 23 -101 49c-22 23 -39 33 -58 33c-26 0 -41 -19 -43 -80h-62c-1 92 33 146 105 146c46 0 76 -21 109 -57zM410 308v36c0 86 -47 130 -136 130c-82 0 -127 -49 -153 -105l-64 36
c37 85 111 138 219 138c113 0 169 -51 195 -110c12 -29 16 -71 16 -88v-345h-76v94h-1c-42 -66 -100 -103 -180 -103c-108 0 -179 67 -179 157v6c0 116 116 154 211 154h148zM410 244h-149c-57 0 -132 -18 -132 -90c0 -60 51 -94 115 -94c95 0 166 67 166 165v19z" />
    <glyph glyph-name="adieresis" unicode="&#xe4;" horiz-adv-x="568" 
d="M182 624c-30 0 -59 26 -59 60c0 33 29 60 59 60s59 -27 59 -60c0 -34 -29 -60 -59 -60zM373 624c-31 0 -60 26 -60 60c0 33 29 60 60 60c30 0 59 -27 59 -60c0 -34 -29 -60 -59 -60zM410 308v36c0 86 -47 130 -136 130c-82 0 -127 -49 -153 -105l-64 36
c37 85 111 138 219 138c113 0 169 -51 195 -110c12 -29 16 -71 16 -88v-345h-76v94h-1c-42 -66 -100 -103 -180 -103c-108 0 -179 67 -179 157v6c0 116 116 154 211 154h148zM410 244h-149c-57 0 -132 -18 -132 -90c0 -60 51 -94 115 -94c95 0 166 67 166 165v19z" />
    <glyph glyph-name="aring" unicode="&#xe5;" horiz-adv-x="568" 
d="M471 433c12 -29 16 -71 16 -88v-345h-76v94h-1c-42 -66 -100 -103 -180 -103c-108 0 -179 67 -179 157v6c0 116 116 154 211 154h148v36c0 86 -47 130 -136 130c-82 0 -127 -49 -153 -105l-64 36c25 56 65 98 120 120c-25 24 -40 57 -40 94c0 72 63 132 139 132
c78 0 140 -60 140 -132c0 -37 -15 -69 -40 -93c49 -20 78 -55 95 -93zM276 696c-45 0 -80 -33 -80 -77s35 -79 80 -79s80 35 80 79c0 41 -38 77 -80 77zM410 244h-149c-57 0 -132 -18 -132 -90c0 -60 51 -94 115 -94c95 0 166 67 166 165v19z" />
    <glyph glyph-name="ae" unicode="&#xe6;" horiz-adv-x="967" 
d="M412 308v36c0 86 -48 130 -137 130c-82 0 -127 -49 -153 -105l-64 36c37 85 111 138 219 138c100 0 165 -46 189 -111c42 67 119 111 204 111c165 0 251 -118 251 -274c0 -9 -1 -18 -1 -26h-433c3 -101 87 -183 191 -183c78 0 139 46 169 107l58 -38
c-46 -89 -132 -138 -226 -138c-98 0 -179 50 -226 125c-48 -83 -123 -125 -216 -125h-3c-110 0 -183 67 -183 157v6c0 116 116 154 211 154h150zM487 309h355c-8 97 -71 166 -173 166c-93 0 -172 -79 -182 -166zM412 244h-151c-57 0 -132 -18 -132 -90c0 -60 52 -94 116 -94
c95 0 167 67 167 165v19z" />
    <glyph glyph-name="ccedilla" unicode="&#xe7;" horiz-adv-x="600" 
d="M491 180l68 -30c-27 -76 -95 -145 -203 -157c21 -25 35 -59 35 -90c0 -93 -74 -147 -165 -147c-25 0 -51 4 -75 12v61c22 -6 45 -9 68 -9c66 0 101 35 101 95c0 31 -13 59 -31 78c-136 15 -240 125 -240 274c0 156 122 276 273 276c126 0 207 -73 235 -156l-68 -30
c-21 58 -72 117 -167 117c-114 0 -193 -93 -193 -204s76 -210 193 -210c96 0 146 61 169 120z" />
    <glyph glyph-name="egrave" unicode="&#xe8;" horiz-adv-x="607" 
d="M244 797l108 -172h-75l-128 172h95zM560 243h-432c6 -104 87 -183 191 -183c78 0 139 46 169 107l58 -38c-46 -89 -132 -138 -226 -138c-155 0 -271 123 -271 277c0 145 110 275 260 275c165 0 252 -118 252 -274c0 -9 0 -18 -1 -26zM129 309h353
c-10 97 -71 166 -173 166c-93 0 -167 -77 -180 -166z" />
    <glyph glyph-name="eacute" unicode="&#xe9;" horiz-adv-x="607" 
d="M265 625l109 172h94l-128 -172h-75zM560 243h-432c6 -104 87 -183 191 -183c78 0 139 46 169 107l58 -38c-46 -89 -132 -138 -226 -138c-155 0 -271 123 -271 277c0 145 110 275 260 275c165 0 252 -118 252 -274c0 -9 0 -18 -1 -26zM129 309h353
c-10 97 -71 166 -173 166c-93 0 -167 -77 -180 -166z" />
    <glyph glyph-name="ecircumflex" unicode="&#xea;" horiz-adv-x="607" 
d="M404 625l-91 118h-2l-90 -118h-83l133 172h78l138 -172h-83zM560 243h-432c6 -104 87 -183 191 -183c78 0 139 46 169 107l58 -38c-46 -89 -132 -138 -226 -138c-155 0 -271 123 -271 277c0 145 110 275 260 275c165 0 252 -118 252 -274c0 -9 0 -18 -1 -26zM129 309h353
c-10 97 -71 166 -173 166c-93 0 -167 -77 -180 -166z" />
    <glyph glyph-name="edieresis" unicode="&#xeb;" horiz-adv-x="607" 
d="M213 624c-30 0 -59 26 -59 60c0 33 29 60 59 60s59 -27 59 -60c0 -34 -29 -60 -59 -60zM403 624c-30 0 -59 26 -59 60c0 33 29 60 59 60c31 0 59 -27 59 -60c0 -34 -28 -60 -59 -60zM560 243h-432c6 -104 87 -183 191 -183c78 0 139 46 169 107l58 -38
c-46 -89 -132 -138 -226 -138c-155 0 -271 123 -271 277c0 145 110 275 260 275c165 0 252 -118 252 -274c0 -9 0 -18 -1 -26zM129 309h353c-10 97 -71 166 -173 166c-93 0 -167 -77 -180 -166z" />
    <glyph glyph-name="igrave" unicode="&#xec;" horiz-adv-x="255" 
d="M57 797l108 -172h-75l-128 172h95zM88 534h79v-534h-79v534z" />
    <glyph glyph-name="iacute" unicode="&#xed;" horiz-adv-x="255" 
d="M90 625l108 172h95l-128 -172h-75zM167 534h-79v-534h79v534z" />
    <glyph glyph-name="icircumflex" unicode="&#xee;" horiz-adv-x="255" 
d="M219 625l-91 118h-3l-89 -118h-83l133 172h78l138 -172h-83zM88 534h79v-534h-79v534z" />
    <glyph glyph-name="idieresis" unicode="&#xef;" horiz-adv-x="255" 
d="M35 624c-31 0 -59 26 -59 60c0 33 28 60 59 60c30 0 59 -27 59 -60c0 -34 -29 -60 -59 -60zM221 624c-31 0 -59 26 -59 60c0 33 28 60 59 60c30 0 59 -27 59 -60c0 -34 -29 -60 -59 -60zM88 534h79v-534h-79v534z" />
    <glyph glyph-name="eth" unicode="&#xf0;" horiz-adv-x="656" 
d="M497 733l-105 -48c117 -102 205 -231 205 -386c0 -187 -117 -308 -277 -308c-156 0 -270 118 -270 268c0 139 111 257 262 257c35 0 130 -16 198 -100l2 1c-32 78 -94 158 -190 237l-174 -82l-24 58l144 65c-30 22 -63 44 -99 65l39 58c44 -26 88 -56 130 -88l134 63z
M323 59c107 0 195 94 195 197c0 24 -5 58 -18 84c-32 63 -102 111 -182 111c-113 0 -189 -91 -189 -196c0 -101 80 -196 194 -196z" />
    <glyph glyph-name="ntilde" unicode="&#xf1;" horiz-adv-x="633" 
d="M350 715c19 -19 36 -25 50 -25c26 0 41 20 43 81h62c2 -93 -33 -147 -105 -147c-48 0 -75 23 -101 49c-22 23 -39 33 -58 33c-26 0 -41 -19 -43 -80h-62c-1 92 33 146 105 146c46 0 76 -21 109 -57zM474 0v311c0 95 -49 162 -148 162c-93 0 -159 -74 -159 -169v-304h-79
v534h78v-98c42 72 105 108 184 108c131 0 202 -89 202 -214v-330h-78z" />
    <glyph glyph-name="ograve" unicode="&#xf2;" horiz-adv-x="650" 
d="M256 797l109 -172h-75l-128 172h94zM324 -9c-155 0 -275 122 -275 274c0 158 119 278 277 278c154 0 275 -121 275 -274c0 -158 -121 -278 -277 -278zM326 60c114 0 195 94 195 205c0 112 -81 210 -197 210s-195 -94 -195 -206s80 -209 197 -209z" />
    <glyph glyph-name="oacute" unicode="&#xf3;" horiz-adv-x="650" 
d="M288 625l108 172h95l-129 -172h-74zM324 -9c-155 0 -275 122 -275 274c0 158 119 278 277 278c154 0 275 -121 275 -274c0 -158 -121 -278 -277 -278zM326 60c114 0 195 94 195 205c0 112 -81 210 -197 210s-195 -94 -195 -206s80 -209 197 -209z" />
    <glyph glyph-name="ocircumflex" unicode="&#xf4;" horiz-adv-x="650" 
d="M418 625l-91 118h-2l-90 -118h-83l134 172h77l138 -172h-83zM324 -9c-155 0 -275 122 -275 274c0 158 119 278 277 278c154 0 275 -121 275 -274c0 -158 -121 -278 -277 -278zM326 60c114 0 195 94 195 205c0 112 -81 210 -197 210s-195 -94 -195 -206s80 -209 197 -209z
" />
    <glyph glyph-name="otilde" unicode="&#xf5;" horiz-adv-x="650" 
d="M358 715c19 -19 36 -25 50 -25c26 0 41 20 43 81h62c2 -93 -33 -147 -105 -147c-48 0 -75 23 -101 49c-22 23 -39 33 -58 33c-26 0 -41 -19 -43 -80h-62c-1 92 33 146 105 146c46 0 76 -21 109 -57zM324 -9c-155 0 -275 122 -275 274c0 158 119 278 277 278
c154 0 275 -121 275 -274c0 -158 -121 -278 -277 -278zM326 60c114 0 195 94 195 205c0 112 -81 210 -197 210s-195 -94 -195 -206s80 -209 197 -209z" />
    <glyph glyph-name="odieresis" unicode="&#xf6;" horiz-adv-x="650" 
d="M230 624c-30 0 -59 26 -59 60c0 33 29 60 59 60c31 0 60 -27 60 -60c0 -34 -29 -60 -60 -60zM421 624c-30 0 -59 26 -59 60c0 33 29 60 59 60s59 -27 59 -60c0 -34 -29 -60 -59 -60zM324 -9c-155 0 -275 122 -275 274c0 158 119 278 277 278c154 0 275 -121 275 -274
c0 -158 -121 -278 -277 -278zM326 60c114 0 195 94 195 205c0 112 -81 210 -197 210s-195 -94 -195 -206s80 -209 197 -209z" />
    <glyph glyph-name="divide" unicode="&#xf7;" horiz-adv-x="616" 
d="M368 573c0 -33 -27 -61 -60 -61c-34 0 -61 28 -61 61c0 32 27 61 61 61c33 0 60 -29 60 -61zM545 418h-475v-77h475v77zM368 187c0 -33 -27 -61 -60 -61c-34 0 -61 28 -61 61s27 62 61 62c33 0 60 -29 60 -62z" />
    <glyph glyph-name="oslash" unicode="&#xf8;" horiz-adv-x="654" 
d="M604 523l-68 -74c42 -48 67 -111 67 -180c0 -158 -121 -278 -277 -278c-60 0 -116 19 -161 51l-67 -73l-46 42l67 73c-42 49 -67 112 -67 181c0 158 118 278 276 278c60 0 116 -19 162 -52l68 74zM130 269c0 -47 15 -92 40 -128l271 296c-31 24 -70 38 -115 38
c-116 0 -196 -94 -196 -206zM524 265c0 47 -14 92 -40 128l-271 -296c31 -24 70 -38 115 -38c114 0 196 94 196 206z" />
    <glyph glyph-name="ugrave" unicode="&#xf9;" horiz-adv-x="632" 
d="M248 797l108 -172h-75l-128 172h95zM82 534v-330c0 -125 70 -214 202 -214c79 0 141 35 184 108v-98h76v534h-77v-305c0 -95 -67 -168 -159 -168c-100 0 -148 67 -148 162v311h-78z" />
    <glyph glyph-name="uacute" unicode="&#xfa;" horiz-adv-x="632" 
d="M275 625l108 172h95l-128 -172h-75zM160 534v-311c0 -95 48 -162 148 -162c92 0 159 73 159 168v305h77v-534h-76v98c-43 -73 -105 -108 -184 -108c-132 0 -202 89 -202 214v330h78z" />
    <glyph glyph-name="ucircumflex" unicode="&#xfb;" horiz-adv-x="632" 
d="M404 625l-91 118h-2l-89 -118h-83l133 172h78l137 -172h-83zM82 534v-330c0 -125 70 -214 202 -214c79 0 141 35 184 108v-98h76v534h-77v-305c0 -95 -67 -168 -159 -168c-100 0 -148 67 -148 162v311h-78z" />
    <glyph glyph-name="udieresis" unicode="&#xfc;" horiz-adv-x="632" 
d="M217 624c-30 0 -59 26 -59 60c0 33 29 60 59 60c31 0 59 -27 59 -60c0 -34 -28 -60 -59 -60zM408 624c-31 0 -59 26 -59 60c0 33 28 60 59 60c30 0 59 -27 59 -60c0 -34 -29 -60 -59 -60zM82 534v-330c0 -125 70 -214 202 -214c78 0 141 35 183 108v-98h76v534h-77v-305
c0 -95 -66 -168 -159 -168c-99 0 -148 67 -148 162v311h-77z" />
    <glyph glyph-name="yacute" unicode="&#xfd;" horiz-adv-x="595" 
d="M198 625l108 172h95l-129 -172h-74zM127 -263l138 299l-244 498h90l197 -413l185 413h84l-366 -797h-84z" />
    <glyph glyph-name="thorn" unicode="&#xfe;" horiz-adv-x="633" 
d="M623 268c0 -144 -99 -276 -251 -276c-99 0 -163 50 -206 118v-373h-78v1078h77v-397c43 67 106 125 207 125c152 0 251 -136 251 -275zM356 61c118 0 187 92 187 205c0 111 -69 208 -187 208c-110 0 -191 -98 -191 -205c0 -110 78 -208 191 -208z" />
    <glyph glyph-name="ydieresis" unicode="&#xff;" horiz-adv-x="594" 
d="M208 624c-31 0 -60 26 -60 60c0 33 29 60 60 60c30 0 59 -27 59 -60c0 -34 -29 -60 -59 -60zM398 624c-30 0 -59 26 -59 60c0 33 29 60 59 60s59 -27 59 -60c0 -34 -29 -60 -59 -60zM492 534l-185 -413l-196 413h-90l243 -498l-138 -299h84l366 797h-84z" />
    <glyph glyph-name="space" unicode=" " horiz-adv-x="279" 
 />
    <glyph glyph-name="Abreve" unicode="&#x102;" horiz-adv-x="775" 
d="M388 855c-81 0 -159 56 -163 168h62c3 -64 41 -106 101 -106c57 0 96 40 101 106h60c-2 -104 -74 -168 -161 -168zM600 200h-427l-86 -200h-84l338 783h93l338 -783h-87zM568 275l-182 423l-182 -423h364z" />
    <glyph glyph-name="Amacron" unicode="&#x100;" horiz-adv-x="775" 
d="M556 955v-71h-337v71h337zM600 200h-427l-86 -200h-84l338 783h93l338 -783h-87zM568 275l-182 423l-182 -423h364z" />
    <glyph glyph-name="Aogonek" unicode="&#x104;" horiz-adv-x="775" 
d="M790 -181v-60c-10 -2 -19 -3 -29 -3c-68 0 -133 37 -133 111c0 54 48 102 87 133h-30l-85 200h-427l-86 -200h-84l338 783h93l338 -783c-31 -26 -69 -73 -69 -115c0 -53 42 -67 87 -66zM568 275l-182 423l-182 -423h364z" />
    <glyph glyph-name="Aringacute" unicode="&#x1fa;" horiz-adv-x="775" 
d="M589 1098l-111 -149c29 -25 48 -61 48 -100c0 -50 -28 -94 -70 -117l316 -732h-87l-85 200h-427l-86 -200h-84l315 731c-42 23 -71 67 -71 118c0 72 63 132 139 132c11 0 22 -1 32 -3l76 120h95zM386 926c-45 0 -80 -33 -80 -77s35 -79 80 -79s80 35 80 79
c0 41 -38 77 -80 77zM386 698l-182 -423h364z" />
    <glyph glyph-name="AEacute" unicode="&#x1fc;" horiz-adv-x="1047" 
d="M577 855l108 172h95l-129 -172h-74zM948 436v-76h-373v-284h412l-1 -76h-492v200h-300l-113 -200h-90l450 783h541l1 -76h-408v-271h373zM494 709h-11l-247 -434h258v434z" />
    <glyph glyph-name="Cacute" unicode="&#x106;" horiz-adv-x="837" 
d="M409 855l109 172h94l-128 -172h-75zM444 -8c-216 0 -390 161 -390 397c0 238 180 402 394 402c192 0 312 -121 349 -240l-74 -34c-32 96 -114 196 -277 196c-166 0 -306 -130 -306 -319c0 -186 130 -324 307 -324c144 0 234 82 277 198l74 -35
c-42 -119 -162 -241 -354 -241z" />
    <glyph glyph-name="Ccaron" unicode="&#x10c;" horiz-adv-x="837" 
d="M408 856l-134 173h83l90 -118h2l91 118h83l-138 -173h-77zM444 -8c-216 0 -390 161 -390 397c0 238 180 402 394 402c192 0 312 -121 349 -240l-74 -34c-32 96 -114 196 -277 196c-166 0 -306 -130 -306 -319c0 -186 130 -324 307 -324c144 0 234 82 277 198l74 -35
c-42 -119 -162 -241 -354 -241z" />
    <glyph glyph-name="Ccircumflex" unicode="&#x108;" horiz-adv-x="837" 
d="M540 854l-91 118h-3l-89 -118h-83l133 172h78l138 -172h-83zM444 -8c-216 0 -390 161 -390 397c0 238 180 402 394 402c192 0 312 -121 349 -240l-74 -34c-32 96 -114 196 -277 196c-166 0 -306 -130 -306 -319c0 -186 130 -324 307 -324c144 0 234 82 277 198l74 -35
c-42 -119 -162 -241 -354 -241z" />
    <glyph glyph-name="Cdotaccent" unicode="&#x10a;" horiz-adv-x="837" 
d="M448 857c-31 0 -60 28 -60 62s29 61 60 61s60 -27 60 -61s-29 -62 -60 -62zM444 -8c-216 0 -390 161 -390 397c0 238 180 402 394 402c192 0 312 -121 349 -240l-74 -34c-32 96 -114 196 -277 196c-166 0 -306 -130 -306 -319c0 -186 130 -324 307 -324
c144 0 234 82 277 198l74 -35c-42 -119 -162 -241 -354 -241z" />
    <glyph glyph-name="Dcaron" unicode="&#x10e;" horiz-adv-x="809" 
d="M308 856l-134 173h83l90 -118h2l91 118h83l-138 -173h-77zM109 0h233c229 0 413 160 413 393c0 221 -169 390 -413 390h-233v-783zM193 706h147c203 0 332 -135 332 -315c0 -183 -133 -314 -331 -314h-148v629z" />
    <glyph glyph-name="Dcroat" unicode="&#x110;" horiz-adv-x="820" 
d="M121 783h232c246 0 414 -169 414 -390c0 -233 -184 -393 -414 -393h-232v359h-106v77h106v347zM203 77h148c197 0 331 131 331 314c0 180 -129 315 -332 315h-147v-270h191v-77h-191v-282z" />
    <glyph glyph-name="Ecaron" unicode="&#x11a;" horiz-adv-x="665" 
d="M315 856l-133 173h83l89 -118h3l91 118h83l-138 -173h-78zM600 783h-491v-783h495v76h-412v284h373v76h-373v271h408v76z" />
    <glyph glyph-name="Edotaccent" unicode="&#x116;" horiz-adv-x="664" 
d="M356 857c-31 0 -60 28 -60 62s29 61 60 61s60 -27 60 -61s-29 -62 -60 -62zM191 76h412v-76h-494v783h490v-76h-408v-271h373v-76h-373v-284z" />
    <glyph glyph-name="Emacron" unicode="&#x112;" horiz-adv-x="665" 
d="M525 955v-71h-337v71h337zM600 783h-491v-783h495v76h-412v284h373v76h-373v271h408v76z" />
    <glyph glyph-name="Eogonek" unicode="&#x118;" horiz-adv-x="665" 
d="M622 -181v-60c-10 -2 -19 -3 -29 -3c-69 0 -133 37 -133 111c0 54 48 102 86 133h-437v783h491v-76h-408v-271h373v-76h-373v-284h412v-76c-31 -26 -69 -73 -69 -115c0 -53 42 -67 87 -66z" />
    <glyph glyph-name="Gbreve" unicode="&#x11e;" horiz-adv-x="859" 
d="M452 855c-80 0 -158 56 -162 168h61c3 -64 42 -106 101 -106c57 0 97 40 102 106h60c-3 -104 -75 -168 -162 -168zM797 554l-74 -34c-33 94 -113 193 -277 193c-168 0 -307 -130 -307 -319c0 -178 117 -325 308 -325c139 0 267 85 276 234h-327v76h415v-30
c0 -198 -138 -357 -366 -357c-237 0 -391 173 -391 397c0 226 169 402 394 402c194 0 310 -120 349 -237z" />
    <glyph glyph-name="Gcaron" unicode="&#x1e6;" horiz-adv-x="859" 
d="M411 856l-134 173h83l90 -118h2l91 118h83l-138 -173h-77zM797 554l-74 -34c-33 94 -113 193 -277 193c-168 0 -307 -130 -307 -319c0 -178 117 -325 308 -325c139 0 267 85 276 234h-327v76h415v-30c0 -198 -138 -357 -366 -357c-237 0 -391 173 -391 397
c0 226 169 402 394 402c194 0 310 -120 349 -237z" />
    <glyph glyph-name="Gcircumflex" unicode="&#x11c;" horiz-adv-x="859" 
d="M543 854l-91 118h-2l-90 -118h-83l134 172h77l138 -172h-83zM797 554l-74 -34c-33 94 -113 193 -277 193c-168 0 -307 -130 -307 -319c0 -178 117 -325 308 -325c139 0 267 85 276 234h-327v76h415v-30c0 -198 -138 -357 -366 -357c-237 0 -391 173 -391 397
c0 226 169 402 394 402c194 0 310 -120 349 -237z" />
    <glyph glyph-name="Gcommaaccent" unicode="&#x122;" horiz-adv-x="857" 
d="M797 554l-74 -34c-33 94 -113 193 -277 193c-168 0 -307 -130 -307 -319c0 -178 117 -325 308 -325c139 0 267 85 276 234h-327v76h415v-30c0 -198 -138 -357 -366 -357c-237 0 -391 173 -391 397c0 226 169 402 394 402c194 0 310 -120 349 -237zM404 -303l-33 29
c36 27 65 58 70 95c-5 -2 -10 -3 -18 -3c-30 0 -53 22 -53 54c0 33 26 57 57 57c37 0 64 -31 64 -79v-4c0 -56 -30 -110 -87 -149z" />
    <glyph glyph-name="Gdotaccent" unicode="&#x120;" horiz-adv-x="857" 
d="M457 857c-31 0 -61 28 -61 62s30 61 61 61c30 0 60 -27 60 -61s-30 -62 -60 -62zM797 554l-74 -34c-33 94 -113 193 -277 193c-168 0 -307 -130 -307 -319c0 -178 117 -325 308 -325c139 0 267 85 276 234h-327v76h415v-30c0 -198 -138 -357 -366 -357
c-237 0 -391 173 -391 397c0 226 169 402 394 402c194 0 310 -120 349 -237z" />
    <glyph glyph-name="Hbar" unicode="&#x126;" horiz-adv-x="836" 
d="M113 581h-88v73h88v129h82v-129h446v129h82v-129h88v-73h-88v-581h-82v358h-446v-358h-82v581zM641 437v144h-446v-144h446z" />
    <glyph glyph-name="IJ" unicode="&#x132;" horiz-adv-x="877" 
d="M191 0h-82v783h82v-783zM549 69c90 0 145 58 145 152v562h82v-559c0 -142 -86 -232 -225 -232c-98 0 -178 56 -221 169l68 38c33 -85 83 -130 151 -130z" />
    <glyph glyph-name="Ibreve" unicode="&#x12c;" horiz-adv-x="300" 
d="M150 855c-80 0 -158 56 -162 168h61c4 -64 42 -106 101 -106c58 0 97 40 102 106h60c-2 -104 -75 -168 -162 -168zM191 783h-82v-783h82v783z" />
    <glyph glyph-name="Idotaccent" unicode="&#x130;" horiz-adv-x="300" 
d="M150 857c-31 0 -60 28 -60 62s29 61 60 61s60 -27 60 -61s-29 -62 -60 -62zM109 783h82v-783h-82v783z" />
    <glyph glyph-name="Imacron" unicode="&#x12a;" horiz-adv-x="300" 
d="M299 955v-71h-298v71h298zM191 783h-82v-783h82v783z" />
    <glyph glyph-name="Iogonek" unicode="&#x12e;" horiz-adv-x="300" 
d="M209 -181v-60c-9 -2 -19 -3 -29 -3c-68 0 -133 37 -133 111c0 54 48 102 87 133h-25v783h82v-783c-30 -26 -68 -73 -68 -115c0 -53 41 -67 86 -66z" />
    <glyph glyph-name="Itilde" unicode="&#x128;" horiz-adv-x="300" 
d="M180 944c19 -19 36 -25 50 -25c26 0 41 20 43 81h62c2 -93 -33 -147 -105 -147c-48 0 -75 23 -101 49c-22 23 -39 33 -58 33c-26 0 -41 -19 -43 -80h-62c-1 92 33 146 105 146c46 0 76 -21 109 -57zM191 783h-82v-783h82v783z" />
    <glyph glyph-name="Kcommaaccent" unicode="&#x136;" horiz-adv-x="677" 
d="M680 0h-116l-367 377h-6v-377h-82v783h82v-346h5l351 346h115l-384 -375zM323 -303l-33 29c36 27 65 58 70 95c-5 -2 -10 -3 -18 -3c-30 0 -53 22 -53 54c0 33 26 57 57 57c37 0 64 -31 64 -79v-4c0 -56 -30 -110 -87 -149z" />
    <glyph glyph-name="Lacute" unicode="&#x139;" horiz-adv-x="583" 
d="M115 855l109 172h94l-128 -172h-75zM191 783h-82v-783h453v77h-371v706z" />
    <glyph glyph-name="Lcaron" unicode="&#x13d;" horiz-adv-x="604" 
d="M467 581l14 224h86l-34 -224h-66zM191 783h-82v-783h453v77h-371v706z" />
    <glyph glyph-name="Lcommaaccent" unicode="&#x13b;" horiz-adv-x="583" 
d="M191 77h371v-77h-453v783h82v-706zM299 -303l-33 29c36 27 65 58 70 95c-5 -2 -10 -3 -18 -3c-30 0 -53 22 -53 54c0 33 26 57 57 57c37 0 64 -31 64 -79v-4c0 -56 -30 -110 -87 -149z" />
    <glyph glyph-name="Ldot" unicode="&#x13f;" horiz-adv-x="599" 
d="M191 77h371v-77h-453v783h82v-706zM444 378c0 33 26 59 59 59s59 -26 59 -59c0 -32 -26 -58 -59 -58s-59 26 -59 58z" />
    <glyph glyph-name="Lslash" unicode="&#x141;" horiz-adv-x="600" 
d="M428 567v-79l-221 -113v-298h371v-77h-453v333l-104 -54v80l104 53v371h82v-329z" />
    <glyph glyph-name="Nacute" unicode="&#x143;" horiz-adv-x="856" 
d="M327 855l108 172h95l-129 -172h-74zM747 0h-88l-469 667v-667h-81v783h95l462 -654v654h81v-783z" />
    <glyph glyph-name="Ncaron" unicode="&#x147;" horiz-adv-x="856" 
d="M387 854l-133 173h83l89 -118h3l91 118h83l-138 -173h-78zM747 0h-88l-469 667v-667h-81v783h95l462 -654v654h81v-783z" />
    <glyph glyph-name="Ncommaaccent" unicode="&#x145;" horiz-adv-x="856" 
d="M747 0h-88l-469 667v-667h-81v783h95l462 -654v654h81v-783zM401 -303l-33 29c36 27 65 58 70 95c-5 -2 -10 -3 -18 -3c-30 0 -53 22 -53 54c0 33 26 57 57 57c37 0 64 -31 64 -79v-4c0 -56 -30 -110 -87 -149z" />
    <glyph glyph-name="Eng" unicode="&#x14a;" horiz-adv-x="856" 
d="M747 783v-874c0 -99 -52 -176 -172 -176c-14 0 -33 3 -44 7v66c12 -3 23 -4 33 -4c67 0 102 40 102 109v88l-476 669v-668h-81v783h95l462 -650v650h81z" />
    <glyph glyph-name="Ohungarumlaut" unicode="&#x150;" horiz-adv-x="895" 
d="M325 855l108 172h94l-128 -172h-74zM497 855l108 172h95l-129 -172h-74zM841 394c0 -225 -168 -402 -395 -402c-224 0 -392 174 -392 397c0 225 168 402 395 402c224 0 392 -174 392 -397zM756 389c0 176 -128 325 -310 325c-180 0 -307 -145 -307 -320
c0 -177 128 -325 310 -325c180 0 307 145 307 320z" />
    <glyph glyph-name="Omacron" unicode="&#x14c;" horiz-adv-x="896" 
d="M616 955v-71h-337v71h337zM842 394c0 223 -168 397 -393 397c-226 0 -395 -177 -395 -402c0 -223 168 -397 393 -397c227 0 395 177 395 402zM756 389c0 -175 -127 -320 -307 -320c-182 0 -310 148 -310 325c0 175 127 320 308 320c182 0 309 -149 309 -325z" />
    <glyph glyph-name="Oslashacute" unicode="&#x1fe;" horiz-adv-x="900" 
d="M407 855l109 172h94l-128 -172h-75zM847 772l-102 -111c62 -70 99 -163 99 -267c0 -225 -168 -402 -395 -402c-92 0 -175 29 -240 79l-103 -111l-50 49l101 111c-63 70 -100 164 -100 269c0 225 168 402 395 402c92 0 175 -30 242 -82l102 112zM142 394
c0 -81 26 -155 71 -212l427 466c-52 42 -117 66 -191 66c-180 0 -307 -145 -307 -320zM759 389c0 79 -26 153 -71 210l-425 -467c50 -39 114 -63 189 -63c180 0 307 145 307 320z" />
    <glyph glyph-name="Racute" unicode="&#x154;" horiz-adv-x="720" 
d="M356 855h-74l108 172h95zM109 783h271c191 0 275 -106 275 -228c0 -134 -98 -209 -215 -224l242 -331h-100l-231 317h-160v-317h-82v783zM191 392h182c142 0 199 81 199 160c0 77 -48 154 -197 154h-184v-314z" />
    <glyph glyph-name="Rcaron" unicode="&#x158;" horiz-adv-x="720" 
d="M343 856l-134 173h83l90 -118h2l91 118h83l-138 -173h-77zM109 783h271c191 0 275 -106 275 -228c0 -134 -98 -209 -215 -224l242 -331h-100l-231 317h-160v-317h-82v783zM191 392h182c142 0 199 81 199 160c0 77 -48 154 -197 154h-184v-314z" />
    <glyph glyph-name="Rcommaaccent" unicode="&#x156;" horiz-adv-x="720" 
d="M109 783h271c191 0 275 -106 275 -228c0 -134 -98 -209 -215 -224l242 -331h-100l-231 317h-160v-317h-82v783zM191 392h182c142 0 199 81 199 160c0 77 -48 154 -197 154h-184v-314zM304 -303l-33 29c36 27 65 58 70 95c-5 -2 -10 -3 -18 -3c-30 0 -53 22 -53 54
c0 33 26 57 57 57c37 0 64 -31 64 -79v-4c0 -56 -30 -110 -87 -149z" />
    <glyph glyph-name="Sacute" unicode="&#x15a;" horiz-adv-x="628" 
d="M210 855l109 172h94l-128 -172h-75zM320 -8c-137 0 -226 72 -271 191l71 37c37 -91 93 -151 200 -151c92 0 168 54 168 136s-66 128 -182 156c-161 39 -234 108 -234 217c0 134 116 214 246 214s212 -70 247 -163l-70 -39c-26 65 -75 125 -179 125
c-84 0 -162 -51 -162 -133c0 -71 49 -110 167 -140c84 -21 154 -52 197 -99c33 -36 54 -80 54 -132c0 -115 -95 -219 -252 -219z" />
    <glyph glyph-name="Scedilla" unicode="&#x15e;" horiz-adv-x="628" 
d="M572 211c0 -105 -80 -202 -214 -217c22 -25 36 -60 36 -91c0 -93 -74 -147 -165 -147c-25 0 -51 4 -75 12v61c22 -6 46 -9 69 -9c65 0 101 35 101 95c0 31 -15 59 -32 78c-121 9 -201 79 -243 190l71 37c37 -91 93 -151 200 -151c92 0 168 54 168 136s-66 128 -182 156
c-161 39 -234 108 -234 217c0 134 116 214 246 214s212 -70 247 -163l-70 -39c-26 65 -75 125 -179 125c-84 0 -162 -51 -162 -133c0 -71 49 -110 167 -140c84 -21 154 -52 197 -99c33 -36 54 -80 54 -132z" />
    <glyph glyph-name="Scircumflex" unicode="&#x15c;" horiz-adv-x="628" 
d="M404 854l-91 118h-3l-89 -118h-83l133 172h78l138 -172h-83zM320 -8c-137 0 -226 72 -271 191l71 37c37 -91 93 -151 200 -151c92 0 168 54 168 136s-66 128 -182 156c-161 39 -234 108 -234 217c0 134 116 214 246 214s212 -70 247 -163l-70 -39
c-26 65 -75 125 -179 125c-84 0 -162 -51 -162 -133c0 -71 49 -110 167 -140c84 -21 154 -52 197 -99c33 -36 54 -80 54 -132c0 -115 -95 -219 -252 -219z" />
    <glyph glyph-name="Scommaaccent" unicode="&#x218;" horiz-adv-x="628" 
d="M320 -8c-137 0 -226 72 -271 191l71 37c37 -91 93 -151 200 -151c92 0 168 54 168 136s-66 128 -182 156c-161 39 -234 108 -234 217c0 134 116 214 246 214s212 -70 247 -163l-70 -39c-26 65 -75 125 -179 125c-84 0 -162 -51 -162 -133c0 -71 49 -110 167 -140
c84 -21 154 -52 197 -99c33 -36 54 -80 54 -132c0 -115 -95 -219 -252 -219zM294 -303l-33 29c36 27 65 58 70 95c-5 -2 -10 -3 -18 -3c-30 0 -53 22 -53 54c0 33 26 57 57 57c37 0 64 -31 64 -79v-4c0 -56 -30 -110 -87 -149z" />
    <glyph glyph-name="Tbar" unicode="&#x166;" horiz-adv-x="664" 
d="M291 706h-262v77h605v-77h-261v-270h149v-76h-149v-360h-82v360h-148v76h148v270z" />
    <glyph glyph-name="Tcaron" unicode="&#x164;" horiz-adv-x="650" 
d="M285 857l-134 172h83l90 -118h2l91 118h83l-138 -172h-77zM629 783h-608v-77h264v-706h83v706h261v77z" />
    <glyph glyph-name="Uhungarumlaut" unicode="&#x170;" horiz-adv-x="786" 
d="M270 855l108 172h95l-129 -172h-74zM442 855l108 172h95l-128 -172h-75zM605 783v-483c0 -146 -74 -231 -209 -231c-121 0 -215 65 -215 236v478h-82v-482c0 -185 104 -309 294 -309c186 0 294 116 294 314v477h-82z" />
    <glyph glyph-name="Umacron" unicode="&#x16a;" horiz-adv-x="787" 
d="M562 955v-71h-337v71h337zM606 783v-483c0 -146 -74 -231 -209 -231c-121 0 -216 65 -216 236v478h-82v-482c0 -185 104 -309 295 -309c187 0 294 116 294 314v477h-82z" />
    <glyph glyph-name="Uogonek" unicode="&#x172;" horiz-adv-x="786" 
d="M490 -181v-60c-10 -2 -19 -3 -29 -3c-68 0 -133 37 -133 111c0 50 41 94 77 125h-12c-190 0 -294 124 -294 309v482h82v-478c0 -171 94 -236 215 -236c135 0 209 85 209 231v483h82v-477c0 -168 -78 -277 -215 -306c-31 -26 -69 -73 -69 -115c0 -53 42 -67 87 -66z" />
    <glyph glyph-name="Uring" unicode="&#x16e;" horiz-adv-x="787" 
d="M394 834c-77 0 -140 60 -140 134c0 73 63 133 140 133c78 0 140 -60 140 -133c0 -74 -62 -134 -140 -134zM394 1045c-45 0 -81 -33 -81 -77s36 -79 81 -79c44 0 80 35 80 79c0 41 -38 77 -80 77zM606 783v-483c0 -146 -74 -231 -209 -231c-121 0 -216 65 -216 236v478
h-82v-482c0 -185 104 -309 295 -309c187 0 294 116 294 314v477h-82z" />
    <glyph glyph-name="Utilde" unicode="&#x168;" horiz-adv-x="786" 
d="M422 944c19 -19 36 -25 50 -25c26 0 41 20 43 81h62c2 -93 -33 -147 -105 -147c-48 0 -75 23 -101 49c-22 23 -39 33 -58 33c-26 0 -41 -19 -43 -80h-62c-1 92 33 146 105 146c46 0 76 -21 109 -57zM605 783v-483c0 -146 -74 -231 -209 -231c-121 0 -215 65 -215 236v478
h-82v-482c0 -185 104 -309 294 -309c187 0 294 116 294 314v477h-82z" />
    <glyph glyph-name="Wacute" unicode="&#x1e82;" horiz-adv-x="1147" 
d="M611 855h-74l108 172h95zM831 115l206 668h83l-246 -783h-92l-209 672l-210 -672h-90l-245 783h86l205 -664h2l207 664h93l208 -668h2z" />
    <glyph glyph-name="Wcircumflex" unicode="&#x174;" horiz-adv-x="1147" 
d="M666 854l-91 118h-3l-89 -118h-84l134 172h78l138 -172h-83zM831 115l206 668h83l-246 -783h-92l-209 672l-210 -672h-90l-245 783h86l205 -664h2l207 664h93l208 -668h2z" />
    <glyph glyph-name="Wdieresis" unicode="&#x1e84;" horiz-adv-x="1147" 
d="M479 858c-31 0 -60 27 -60 60s29 60 60 60c30 0 59 -27 59 -60s-29 -60 -59 -60zM669 858c-30 0 -59 27 -59 60s29 60 59 60s59 -27 59 -60s-29 -60 -59 -60zM831 115l206 668h83l-246 -783h-92l-209 672l-210 -672h-90l-245 783h86l205 -664h2l207 664h93l208 -668h2z
" />
    <glyph glyph-name="Wgrave" unicode="&#x1e80;" horiz-adv-x="1147" 
d="M503 1027l109 -172h-75l-128 172h94zM831 115l206 668h83l-246 -783h-92l-209 672l-210 -672h-90l-245 783h86l205 -664h2l207 664h93l208 -668h2z" />
    <glyph glyph-name="Ycircumflex" unicode="&#x176;" horiz-adv-x="741" 
d="M462 854l-90 118h-3l-89 -118h-84l134 172h78l137 -172h-83zM372 409l250 374h94l-304 -452v-331h-83v330l-303 453h99z" />
    <glyph glyph-name="Ygrave" unicode="&#x1ef2;" horiz-adv-x="741" 
d="M310 1027l108 -172h-74l-129 172h95zM372 409l250 374h94l-304 -452v-331h-83v330l-303 453h99z" />
    <glyph glyph-name="Zacute" unicode="&#x179;" horiz-adv-x="645" 
d="M218 855l108 172h95l-129 -172h-74zM132 76h471v-76h-567v76l468 632h-452v75h549v-75z" />
    <glyph glyph-name="Zcaron" unicode="&#x17d;" horiz-adv-x="644" 
d="M278 856l-133 173h83l89 -118h2l91 118h83l-138 -173h-77zM132 76h470v-76h-566v76l467 632h-451v75h548v-75z" />
    <glyph glyph-name="Zdotaccent" unicode="&#x17b;" horiz-adv-x="645" 
d="M319 857c-30 0 -60 28 -60 62s30 61 60 61c31 0 60 -27 60 -61s-29 -62 -60 -62zM603 76h-471l469 632v75h-549v-75h452l-468 -632v-76h567v76z" />
    <glyph glyph-name="uni0162" unicode="&#x162;" horiz-adv-x="650" 
d="M408 -97c0 -93 -74 -147 -165 -147c-24 0 -51 4 -76 12v61c23 -6 46 -9 69 -9c66 0 102 35 102 95c0 36 -19 66 -40 85h-13v706h-264v77h608v-77h-261v-706c24 -25 40 -63 40 -97z" />
    <glyph glyph-name="uni01B5" unicode="&#x1b5;" horiz-adv-x="649" 
d="M507 708h-452v75h547v-75l-203 -273h201v-74h-255l-212 -285h471v-76h-565v76l211 285h-192v74h247z" />
    <glyph glyph-name="uni01CD" unicode="&#x1cd;" horiz-adv-x="775" 
d="M346 856l-133 172h83l89 -118h3l91 118h83l-138 -172h-78zM600 200h-427l-86 -200h-84l338 783h93l338 -783h-87zM568 275l-182 423l-182 -423h364z" />
    <glyph glyph-name="uni01CF" unicode="&#x1cf;" horiz-adv-x="300" 
d="M109 856l-133 173h83l89 -118h2l91 118h83l-137 -173h-78zM191 783h-82v-783h82v783z" />
    <glyph glyph-name="uni01D1" unicode="&#x1d1;" horiz-adv-x="895" 
d="M484 854h-78l-133 172h83l89 -118h3l91 118h83zM841 394c0 -225 -168 -402 -395 -402c-224 0 -392 174 -392 397c0 225 168 402 395 402c224 0 392 -174 392 -397zM756 389c0 176 -128 325 -310 325c-180 0 -307 -145 -307 -320c0 -177 128 -325 310 -325
c180 0 307 145 307 320z" />
    <glyph glyph-name="uni01D3" unicode="&#x1d3;" horiz-adv-x="786" 
d="M430 854h-78l-133 172h83l89 -118h3l90 118h83zM687 783v-477c0 -198 -107 -314 -294 -314c-190 0 -294 124 -294 309v482h82v-478c0 -171 94 -236 215 -236c135 0 209 85 209 231v483h82z" />
    <glyph glyph-name="uni01D5" unicode="&#x1d5;" horiz-adv-x="786" 
d="M562 1065v-71h-337v71h337zM293 813c-30 0 -59 27 -59 60c0 34 29 60 59 60s59 -26 59 -60c0 -33 -29 -60 -59 -60zM493 813c-30 0 -59 27 -59 60c0 34 29 60 59 60s59 -26 59 -60c0 -33 -29 -60 -59 -60zM687 783v-477c0 -198 -108 -314 -294 -314
c-190 0 -294 124 -294 309v482h82v-478c0 -171 94 -236 215 -236c135 0 209 85 209 231v483h82z" />
    <glyph glyph-name="uni01D7" unicode="&#x1d7;" horiz-adv-x="786" 
d="M357 960l101 162h93l-121 -162h-73zM293 813c-30 0 -59 27 -59 60c0 34 29 60 59 60s59 -26 59 -60c0 -33 -29 -60 -59 -60zM493 813c-30 0 -59 27 -59 60c0 34 29 60 59 60s59 -26 59 -60c0 -33 -29 -60 -59 -60zM687 783v-477c0 -198 -108 -314 -294 -314
c-190 0 -294 124 -294 309v482h82v-478c0 -171 94 -236 215 -236c135 0 209 85 209 231v483h82z" />
    <glyph glyph-name="uni01D9" unicode="&#x1d9;" horiz-adv-x="786" 
d="M432 961h-77l-134 161h75l98 -107h2l100 107h74zM293 813c-30 0 -59 27 -59 60c0 34 29 60 59 60s59 -26 59 -60c0 -33 -29 -60 -59 -60zM493 813c-30 0 -59 27 -59 60c0 34 29 60 59 60s59 -26 59 -60c0 -33 -29 -60 -59 -60zM687 783v-477c0 -198 -108 -314 -294 -314
c-190 0 -294 124 -294 309v482h82v-478c0 -171 94 -236 215 -236c135 0 209 85 209 231v483h82z" />
    <glyph glyph-name="uni01DB" unicode="&#x1db;" horiz-adv-x="786" 
d="M331 1122l101 -162h-73l-121 162h93zM293 813c30 0 59 27 59 60c0 34 -29 60 -59 60s-59 -26 -59 -60c0 -33 29 -60 59 -60zM493 813c30 0 59 27 59 60c0 34 -29 60 -59 60s-59 -26 -59 -60c0 -33 29 -60 59 -60zM687 783v-477c0 -198 -108 -314 -294 -314
c-190 0 -294 124 -294 309v482h82v-478c0 -171 94 -236 215 -236c135 0 209 85 209 231v483h82z" />
    <glyph glyph-name="uni01E8" unicode="&#x1e8;" horiz-adv-x="678" 
d="M354 856l-134 173h83l90 -118h2l91 118h83l-138 -173h-77zM681 0h-117l-367 377h-6v-377h-82v783h82v-346h6l351 346h114l-384 -375z" />
    <glyph glyph-name="uni01F4" unicode="&#x1f4;" horiz-adv-x="859" 
d="M410 855l108 172h95l-129 -172h-74zM797 554l-74 -34c-33 94 -113 193 -277 193c-168 0 -307 -130 -307 -319c0 -178 117 -325 308 -325c139 0 267 85 276 234h-327v76h415v-30c0 -198 -138 -357 -366 -357c-237 0 -391 173 -391 397c0 226 169 402 394 402
c194 0 310 -120 349 -237z" />
    <glyph glyph-name="uni021A" unicode="&#x21a;" horiz-adv-x="648" 
d="M366 0h-83v706h-262v77h606v-77h-261v-706zM298 -303l-33 29c36 27 65 58 70 95c-5 -2 -10 -3 -18 -3c-30 0 -53 22 -53 54c0 33 26 57 57 57c37 0 64 -31 64 -79v-4c0 -56 -30 -110 -87 -149z" />
    <glyph glyph-name="uni1E20" unicode="&#x1e20;" horiz-adv-x="859" 
d="M620 955v-71h-337v71h337zM797 554l-74 -34c-33 94 -113 193 -277 193c-168 0 -307 -130 -307 -319c0 -178 117 -325 308 -325c139 0 267 85 276 234h-327v76h415v-30c0 -198 -138 -357 -366 -357c-237 0 -391 173 -391 397c0 226 169 402 394 402
c194 0 310 -120 349 -237z" />
    <glyph glyph-name="uni1E30" unicode="&#x1e30;" horiz-adv-x="679" 
d="M318 855l108 172h95l-128 -172h-75zM682 0h-117l-367 377h-6v-377h-83v783h83v-346h6l351 346h114l-384 -375z" />
    <glyph glyph-name="uni1E60" unicode="&#x1e60;" horiz-adv-x="628" 
d="M312 857c-31 0 -60 28 -60 62s29 61 60 61s60 -27 60 -61s-29 -62 -60 -62zM320 -8c-137 0 -226 72 -271 191l71 37c37 -91 93 -151 200 -151c92 0 168 54 168 136s-66 128 -182 156c-161 39 -234 108 -234 217c0 134 116 214 246 214s212 -70 247 -163l-70 -39
c-26 65 -75 125 -179 125c-84 0 -162 -51 -162 -133c0 -71 49 -110 167 -140c84 -21 154 -52 197 -99c33 -36 54 -80 54 -132c0 -115 -95 -219 -252 -219z" />
    <glyph glyph-name="uni1E90" unicode="&#x1e90;" horiz-adv-x="645" 
d="M411 855l-91 119h-2l-89 -119h-84l134 173h77l138 -173h-83zM603 76h-471l469 632v75h-549v-75h452l-468 -632v-76h567v76z" />
    <glyph glyph-name="uni1EBC" unicode="&#x1ebc;" horiz-adv-x="664" 
d="M386 944c19 -19 36 -25 50 -25c26 0 41 20 43 81h62c2 -93 -33 -147 -105 -147c-48 0 -75 23 -101 49c-22 23 -39 33 -58 33c-26 0 -41 -19 -43 -80h-62c-1 92 33 146 105 146c46 0 76 -21 109 -57zM599 783h-490v-783h494v76h-412v284h373v76h-373v271h408v76z" />
    <glyph glyph-name="Aring.alt" horiz-adv-x="775" 
d="M387 834c-76 0 -139 60 -139 134c0 73 63 133 139 133c78 0 140 -60 140 -133c0 -74 -62 -134 -140 -134zM387 1045c-45 0 -80 -33 -80 -77s35 -79 80 -79s81 35 81 79c0 41 -38 77 -81 77zM600 200h-427l-86 -200h-84l338 783h93l338 -783h-87zM568 275l-182 423
l-182 -423h364z" />
    <glyph glyph-name="OE.alt" horiz-adv-x="1153" 
d="M1092 0h-625c-230 0 -413 157 -413 393c0 217 169 390 419 390h615v-76h-407v-271h373v-76h-373v-284h411v-76zM599 706h-127c-203 0 -333 -132 -333 -312c0 -183 136 -317 334 -317h126v629z" />
    <glyph glyph-name="Q.alt" horiz-adv-x="894" 
d="M54 393c0 222 166 398 391 398c222 0 388 -172 388 -394c0 -152 -73 -261 -185 -324v-1l218 1v-73h-422c-224 0 -390 172 -390 393zM442 714c-177 0 -303 -143 -303 -317s126 -321 307 -321c64 0 121 17 168 49c83 56 135 156 135 267c0 176 -126 322 -307 322z" />
    <glyph glyph-name="O.slash" horiz-adv-x="895" 
d="M449 791c224 0 392 -174 392 -397c0 -225 -168 -401 -395 -401c-224 0 -392 173 -392 396c0 225 168 402 395 402zM139 394c0 -82 28 -159 76 -216l431 462c-53 46 -121 73 -200 73c-180 0 -307 -144 -307 -319zM449 70c180 0 307 144 307 319c0 71 -21 138 -58 193
l-426 -457c49 -35 109 -55 177 -55z" />
    <glyph glyph-name="abreve" unicode="&#x103;" horiz-adv-x="568" 
d="M272 623c-81 0 -159 56 -163 169h61c4 -64 43 -106 102 -106c58 0 97 39 102 106h60c-2 -105 -75 -169 -162 -169zM410 308v36c0 86 -47 130 -136 130c-82 0 -127 -49 -153 -105l-64 36c37 85 111 138 219 138c113 0 169 -51 195 -110c12 -29 16 -71 16 -88v-345h-76v94
h-1c-42 -66 -100 -103 -180 -103c-108 0 -179 67 -179 157v6c0 116 116 154 211 154h148zM410 244h-149c-57 0 -132 -18 -132 -90c0 -60 51 -94 115 -94c95 0 166 67 166 165v19z" />
    <glyph glyph-name="amacron" unicode="&#x101;" horiz-adv-x="568" 
d="M440 710v-70h-337v70h337zM410 308v36c0 86 -47 130 -136 130c-82 0 -127 -49 -153 -105l-64 36c37 85 111 138 219 138c113 0 169 -51 195 -110c12 -29 16 -71 16 -88v-345h-76v94h-1c-42 -66 -100 -103 -180 -103c-108 0 -179 67 -179 157v6c0 116 116 154 211 154h148
zM410 244h-149c-57 0 -132 -18 -132 -90c0 -60 51 -94 115 -94c95 0 166 67 166 165v19z" />
    <glyph glyph-name="aogonek" unicode="&#x105;" horiz-adv-x="568" 
d="M418 -115c0 -53 42 -67 87 -66v-60c-10 -2 -19 -3 -29 -3c-68 0 -133 37 -133 111c0 54 48 102 87 133h-19v94h-1c-42 -66 -100 -103 -180 -103c-108 0 -179 67 -179 157v6c0 116 116 154 211 154h148v36c0 86 -47 130 -136 130c-82 0 -127 -49 -153 -105l-64 36
c37 85 111 138 219 138c113 0 169 -51 195 -110c12 -29 16 -71 16 -88v-345c-31 -26 -69 -73 -69 -115zM410 244h-149c-57 0 -132 -18 -132 -90c0 -60 51 -94 115 -94c95 0 166 67 166 165v19z" />
    <glyph glyph-name="aringacute" unicode="&#x1fb;" horiz-adv-x="568" 
d="M471 433c12 -29 16 -71 16 -88v-345h-76v94h-1c-42 -66 -100 -103 -180 -103c-108 0 -179 67 -179 157v6c0 116 116 154 211 154h148v36c0 86 -47 130 -136 130c-82 0 -127 -49 -153 -105l-64 36c25 56 65 98 120 120c-25 24 -40 57 -40 94c0 72 63 132 139 132
c11 0 22 -1 32 -4l77 121h94l-111 -149c29 -25 48 -61 48 -100c0 -37 -15 -69 -40 -93c49 -20 78 -55 95 -93zM276 540c45 0 80 35 80 79c0 41 -38 77 -80 77c-45 0 -80 -33 -80 -77s35 -79 80 -79zM410 244h-149c-57 0 -132 -18 -132 -90c0 -60 51 -94 115 -94
c95 0 166 67 166 165v19z" />
    <glyph glyph-name="aeacute" unicode="&#x1fd;" horiz-adv-x="967" 
d="M434 625l108 172h95l-129 -172h-74zM412 308v36c0 86 -48 130 -137 130c-82 0 -127 -49 -153 -105l-64 36c37 85 111 138 219 138c100 0 165 -46 189 -111c42 67 119 111 204 111c165 0 251 -118 251 -274c0 -9 -1 -18 -1 -26h-433c3 -101 87 -183 191 -183
c78 0 139 46 169 107l58 -38c-46 -89 -132 -138 -226 -138c-98 0 -179 50 -226 125c-48 -83 -123 -125 -216 -125h-3c-110 0 -183 67 -183 157v6c0 116 116 154 211 154h150zM487 309h355c-8 97 -71 166 -173 166c-93 0 -172 -79 -182 -166zM412 244h-151
c-57 0 -132 -18 -132 -90c0 -60 52 -94 116 -94c95 0 167 67 167 165v19z" />
    <glyph glyph-name="cacute" unicode="&#x107;" horiz-adv-x="600" 
d="M285 625l109 172h95l-129 -172h-75zM129 270c0 -111 76 -210 193 -210c96 0 146 61 169 120l68 -30c-30 -84 -109 -159 -238 -159c-152 0 -272 116 -272 276c0 156 122 276 273 276c126 0 207 -73 235 -156l-68 -30c-21 58 -72 117 -167 117c-114 0 -193 -93 -193 -204z
" />
    <glyph glyph-name="ccaron" unicode="&#x10d;" horiz-adv-x="600" 
d="M368 625h-77l-135 172h84l90 -118h2l91 118h83zM129 270c0 -111 76 -210 193 -210c96 0 146 61 169 120l68 -30c-30 -84 -109 -159 -238 -159c-152 0 -272 116 -272 276c0 156 122 276 273 276c126 0 207 -73 235 -156l-68 -30c-21 58 -72 117 -167 117
c-114 0 -193 -93 -193 -204z" />
    <glyph glyph-name="ccircumflex" unicode="&#x109;" horiz-adv-x="600" 
d="M421 625l-90 118h-3l-90 -118h-83l134 172h78l137 -172h-83zM129 270c0 -111 76 -210 193 -210c96 0 146 61 169 120l68 -30c-30 -84 -109 -159 -238 -159c-152 0 -272 116 -272 276c0 156 122 276 273 276c126 0 207 -73 235 -156l-68 -30c-21 58 -72 117 -167 117
c-114 0 -193 -93 -193 -204z" />
    <glyph glyph-name="cdotaccent" unicode="&#x10b;" horiz-adv-x="600" 
d="M328 624c-31 0 -60 27 -60 61s29 61 60 61s60 -27 60 -61s-29 -61 -60 -61zM129 270c0 -111 76 -210 193 -210c96 0 146 61 169 120l68 -30c-30 -84 -109 -159 -238 -159c-152 0 -272 116 -272 276c0 156 122 276 273 276c126 0 207 -73 235 -156l-68 -30
c-21 58 -72 117 -167 117c-114 0 -193 -93 -193 -204z" />
    <glyph glyph-name="dcaron" unicode="&#x10f;" horiz-adv-x="692" 
d="M658 591l14 224h86l-34 -224h-66zM50 268c0 -146 97 -276 250 -276c103 0 167 54 208 122v-114h76v814h-77v-392c-43 63 -104 121 -207 121c-151 0 -250 -136 -250 -275zM316 61c-117 0 -187 95 -187 205c0 115 70 208 187 208c111 0 192 -99 192 -205
c0 -110 -79 -208 -192 -208z" />
    <glyph glyph-name="dcroat" unicode="&#x111;" horiz-adv-x="672" 
d="M584 0h-76v114c-41 -68 -106 -122 -209 -122c-153 0 -249 130 -249 276c0 139 98 275 250 275c103 0 164 -58 206 -121v212h-194v69h194v111h78v-111h67v-69h-67v-634zM316 61c112 0 192 98 192 208c0 106 -81 205 -192 205c-118 0 -187 -93 -187 -208
c0 -110 70 -205 187 -205z" />
    <glyph glyph-name="ecaron" unicode="&#x11b;" horiz-adv-x="607" 
d="M348 625h-77l-135 172h84l90 -118h2l91 118h83zM560 243h-432c6 -104 87 -183 191 -183c78 0 139 46 169 107l58 -38c-46 -89 -132 -138 -226 -138c-155 0 -271 123 -271 277c0 145 110 275 260 275c165 0 252 -118 252 -274c0 -9 0 -18 -1 -26zM129 309h353
c-10 97 -71 166 -173 166c-93 0 -167 -77 -180 -166z" />
    <glyph glyph-name="edotaccent" unicode="&#x117;" horiz-adv-x="607" 
d="M313 624c-30 0 -60 27 -60 61s30 61 60 61c31 0 61 -27 61 -61s-30 -61 -61 -61zM560 243h-432c6 -104 87 -183 191 -183c78 0 139 46 169 107l58 -38c-46 -89 -132 -138 -226 -138c-155 0 -271 123 -271 277c0 145 110 275 260 275c165 0 252 -118 252 -274
c0 -9 0 -18 -1 -26zM129 309h353c-10 97 -71 166 -173 166c-93 0 -167 -77 -180 -166z" />
    <glyph glyph-name="emacron" unicode="&#x113;" horiz-adv-x="607" 
d="M477 710v-70h-338v70h338zM560 243h-432c6 -104 87 -183 191 -183c78 0 139 46 169 107l58 -38c-46 -89 -132 -138 -226 -138c-155 0 -271 123 -271 277c0 145 110 275 260 275c165 0 252 -118 252 -274c0 -9 0 -18 -1 -26zM129 309h353c-10 97 -71 166 -173 166
c-93 0 -167 -77 -180 -166z" />
    <glyph glyph-name="eogonek" unicode="&#x119;" horiz-adv-x="607" 
d="M322 -115c0 -53 42 -67 87 -66v-60c-9 -2 -19 -3 -29 -3c-68 0 -132 37 -132 111c0 50 39 93 75 124h-3c-155 0 -271 123 -271 277c0 145 110 275 260 275c165 0 252 -118 252 -274c0 -9 0 -18 -1 -26h-432c6 -104 87 -183 191 -183c78 0 139 46 169 107l58 -38
c-27 -52 -68 -91 -116 -114c-73 -35 -108 -88 -108 -130zM129 309h353c-10 97 -71 166 -173 166c-93 0 -167 -77 -180 -166z" />
    <glyph glyph-name="gbreve" unicode="&#x11f;" horiz-adv-x="673" 
d="M320 623c-81 0 -159 56 -163 169h61c4 -64 43 -106 102 -106c57 0 97 39 102 106h60c-3 -105 -75 -169 -162 -169zM507 -5v124c-41 -68 -106 -121 -207 -121c-153 0 -250 126 -250 272c0 139 99 273 250 273c104 0 166 -58 208 -121v112h77v-536
c0 -172 -106 -265 -268 -265c-138 0 -218 68 -264 172l63 37c28 -58 76 -141 200 -141c103 0 191 55 191 194zM316 66c113 0 192 96 192 205c0 105 -81 203 -192 203c-117 0 -186 -90 -186 -206c0 -110 69 -202 186 -202z" />
    <glyph glyph-name="gcaron" unicode="&#x1e7;" horiz-adv-x="673" 
d="M356 625h-77l-134 172h83l90 -118h2l91 118h83zM507 -5v124c-41 -68 -106 -121 -207 -121c-153 0 -250 126 -250 272c0 139 99 273 250 273c104 0 166 -58 208 -121v112h77v-536c0 -172 -106 -265 -268 -265c-138 0 -218 68 -264 172l63 37c28 -58 76 -141 200 -141
c103 0 191 55 191 194zM316 66c113 0 192 96 192 205c0 105 -81 203 -192 203c-117 0 -186 -90 -186 -206c0 -110 69 -202 186 -202z" />
    <glyph glyph-name="gcircumflex" unicode="&#x11d;" horiz-adv-x="673" 
d="M411 625l-91 118h-2l-90 -118h-83l134 172h77l138 -172h-83zM507 -5v124c-41 -68 -106 -121 -207 -121c-153 0 -250 126 -250 272c0 139 99 273 250 273c104 0 166 -58 208 -121v112h77v-536c0 -172 -106 -265 -268 -265c-138 0 -218 68 -264 172l63 37
c28 -58 76 -141 200 -141c103 0 191 55 191 194zM316 66c113 0 192 96 192 205c0 105 -81 203 -192 203c-117 0 -186 -90 -186 -206c0 -110 69 -202 186 -202z" />
    <glyph glyph-name="gcommaaccent" unicode="&#x123;" horiz-adv-x="673" 
d="M344 846l33 -29c-36 -28 -65 -58 -70 -95c5 1 11 3 18 3c30 0 53 -22 53 -54c0 -33 -26 -57 -57 -57c-37 0 -63 30 -63 79v3c0 56 30 110 86 150zM507 -5v124c-41 -68 -106 -121 -207 -121c-153 0 -250 126 -250 272c0 139 99 273 250 273c104 0 166 -58 208 -121v112h77
v-536c0 -172 -106 -265 -268 -265c-138 0 -218 68 -264 172l63 37c28 -58 76 -141 200 -141c103 0 191 55 191 194zM316 66c113 0 192 96 192 205c0 105 -81 203 -192 203c-117 0 -186 -90 -186 -206c0 -110 69 -202 186 -202z" />
    <glyph glyph-name="gdotaccent" unicode="&#x121;" horiz-adv-x="673" 
d="M318 624c-31 0 -60 27 -60 61s29 61 60 61s60 -27 60 -61s-29 -61 -60 -61zM507 -5v124c-41 -68 -106 -121 -207 -121c-153 0 -250 126 -250 272c0 139 99 273 250 273c104 0 166 -58 208 -121v112h77v-536c0 -172 -106 -265 -268 -265c-138 0 -218 68 -264 172l63 37
c28 -58 76 -141 200 -141c103 0 191 55 191 194zM316 66c113 0 192 96 192 205c0 105 -81 203 -192 203c-117 0 -186 -90 -186 -206c0 -110 69 -202 186 -202z" />
    <glyph glyph-name="hbar" unicode="&#x127;" horiz-adv-x="632" 
d="M473 0v311c0 95 -49 162 -148 162c-93 0 -159 -74 -159 -169v-304h-78v634h-67v69h67v111h78v-111h195v-69h-195v-196c42 70 104 106 183 106c131 0 202 -89 202 -214v-330h-78z" />
    <glyph glyph-name="dotlessi" unicode="&#x131;" horiz-adv-x="255" 
d="M88 534h79v-534h-79v534z" />
    <glyph glyph-name="ibreve" unicode="&#x12d;" horiz-adv-x="255" 
d="M128 623c-81 0 -159 56 -163 169h61c4 -64 43 -106 102 -106c58 0 97 39 102 106h60c-2 -105 -75 -169 -162 -169zM167 534h-79v-534h79v534z" />
    <glyph glyph-name="imacron" unicode="&#x12b;" horiz-adv-x="255" 
d="M275 710v-70h-295v70h295zM167 534h-79v-534h79v534z" />
    <glyph glyph-name="iogonek" unicode="&#x12f;" horiz-adv-x="255" 
d="M127 667c-32 0 -58 26 -58 58c0 33 26 59 58 59c33 0 59 -26 59 -59c0 -32 -26 -58 -59 -58zM98 -115c0 -53 42 -67 87 -66v-60c-10 -2 -19 -3 -29 -3c-69 0 -133 37 -133 111c0 54 48 102 86 133h-21v534h79v-534c-31 -26 -69 -73 -69 -115z" />
    <glyph glyph-name="itilde" unicode="&#x129;" horiz-adv-x="255" 
d="M157 715c19 -19 36 -25 50 -25c26 0 41 20 43 81h62c2 -93 -33 -147 -105 -147c-48 0 -75 23 -101 49c-22 23 -39 33 -58 33c-26 0 -41 -19 -43 -80h-62c-1 92 33 146 105 146c46 0 76 -21 109 -57zM167 534h-79v-534h79v534z" />
    <glyph glyph-name="uni0237" unicode="&#x237;" horiz-adv-x="263" 
d="M174 534v-648c0 -99 -51 -153 -152 -153c-16 0 -34 4 -49 8v65c12 -3 26 -4 38 -4c55 0 85 31 85 86v646h78z" />
    <glyph glyph-name="kcommaaccent" unicode="&#x137;" horiz-adv-x="545" 
d="M250 294l294 -294h-109l-266 267h-3v-267h-78v815h78v-498l254 217h111zM260 -303l-33 29c36 27 65 58 70 95c-5 -2 -10 -3 -18 -3c-30 0 -53 22 -53 54c0 33 26 57 57 57c37 0 64 -31 64 -79v-4c0 -56 -30 -110 -87 -149z" />
    <glyph glyph-name="lacute" unicode="&#x13a;" horiz-adv-x="255" 
d="M91 884l109 172h94l-128 -172h-75zM167 815h-79v-815h79v815z" />
    <glyph glyph-name="lcaron" unicode="&#x13e;" horiz-adv-x="274" 
d="M88 815h79v-815h-79v815zM254 815l-15 -224h66l34 224h-85z" />
    <glyph glyph-name="lcommaaccent" unicode="&#x13c;" horiz-adv-x="255" 
d="M88 815h79v-815h-79v815zM95 -303l-33 29c36 27 65 58 70 95c-5 -2 -10 -3 -18 -3c-30 0 -53 22 -53 54c0 33 26 57 57 57c37 0 64 -31 64 -79v-4c0 -56 -30 -110 -87 -149z" />
    <glyph glyph-name="ldot" unicode="&#x140;" horiz-adv-x="372" 
d="M88 815h79v-815h-79v815zM252 378c0 33 26 59 59 59c32 0 58 -26 58 -59c0 -32 -26 -58 -58 -58c-33 0 -59 26 -59 58z" />
    <glyph glyph-name="lslash" unicode="&#x142;" horiz-adv-x="356" 
d="M322 511v-82l-102 -75v-354h-79v295l-101 -76v82l101 75v439h79v-381z" />
    <glyph glyph-name="nacute" unicode="&#x144;" horiz-adv-x="634" 
d="M283 625l108 172h95l-129 -172h-74zM475 0v311c0 95 -49 162 -148 162c-93 0 -161 -74 -161 -169v-304h-78v534h77v-98c44 72 107 108 186 108c131 0 202 -89 202 -214v-330h-78z" />
    <glyph glyph-name="ncaron" unicode="&#x148;" horiz-adv-x="634" 
d="M358 625h-78l-134 172h84l89 -118h3l91 118h83zM475 0v311c0 95 -49 162 -148 162c-93 0 -161 -74 -161 -169v-304h-78v534h77v-98c44 72 107 108 186 108c131 0 202 -89 202 -214v-330h-78z" />
    <glyph glyph-name="ncommaaccent" unicode="&#x146;" horiz-adv-x="632" 
d="M473 0v311c0 95 -49 162 -148 162c-93 0 -159 -74 -159 -169v-304h-78v534h77v-98c42 72 105 108 184 108c131 0 202 -89 202 -214v-330h-78zM294 -303l-33 29c36 27 65 58 70 95c-5 -2 -10 -3 -18 -3c-30 0 -53 22 -53 54c0 33 26 57 57 57c37 0 64 -31 64 -79v-4
c0 -56 -30 -110 -87 -149z" />
    <glyph glyph-name="eng" unicode="&#x14b;" horiz-adv-x="632" 
d="M349 544c131 0 202 -89 202 -214v-421c0 -99 -53 -176 -167 -176c-14 0 -33 3 -44 7v66c12 -3 23 -4 33 -4c65 0 100 40 100 109v400c0 95 -49 162 -148 162c-93 0 -159 -74 -159 -169v-304h-78v534h77v-98c42 72 105 108 184 108z" />
    <glyph glyph-name="ohungarumlaut" unicode="&#x151;" horiz-adv-x="650" 
d="M203 625l108 172h95l-129 -172h-74zM375 625l108 172h95l-128 -172h-75zM324 -9c156 0 277 120 277 278c0 153 -121 274 -275 274c-158 0 -277 -120 -277 -278c0 -152 120 -274 275 -274zM326 60c-117 0 -197 97 -197 209s79 206 195 206s197 -98 197 -210
c0 -111 -81 -205 -195 -205z" />
    <glyph glyph-name="omacron" unicode="&#x14d;" horiz-adv-x="650" 
d="M496 710v-70h-339v70h339zM324 -9c-155 0 -275 122 -275 274c0 158 119 278 277 278c154 0 275 -121 275 -274c0 -158 -121 -278 -277 -278zM326 60c114 0 195 94 195 205c0 112 -81 210 -197 210s-195 -94 -195 -206s80 -209 197 -209z" />
    <glyph glyph-name="oslashacute" unicode="&#x1ff;" horiz-adv-x="654" 
d="M290 625l108 172h95l-128 -172h-75zM604 523l-68 -74c42 -48 67 -111 67 -180c0 -158 -121 -278 -277 -278c-60 0 -116 19 -161 51l-67 -73l-46 42l67 73c-42 49 -67 112 -67 181c0 158 118 278 276 278c60 0 116 -19 162 -52l68 74zM130 269c0 -47 15 -92 40 -128
l271 296c-31 24 -70 38 -115 38c-116 0 -196 -94 -196 -206zM524 265c0 47 -14 92 -40 128l-271 -296c31 -24 70 -38 115 -38c114 0 196 94 196 206z" />
    <glyph glyph-name="racute" unicode="&#x155;" horiz-adv-x="380" 
d="M183 625l109 172h94l-128 -172h-75zM166 0v261c0 95 41 199 167 199c10 0 20 -1 30 -2v83c-6 1 -21 1 -26 1c-61 0 -132 -31 -172 -114v106h-77v-534h78z" />
    <glyph glyph-name="rcaron" unicode="&#x159;" horiz-adv-x="380" 
d="M263 625h-77l-135 172h84l90 -118h2l91 118h83zM166 0v261c0 95 41 199 167 199c10 0 20 -1 30 -2v83c-6 1 -21 1 -26 1c-61 0 -132 -31 -172 -114v106h-77v-534h78z" />
    <glyph glyph-name="rcommaaccent" unicode="&#x157;" horiz-adv-x="380" 
d="M165 534v-106c40 83 111 114 172 114c5 0 20 0 26 -1v-83c-10 1 -20 2 -30 2c-126 0 -167 -104 -167 -199v-261h-78v534h77zM116 -303l-33 29c36 27 65 58 70 95c-5 -2 -10 -3 -18 -3c-30 0 -53 22 -53 54c0 33 26 57 57 57c37 0 64 -31 64 -79v-4
c0 -56 -30 -110 -87 -149z" />
    <glyph glyph-name="sacute" unicode="&#x15b;" horiz-adv-x="492" 
d="M202 625l108 172h95l-129 -172h-74zM441 152c0 -93 -82 -161 -192 -161c-108 0 -172 55 -209 138l64 35c25 -53 64 -104 144 -104c58 0 114 31 114 87c0 47 -39 69 -134 91c-71 16 -109 32 -139 66c-19 22 -29 50 -29 80c0 97 96 159 186 159c106 0 160 -58 189 -124
l-64 -35c-24 51 -58 90 -125 90c-58 0 -108 -38 -108 -84c0 -44 26 -63 125 -84c65 -14 108 -33 140 -66c23 -23 38 -53 38 -88z" />
    <glyph glyph-name="scedilla" unicode="&#x15f;" horiz-adv-x="492" 
d="M441 152c0 -81 -62 -143 -151 -158c21 -25 36 -60 36 -91c0 -93 -75 -147 -165 -147c-25 0 -52 4 -76 12v61c22 -6 46 -9 69 -9c66 0 101 35 101 95c0 31 -13 58 -31 77c-93 8 -150 61 -184 137l64 35c25 -53 64 -104 144 -104c58 0 114 31 114 87c0 47 -39 69 -134 91
c-71 16 -109 32 -139 66c-19 22 -29 50 -29 80c0 97 96 159 186 159c106 0 160 -58 189 -124l-64 -35c-24 51 -58 90 -125 90c-58 0 -108 -38 -108 -84c0 -44 26 -63 125 -84c65 -14 108 -33 140 -66c23 -23 38 -53 38 -88z" />
    <glyph glyph-name="scircumflex" unicode="&#x15d;" horiz-adv-x="492" 
d="M341 625l-91 118h-2l-90 -118h-84l134 172h78l138 -172h-83zM441 152c0 -93 -82 -161 -192 -161c-108 0 -172 55 -209 138l64 35c25 -53 64 -104 144 -104c58 0 114 31 114 87c0 47 -39 69 -134 91c-71 16 -109 32 -139 66c-19 22 -29 50 -29 80c0 97 96 159 186 159
c106 0 160 -58 189 -124l-64 -35c-24 51 -58 90 -125 90c-58 0 -108 -38 -108 -84c0 -44 26 -63 125 -84c65 -14 108 -33 140 -66c23 -23 38 -53 38 -88z" />
    <glyph glyph-name="scommaaccent" unicode="&#x219;" horiz-adv-x="492" 
d="M441 152c0 -93 -82 -161 -192 -161c-108 0 -172 55 -209 138l64 35c25 -53 64 -104 144 -104c58 0 114 31 114 87c0 47 -39 69 -134 91c-71 16 -109 32 -139 66c-19 22 -29 50 -29 80c0 97 96 159 186 159c106 0 160 -58 189 -124l-64 -35c-24 51 -58 90 -125 90
c-58 0 -108 -38 -108 -84c0 -44 26 -63 125 -84c65 -14 108 -33 140 -66c23 -23 38 -53 38 -88zM224 -303l-33 29c36 27 65 58 70 95c-5 -2 -10 -3 -18 -3c-30 0 -53 22 -53 54c0 33 26 57 57 57c37 0 64 -31 64 -79v-4c0 -56 -30 -110 -87 -149z" />
    <glyph glyph-name="tbar" unicode="&#x167;" horiz-adv-x="386" 
d="M205 465v-134h121v-69h-121v-122c0 -48 28 -75 87 -75c17 0 36 1 48 4v-65c-16 -5 -47 -8 -61 -8c-116 0 -151 64 -151 142v124h-91v69h91v134h-99v69h99v154h77v-154h135v-69h-135z" />
    <glyph glyph-name="tcaron" unicode="&#x165;" horiz-adv-x="380" 
d="M269 591l15 224h85l-34 -224h-66zM275 -4c-116 0 -151 64 -151 142v327h-99v69h99v154h77v-154h135v-69h-135v-325c0 -48 28 -75 87 -75c17 0 36 1 48 4v-65c-16 -5 -47 -8 -61 -8z" />
    <glyph glyph-name="uhungarumlaut" unicode="&#x171;" horiz-adv-x="632" 
d="M186 625l108 172h95l-129 -172h-74zM358 625l108 172h95l-128 -172h-75zM159 534v-311c0 -95 49 -162 148 -162c93 0 159 73 159 168v305h77v-534h-76v98c-42 -73 -105 -108 -183 -108c-132 0 -202 89 -202 214v330h77z" />
    <glyph glyph-name="umacron" unicode="&#x16b;" horiz-adv-x="632" 
d="M481 710v-70h-337v70h337zM160 534v-311c0 -95 48 -162 148 -162c92 0 159 73 159 168v305h77v-534h-76v98c-43 -73 -105 -108 -184 -108c-132 0 -202 89 -202 214v330h78z" />
    <glyph glyph-name="uni0163" unicode="&#x163;" horiz-adv-x="380" 
d="M141 -180c66 0 101 35 101 95c0 35 -17 67 -48 95c-52 24 -70 73 -70 128v327h-99v69h99v154h77v-154h135v-69h-135v-325c0 -48 28 -75 87 -75c17 0 36 1 48 4v-65c-15 -5 -46 -8 -61 -8c22 -25 37 -61 37 -93c0 -93 -74 -147 -164 -147c-18 0 -37 2 -56 6v63
c16 -3 33 -5 49 -5z" />
    <glyph glyph-name="uni01B6" unicode="&#x1b6;" horiz-adv-x="516" 
d="M376 467h-327v67h419v-66l-141 -167h138v-65h-191l-142 -169h337v-67h-427v67l144 169h-134v65h187z" />
    <glyph glyph-name="uni01CE" unicode="&#x1ce;" horiz-adv-x="568" 
d="M309 625h-78l-134 172h83l90 -118h2l91 118h83zM410 308v36c0 86 -47 130 -136 130c-82 0 -127 -49 -153 -105l-64 36c37 85 111 138 219 138c113 0 169 -51 195 -110c12 -29 16 -71 16 -88v-345h-76v94h-1c-42 -66 -100 -103 -180 -103c-108 0 -179 67 -179 157v6
c0 116 116 154 211 154h148zM410 244h-149c-57 0 -132 -18 -132 -90c0 -60 51 -94 115 -94c95 0 166 67 166 165v19z" />
    <glyph glyph-name="uni01D0" unicode="&#x1d0;" horiz-adv-x="255" 
d="M165 625h-78l-134 172h83l90 -118h2l91 118h83zM167 534h-79v-534h79v534z" />
    <glyph glyph-name="uni01D2" unicode="&#x1d2;" horiz-adv-x="650" 
d="M362 625h-78l-133 172h83l89 -118h3l91 118h83zM324 -9c-155 0 -275 122 -275 274c0 158 119 278 277 278c154 0 275 -121 275 -274c0 -158 -121 -278 -277 -278zM326 60c114 0 195 94 195 205c0 112 -81 210 -197 210s-195 -94 -195 -206s80 -209 197 -209z" />
    <glyph glyph-name="uni01D4" unicode="&#x1d4;" horiz-adv-x="632" 
d="M349 625h-78l-133 172h83l90 -118h2l91 118h83zM159 534v-311c0 -95 49 -162 148 -162c93 0 159 73 159 168v305h77v-534h-76v98c-42 -73 -105 -108 -183 -108c-132 0 -202 89 -202 214v330h77z" />
    <glyph glyph-name="uni01D6" unicode="&#x1d6;" horiz-adv-x="632" 
d="M481 866v-70h-337v70h337zM217 609c-30 0 -59 27 -59 60s29 60 59 60c31 0 59 -27 59 -60s-28 -60 -59 -60zM408 609c-31 0 -59 27 -59 60s28 60 59 60c30 0 59 -27 59 -60s-29 -60 -59 -60zM82 534v-330c0 -125 70 -214 202 -214c78 0 141 35 183 108v-98h76v534h-77
v-305c0 -95 -66 -168 -159 -168c-99 0 -148 67 -148 162v311h-77z" />
    <glyph glyph-name="uni01D8" unicode="&#x1d8;" horiz-adv-x="632" 
d="M276 776l107 172h95l-129 -172h-73zM217 609c-30 0 -59 27 -59 60s29 60 59 60c31 0 59 -27 59 -60s-28 -60 -59 -60zM408 609c-31 0 -59 27 -59 60s28 60 59 60c30 0 59 -27 59 -60s-29 -60 -59 -60zM82 534v-330c0 -125 70 -214 202 -214c78 0 141 35 183 108v-98h76
v534h-77v-305c0 -95 -66 -168 -159 -168c-99 0 -148 67 -148 162v311h-77z" />
    <glyph glyph-name="uni01DA" unicode="&#x1da;" horiz-adv-x="632" 
d="M351 777h-78l-133 172h75l97 -118h3l99 118h75zM217 609c-30 0 -59 27 -59 60s29 60 59 60c31 0 59 -27 59 -60s-28 -60 -59 -60zM408 609c-31 0 -59 27 -59 60s28 60 59 60c30 0 59 -27 59 -60s-29 -60 -59 -60zM82 534v-330c0 -125 70 -214 202 -214
c78 0 141 35 183 108v-98h76v534h-77v-305c0 -95 -66 -168 -159 -168c-99 0 -148 67 -148 162v311h-77z" />
    <glyph glyph-name="uni01DC" unicode="&#x1dc;" horiz-adv-x="632" 
d="M242 948l107 -172h-72l-130 172h95zM217 609c31 0 59 27 59 60s-28 60 -59 60c-30 0 -59 -27 -59 -60s29 -60 59 -60zM408 609c30 0 59 27 59 60s-29 60 -59 60c-31 0 -59 -27 -59 -60s28 -60 59 -60zM82 534v-330c0 -125 70 -214 202 -214c78 0 141 35 183 108v-98h76
v534h-77v-305c0 -95 -66 -168 -159 -168c-99 0 -148 67 -148 162v311h-77z" />
    <glyph glyph-name="uni01E9" unicode="&#x1e9;" horiz-adv-x="545" 
d="M250 294l294 -294h-109l-266 267h-3v-267h-78v815h78v-498l254 217h111zM403 679h-2l-89 118h-83l133 -172h77l138 172h-83z" />
    <glyph glyph-name="uni01F5" unicode="&#x1f5;" horiz-adv-x="673" 
d="M281 625l109 172h95l-129 -172h-75zM507 -5v124c-41 -68 -106 -121 -207 -121c-153 0 -250 126 -250 272c0 139 99 273 250 273c104 0 166 -58 208 -121v112h77v-536c0 -172 -106 -265 -268 -265c-138 0 -218 68 -264 172l63 37c28 -58 76 -141 200 -141
c103 0 191 55 191 194zM316 66c113 0 192 96 192 205c0 105 -81 203 -192 203c-117 0 -186 -90 -186 -206c0 -110 69 -202 186 -202z" />
    <glyph glyph-name="uni021B" unicode="&#x21b;" horiz-adv-x="380" 
d="M275 -4c-116 0 -151 64 -151 142v327h-99v69h99v154h77v-154h135v-69h-135v-325c0 -48 28 -75 87 -75c17 0 36 1 48 4v-65c-16 -5 -47 -8 -61 -8zM180 -303l-33 29c36 27 65 58 70 95c-5 -2 -10 -3 -18 -3c-30 0 -53 22 -53 54c0 33 26 57 57 57c37 0 64 -31 64 -79v-4
c0 -56 -30 -110 -87 -149z" />
    <glyph glyph-name="uni1E21" unicode="&#x1e21;" horiz-adv-x="673" 
d="M488 710v-70h-338v70h338zM507 -5v124c-41 -68 -106 -121 -207 -121c-153 0 -250 126 -250 272c0 139 99 273 250 273c104 0 166 -58 208 -121v112h77v-536c0 -172 -106 -265 -268 -265c-138 0 -218 68 -264 172l63 37c28 -58 76 -141 200 -141c103 0 191 55 191 194z
M316 66c113 0 192 96 192 205c0 105 -81 203 -192 203c-117 0 -186 -90 -186 -206c0 -110 69 -202 186 -202z" />
    <glyph glyph-name="uni1E31" unicode="&#x1e31;" horiz-adv-x="545" 
d="M250 294l294 -294h-109l-266 267h-3v-267h-78v815h78v-498l254 217h111zM378 797l-108 -172h74l129 172h-95z" />
    <glyph glyph-name="uni1E61" unicode="&#x1e61;" horiz-adv-x="492" 
d="M244 624c-32 0 -60 27 -60 61s28 61 60 61c30 0 60 -27 60 -61s-30 -61 -60 -61zM441 152c0 -93 -82 -161 -192 -161c-108 0 -172 55 -209 138l64 35c25 -53 64 -104 144 -104c58 0 114 31 114 87c0 47 -39 69 -134 91c-71 16 -109 32 -139 66c-19 22 -29 50 -29 80
c0 97 96 159 186 159c106 0 160 -58 189 -124l-64 -35c-24 51 -58 90 -125 90c-58 0 -108 -38 -108 -84c0 -44 26 -63 125 -84c65 -14 108 -33 140 -66c23 -23 38 -53 38 -88z" />
    <glyph glyph-name="uni1E91" unicode="&#x1e91;" horiz-adv-x="514" 
d="M347 625l-91 118h-3l-89 -118h-83l133 172h78l138 -172h-83zM468 468l-333 -401h334v-67h-427v67l333 400h-325v67h418v-66z" />
    <glyph glyph-name="uni1EBD" unicode="&#x1ebd;" horiz-adv-x="607" 
d="M375 625c-59 0 -79 49 -132 49c-28 0 -37 -24 -41 -48h-56c0 61 27 115 97 115c51 0 85 -48 132 -48c27 0 39 23 44 46h49c-1 -61 -25 -114 -93 -114zM560 243h-432c6 -104 87 -183 191 -183c78 0 139 46 169 107l58 -38c-46 -89 -132 -138 -226 -138
c-155 0 -271 123 -271 277c0 145 110 275 260 275c165 0 252 -118 252 -274c0 -9 0 -18 -1 -26zM129 309h353c-10 97 -71 166 -173 166c-93 0 -167 -77 -180 -166z" />
    <glyph glyph-name="uogonek" unicode="&#x173;" horiz-adv-x="632" 
d="M475 -115c0 -53 42 -67 87 -66v-60c-10 -2 -20 -3 -29 -3c-69 0 -133 37 -133 111c0 54 48 102 86 133h-19v98c-42 -73 -105 -108 -183 -108c-132 0 -202 89 -202 214v330h77v-311c0 -95 49 -162 148 -162c93 0 159 73 159 168v305h77v-534c-30 -26 -68 -73 -68 -115z
" />
    <glyph glyph-name="uring" unicode="&#x16f;" horiz-adv-x="632" 
d="M312 604c-76 0 -139 60 -139 134c0 73 63 133 139 133c78 0 140 -60 140 -133c0 -74 -62 -134 -140 -134zM312 815c-45 0 -80 -33 -80 -77s35 -79 80 -79s81 35 81 79c0 41 -39 77 -81 77zM160 534v-311c0 -95 48 -162 148 -162c92 0 159 73 159 168v305h77v-534h-76v98
c-43 -73 -105 -108 -184 -108c-132 0 -202 89 -202 214v330h78z" />
    <glyph glyph-name="utilde" unicode="&#x169;" horiz-adv-x="632" 
d="M342 715c19 -19 36 -25 50 -25c26 0 41 20 43 81h62c2 -93 -33 -147 -105 -147c-48 0 -75 23 -101 49c-22 23 -39 33 -58 33c-26 0 -41 -19 -43 -80h-62c-1 92 33 146 105 146c46 0 76 -21 109 -57zM160 534v-311c0 -95 48 -162 148 -162c92 0 159 73 159 168v305h77
v-534h-76v98c-43 -73 -105 -108 -184 -108c-132 0 -202 89 -202 214v330h78z" />
    <glyph glyph-name="wacute" unicode="&#x1e83;" horiz-adv-x="866" 
d="M396 625l108 172h95l-128 -172h-75zM618 90h1l141 444h81l-180 -534h-87l-141 434h-1l-142 -434h-86l-179 534h83l140 -443h1l145 443h78z" />
    <glyph glyph-name="wcircumflex" unicode="&#x175;" horiz-adv-x="866" 
d="M524 625l-90 118h-3l-89 -118h-83l133 172h78l137 -172h-83zM618 90h1l141 444h81l-180 -534h-87l-141 434h-1l-142 -434h-86l-179 534h83l140 -443h1l145 443h78z" />
    <glyph glyph-name="wdieresis" unicode="&#x1e85;" horiz-adv-x="866" 
d="M338 624c-30 0 -59 26 -59 60c0 33 29 60 59 60s59 -27 59 -60c0 -34 -29 -60 -59 -60zM528 624c-30 0 -59 26 -59 60c0 33 29 60 59 60c31 0 59 -27 59 -60c0 -34 -28 -60 -59 -60zM618 90h1l141 444h81l-180 -534h-87l-141 434h-1l-142 -434h-86l-179 534h83l140 -443
h1l145 443h78z" />
    <glyph glyph-name="wgrave" unicode="&#x1e81;" horiz-adv-x="866" 
d="M362 797l108 -172h-74l-129 172h95zM618 90h1l141 444h81l-180 -534h-87l-141 434h-1l-142 -434h-86l-179 534h83l140 -443h1l145 443h78z" />
    <glyph glyph-name="ycircumflex" unicode="&#x177;" horiz-adv-x="594" 
d="M394 625l-91 118h-3l-89 -118h-83l133 172h78l138 -172h-83zM126 -263l138 299l-243 498h90l196 -413l185 413h84l-366 -797h-84z" />
    <glyph glyph-name="ygrave" unicode="&#x1ef3;" horiz-adv-x="594" 
d="M243 797l109 -172h-75l-129 172h95zM126 -263l138 299l-243 498h90l196 -413l185 413h84l-366 -797h-84z" />
    <glyph glyph-name="zacute" unicode="&#x17a;" horiz-adv-x="514" 
d="M212 625l109 172h95l-129 -172h-75zM135 67l333 401v66h-418v-67h325l-333 -400v-67h427v67h-334z" />
    <glyph glyph-name="zcaron" unicode="&#x17e;" horiz-adv-x="514" 
d="M292 625h-78l-133 172h83l89 -118h3l91 118h83zM135 67l333 401v66h-419v-67h326l-333 -400v-67h427v67h-334z" />
    <glyph glyph-name="zdotaccent" unicode="&#x17c;" horiz-adv-x="514" 
d="M255 624c-30 0 -60 27 -60 61s30 61 60 61c31 0 60 -27 60 -61s-29 -61 -60 -61zM468 468l-333 -401h334v-67h-427v67l333 400h-325v67h418v-66z" />
    <glyph glyph-name="a.alt" horiz-adv-x="673" 
d="M50 268c0 139 99 275 250 275c105 0 165 -59 207 -123v114h77v-534h-77v113c-41 -68 -106 -121 -207 -121c-153 0 -250 130 -250 276zM316 61c113 0 192 98 192 208c0 106 -81 205 -192 205c-117 0 -187 -93 -187 -208c0 -110 70 -205 187 -205z" />
    <glyph glyph-name="aacute.alt" horiz-adv-x="673" 
d="M279 625l108 172h95l-128 -172h-75zM50 268c0 139 99 275 250 275c105 0 165 -59 207 -123v114h77v-534h-77v113c-41 -68 -106 -121 -207 -121c-153 0 -250 130 -250 276zM316 61c113 0 192 98 192 208c0 106 -81 205 -192 205c-117 0 -187 -93 -187 -208
c0 -110 70 -205 187 -205z" />
    <glyph glyph-name="abreve.alt" horiz-adv-x="673" 
d="M317 623c-81 0 -158 56 -163 169h62c3 -64 41 -106 101 -106c57 0 97 39 101 106h61c-3 -105 -75 -169 -162 -169zM50 268c0 139 99 275 250 275c105 0 165 -59 207 -123v114h77v-534h-77v113c-41 -68 -106 -121 -207 -121c-153 0 -250 130 -250 276zM316 61
c113 0 192 98 192 208c0 106 -81 205 -192 205c-117 0 -187 -93 -187 -208c0 -110 70 -205 187 -205z" />
    <glyph glyph-name="acaron.alt" horiz-adv-x="673" 
d="M353 625h-78l-133 172h83l89 -118h3l91 118h83zM50 268c0 139 99 275 250 275c105 0 165 -59 207 -123v114h77v-534h-77v113c-41 -68 -106 -121 -207 -121c-153 0 -250 130 -250 276zM316 61c113 0 192 98 192 208c0 106 -81 205 -192 205c-117 0 -187 -93 -187 -208
c0 -110 70 -205 187 -205z" />
    <glyph glyph-name="acircumflex.alt" horiz-adv-x="673" 
d="M408 625l-91 118h-2l-89 -118h-83l133 172h78l137 -172h-83zM50 268c0 139 99 275 250 275c105 0 165 -59 207 -123v114h77v-534h-77v113c-41 -68 -106 -121 -207 -121c-153 0 -250 130 -250 276zM316 61c113 0 192 98 192 208c0 106 -81 205 -192 205
c-117 0 -187 -93 -187 -208c0 -110 70 -205 187 -205z" />
    <glyph glyph-name="adieresis.alt" horiz-adv-x="673" 
d="M228 624c-31 0 -60 26 -60 60c0 33 29 60 60 60c30 0 59 -27 59 -60c0 -34 -29 -60 -59 -60zM414 624c-31 0 -60 26 -60 60c0 33 29 60 60 60c30 0 59 -27 59 -60c0 -34 -29 -60 -59 -60zM50 268c0 139 99 275 250 275c105 0 165 -59 207 -123v114h77v-534h-77v113
c-41 -68 -106 -121 -207 -121c-153 0 -250 130 -250 276zM316 61c113 0 192 98 192 208c0 106 -81 205 -192 205c-117 0 -187 -93 -187 -208c0 -110 70 -205 187 -205z" />
    <glyph glyph-name="agrave.alt" horiz-adv-x="673" 
d="M251 797l108 -172h-74l-129 172h95zM50 268c0 139 99 275 250 275c105 0 165 -59 207 -123v114h77v-534h-77v113c-41 -68 -106 -121 -207 -121c-153 0 -250 130 -250 276zM316 61c113 0 192 98 192 208c0 106 -81 205 -192 205c-117 0 -187 -93 -187 -208
c0 -110 70 -205 187 -205z" />
    <glyph glyph-name="amacron.alt" horiz-adv-x="673" 
d="M485 710v-70h-337v70h337zM50 268c0 139 99 275 250 275c105 0 165 -59 207 -123v114h77v-534h-77v113c-41 -68 -106 -121 -207 -121c-153 0 -250 130 -250 276zM316 61c113 0 192 98 192 208c0 106 -81 205 -192 205c-117 0 -187 -93 -187 -208c0 -110 70 -205 187 -205
z" />
    <glyph glyph-name="aogonek.alt" horiz-adv-x="673" 
d="M512 -115c0 -53 42 -67 87 -66v-60c-9 -2 -19 -3 -29 -3c-68 0 -133 37 -133 111c0 54 48 102 87 133h-17v113c-41 -68 -106 -121 -207 -121c-153 0 -250 130 -250 276c0 139 99 275 250 275c105 0 165 -59 207 -123v114h77v-534h-3c-30 -26 -69 -73 -69 -115zM316 61
c113 0 192 98 192 208c0 106 -81 205 -192 205c-117 0 -187 -93 -187 -208c0 -110 70 -205 187 -205z" />
    <glyph glyph-name="aring.alt" horiz-adv-x="673" 
d="M316 604c-76 0 -139 60 -139 134c0 73 63 133 139 133c79 0 141 -60 141 -133c0 -74 -62 -134 -141 -134zM316 815c-45 0 -80 -33 -80 -77s35 -79 80 -79s81 35 81 79c0 41 -38 77 -81 77zM50 268c0 139 99 275 250 275c105 0 165 -59 207 -123v114h77v-534h-77v113
c-41 -68 -106 -121 -207 -121c-153 0 -250 130 -250 276zM316 61c113 0 192 98 192 208c0 106 -81 205 -192 205c-117 0 -187 -93 -187 -208c0 -110 70 -205 187 -205z" />
    <glyph glyph-name="atilde.alt" horiz-adv-x="673" 
d="M347 715c19 -19 36 -25 50 -25c26 0 41 20 43 81h62c2 -93 -33 -147 -105 -147c-48 0 -75 23 -101 49c-22 23 -39 33 -58 33c-26 0 -41 -19 -43 -80h-62c-1 92 33 146 105 146c46 0 76 -21 109 -57zM50 268c0 139 99 275 250 275c105 0 165 -59 207 -123v114h77v-534h-77
v113c-41 -68 -106 -121 -207 -121c-153 0 -250 130 -250 276zM316 61c113 0 192 98 192 208c0 106 -81 205 -192 205c-117 0 -187 -93 -187 -208c0 -110 70 -205 187 -205z" />
    <glyph glyph-name="l.alt" horiz-adv-x="302" 
d="M161 815v-675c0 -48 28 -75 84 -75c17 0 36 1 48 4v-65c-16 -5 -47 -8 -61 -8c-112 0 -149 64 -149 142v677h78z" />
    <glyph glyph-name="lslash.alt" horiz-adv-x="388" 
d="M216 353v-213c0 -48 28 -75 83 -75c17 0 36 1 49 4v-65c-16 -5 -48 -8 -61 -8c-113 0 -149 64 -149 142v156l-101 -75v82l101 75v439h78v-381l127 94v-82z" />
    <glyph glyph-name="y.alt" horiz-adv-x="587" 
d="M564 534l-266 -641c-45 -109 -109 -160 -203 -160c-11 0 -26 2 -39 7v66c10 -2 21 -4 33 -4c49 0 103 29 137 113l34 85l-238 534h85l194 -448l180 448h83z" />
    <glyph glyph-name="aring.alt2" horiz-adv-x="568" 
d="M273 604c-76 0 -139 60 -139 134c0 73 63 133 139 133c78 0 140 -60 140 -133c0 -74 -62 -134 -140 -134zM273 815c-45 0 -80 -33 -80 -77s35 -79 80 -79s81 35 81 79c0 41 -39 77 -81 77zM410 308v36c0 86 -47 130 -136 130c-82 0 -127 -49 -153 -105l-64 36
c37 85 111 138 219 138c113 0 169 -51 195 -110c12 -29 16 -71 16 -88v-345h-76v94h-1c-42 -66 -100 -103 -180 -103c-108 0 -179 67 -179 157v6c0 116 116 154 211 154h148zM410 244h-149c-57 0 -132 -18 -132 -90c0 -60 51 -94 115 -94c95 0 166 67 166 165v19z" />
    <glyph glyph-name="i.loclTRK" horiz-adv-x="255" 
d="M69 725c0 33 26 59 58 59c33 0 59 -26 59 -59c0 -32 -26 -58 -59 -58c-32 0 -58 26 -58 58zM88 534h79v-534h-79v534z" />
    <glyph glyph-name="uni0410" unicode="&#x410;" horiz-adv-x="775" 
d="M600 200h-427l-86 -200h-84l338 783h93l338 -783h-87zM568 275l-182 423l-182 -423h364z" />
    <glyph glyph-name="uni0411" unicode="&#x411;" horiz-adv-x="720" 
d="M191 463h189c132 0 298 -48 298 -230c0 -138 -98 -233 -285 -233h-284v783h512v-76h-430v-244zM191 76h192c87 0 212 24 212 163c0 94 -76 150 -217 150h-187v-313z" />
    <glyph glyph-name="uni0412" unicode="&#x412;" horiz-adv-x="733" 
d="M109 783h281c143 0 252 -69 252 -197c0 -35 -9 -130 -119 -179c116 -30 154 -132 154 -192c0 -151 -129 -215 -277 -215h-291v783zM190 435h187c129 0 182 65 182 142c0 95 -86 131 -176 131h-193v-273zM190 75h212c85 0 191 34 191 146c0 111 -115 141 -206 141h-197
v-287z" />
    <glyph glyph-name="uni0413" unicode="&#x413;" horiz-adv-x="581" 
d="M191 0h-82v783h449v-76h-367v-707z" />
    <glyph glyph-name="uni0403" unicode="&#x403;" horiz-adv-x="581" 
d="M281 854l108 172h95l-129 -172h-74zM191 707h367v76h-449v-783h82v707z" />
    <glyph glyph-name="uni0490" unicode="&#x490;" horiz-adv-x="581" 
d="M191 0h-82v783h371v151h78v-226l-367 -1v-707z" />
    <glyph glyph-name="uni0414" unicode="&#x414;" horiz-adv-x="809" 
d="M16 78h2c103 0 158 155 176 307l46 398h436v-707h84v-240h-77v164h-590v-164h-77v242zM312 707l-39 -347c-10 -91 -40 -216 -113 -284h434v631h-282z" />
    <glyph glyph-name="uni0415" unicode="&#x415;" horiz-adv-x="664" 
d="M191 76h412v-76h-494v783h490v-76h-408v-271h373v-76h-373v-284z" />
    <glyph glyph-name="uni0401" unicode="&#x401;" horiz-adv-x="664" 
d="M253 858c-30 0 -59 27 -59 60s29 60 59 60c31 0 59 -27 59 -60s-28 -60 -59 -60zM454 858c-31 0 -59 27 -59 60s28 60 59 60c30 0 59 -27 59 -60s-29 -60 -59 -60zM191 76h412v-76h-494v783h490v-76h-408v-271h373v-76h-373v-284z" />
    <glyph glyph-name="uni0416" unicode="&#x416;" horiz-adv-x="1000" 
d="M547 380h-6v-380h-82v380h-6l-342 -380h-112l366 401l-350 382h108l331 -367h5v367h82v-367h5l331 367h108l-350 -382l366 -401h-112z" />
    <glyph glyph-name="uni0417" unicode="&#x417;" horiz-adv-x="645" 
d="M587 216c0 -127 -111 -224 -272 -224c-134 0 -227 72 -266 181l72 36c35 -87 93 -140 194 -140c124 0 188 70 188 146c0 83 -63 145 -189 145h-98v76h96c111 0 173 66 173 141c0 72 -60 138 -172 138c-96 0 -150 -59 -182 -137l-74 33c35 103 126 181 258 181
c167 0 254 -105 254 -208c0 -89 -50 -146 -125 -180v-1c87 -28 143 -95 143 -187z" />
    <glyph glyph-name="uni0418" unicode="&#x418;" horiz-adv-x="841" 
d="M191 783v-673l446 673h95v-783h-81v676l-447 -676h-95v783h82z" />
    <glyph glyph-name="uni0419" unicode="&#x419;" horiz-adv-x="841" 
d="M421 855c-84 0 -147 59 -162 143l55 10c16 -52 47 -90 107 -90s91 38 106 90l56 -10c-16 -84 -79 -143 -162 -143zM191 110v673h-82v-783h95l447 676v-676h81v783h-95z" />
    <glyph glyph-name="uni041A" unicode="&#x41a;" horiz-adv-x="677" 
d="M680 0h-116l-367 377h-6v-377h-82v783h82v-346h5l351 346h115l-384 -375z" />
    <glyph glyph-name="uni040C" unicode="&#x40c;" horiz-adv-x="677" 
d="M312 854l109 172h95l-129 -172h-75zM680 0h-116l-367 377h-6v-377h-82v783h82v-346h5l351 346h115l-384 -375z" />
    <glyph glyph-name="uni041B" unicode="&#x41b;" horiz-adv-x="812" 
d="M305 707l-43 -399c-15 -143 -70 -310 -241 -310h-4v75c119 0 155 153 165 246l49 464h472v-783h-82v707h-316z" />
    <glyph glyph-name="uni041C" unicode="&#x41c;" horiz-adv-x="1035" 
d="M190 666v-666h-81v783h116l293 -671l290 671h118v-783h-81v671h-1l-291 -671h-74z" />
    <glyph glyph-name="uni041D" unicode="&#x41d;" horiz-adv-x="828" 
d="M637 783h82v-783h-82v358h-446v-358h-82v783h82v-346h446v346z" />
    <glyph glyph-name="uni041E" unicode="&#x41e;" horiz-adv-x="895" 
d="M841 394c0 -225 -168 -402 -395 -402c-224 0 -392 174 -392 397c0 225 168 402 395 402c224 0 392 -174 392 -397zM756 389c0 176 -128 325 -310 325c-180 0 -307 -145 -307 -320c0 -177 128 -325 310 -325c180 0 307 145 307 320z" />
    <glyph glyph-name="uni041F" unicode="&#x41f;" horiz-adv-x="819" 
d="M628 0v707h-437v-707h-82v783h601v-783h-82z" />
    <glyph glyph-name="uni0420" unicode="&#x420;" horiz-adv-x="681" 
d="M109 783h262c191 0 275 -113 275 -235c0 -133 -99 -242 -289 -242h-166v-306h-82v783zM191 382h169c144 0 202 84 202 163c0 77 -44 161 -198 161h-173v-324z" />
    <glyph glyph-name="uni0421" unicode="&#x421;" horiz-adv-x="837" 
d="M444 -8c-216 0 -390 161 -390 397c0 238 180 402 394 402c192 0 312 -121 349 -240l-74 -34c-32 96 -114 196 -277 196c-166 0 -306 -130 -306 -319c0 -186 130 -324 307 -324c144 0 234 82 277 198l74 -35c-42 -119 -162 -241 -354 -241z" />
    <glyph glyph-name="uni0422" unicode="&#x422;" horiz-adv-x="647" 
d="M365 0h-82v706h-262v77h605v-77h-261v-706z" />
    <glyph glyph-name="uni0423" unicode="&#x423;" horiz-adv-x="695" 
d="M12 783h93l263 -494l241 494h91l-316 -637c-25 -51 -57 -92 -91 -117s-75 -38 -117 -38c-60 0 -110 19 -149 51l44 66c27 -21 56 -41 100 -41c40 0 67 14 93 40s45 62 62 98z" />
    <glyph glyph-name="uni040E" unicode="&#x40e;" horiz-adv-x="695" 
d="M356 855c-84 0 -147 59 -162 143l56 10c15 -52 46 -90 106 -90s91 38 106 90l56 -10c-16 -84 -79 -143 -162 -143zM12 783h93l263 -494l241 494h91l-316 -637c-25 -51 -57 -92 -91 -117s-75 -38 -117 -38c-60 0 -110 19 -149 51l44 66c27 -21 56 -41 100 -41
c40 0 67 14 93 40s45 62 62 98z" />
    <glyph glyph-name="uni0424" unicode="&#x424;" horiz-adv-x="950" 
d="M434 -24v90c-245 0 -390 130 -390 332c0 213 155 331 390 331v79h82v-79c235 0 390 -118 390 -331c0 -202 -145 -332 -390 -332v-90h-82zM434 143v511c-191 0 -304 -90 -304 -257c0 -169 114 -254 304 -254zM516 654v-511c191 0 304 85 304 254c0 167 -113 257 -304 257z
" />
    <glyph glyph-name="uni0425" unicode="&#x425;" horiz-adv-x="715" 
d="M694 783l-287 -381l300 -402h-96l-254 342l-253 -342h-96l300 401l-287 382h96l242 -323l239 323h96z" />
    <glyph glyph-name="uni0427" unicode="&#x427;" horiz-adv-x="737" 
d="M545 0v334c-63 -37 -169 -75 -237 -75c-119 0 -247 51 -247 225v299h81v-289c0 -83 49 -157 171 -157c80 0 169 37 232 74v372h83v-783h-83z" />
    <glyph glyph-name="uni0426" unicode="&#x426;" horiz-adv-x="847" 
d="M798 -164h-77v164h-612v783h82v-707h441v707h82v-707h84v-240z" />
    <glyph glyph-name="uni0428" unicode="&#x428;" horiz-adv-x="1203" 
d="M1012 76v707h82v-783h-985v783h82v-707h369v707h82v-707h370z" />
    <glyph glyph-name="uni0429" unicode="&#x429;" horiz-adv-x="1227" 
d="M1012 783h82v-707h84v-240h-77v164h-992v783h82v-707h369v707h82v-707h370v707z" />
    <glyph glyph-name="uni040F" unicode="&#x40f;" horiz-adv-x="823" 
d="M191 76h441v707h82v-783h-261v-164h-82v164h-262v783h82v-707z" />
    <glyph glyph-name="uni042C" unicode="&#x42c;" horiz-adv-x="704" 
d="M191 478h175c134 0 302 -49 302 -230c0 -139 -96 -248 -289 -248h-270v783h82v-305zM191 76h185c87 0 209 30 209 170c0 94 -73 156 -214 156h-180v-326z" />
    <glyph glyph-name="uni042A" unicode="&#x42a;" horiz-adv-x="803" 
d="M290 478h175c135 0 302 -49 302 -230c0 -139 -96 -248 -288 -248h-271v707h-190v76h272v-305zM290 76h186c86 0 209 30 209 170c0 94 -74 156 -215 156h-180v-326z" />
    <glyph glyph-name="uni042B" unicode="&#x42b;" horiz-adv-x="937" 
d="M191 478h175c134 0 302 -49 302 -230c0 -139 -96 -248 -289 -248h-270v783h82v-305zM829 783h-82v-783h82v783zM191 76h185c87 0 209 30 209 170c0 94 -73 156 -214 156h-180v-326z" />
    <glyph glyph-name="uni0409" unicode="&#x409;" horiz-adv-x="1206" 
d="M693 478h176c134 0 301 -49 301 -230c0 -139 -96 -248 -288 -248h-271v707h-306l-43 -399c-15 -143 -70 -310 -241 -310h-4v75c119 0 154 153 165 247l49 463h462v-305zM693 76h186c87 0 209 30 209 170c0 94 -74 156 -215 156h-180v-326z" />
    <glyph glyph-name="uni040A" unicode="&#x40a;" horiz-adv-x="1231" 
d="M719 783v-323h195c134 0 282 -52 282 -222c0 -138 -95 -238 -276 -238h-284v383h-445v-383h-82v783h82v-323h445v323h83zM719 76h192c87 0 201 26 201 162c0 91 -65 149 -206 149h-187v-311z" />
    <glyph glyph-name="uni0405" unicode="&#x405;" horiz-adv-x="628" 
d="M320 -8c-137 0 -226 72 -271 191l71 37c37 -91 93 -151 200 -151c92 0 168 54 168 136s-66 128 -182 156c-161 39 -234 108 -234 217c0 134 116 214 246 214s212 -70 247 -163l-70 -39c-26 65 -75 125 -179 125c-84 0 -162 -51 -162 -133c0 -71 49 -110 167 -140
c84 -21 154 -52 197 -99c33 -36 54 -80 54 -132c0 -115 -95 -219 -252 -219z" />
    <glyph glyph-name="uni0404" unicode="&#x404;" horiz-adv-x="837" 
d="M725 267l73 -34c-42 -119 -162 -241 -354 -241c-216 0 -390 161 -390 397c0 238 180 402 394 402c192 0 312 -121 349 -240l-73 -33c-33 96 -115 196 -278 196c-153 0 -285 -111 -304 -278h377v-76h-378c15 -169 139 -291 306 -291c144 0 234 82 278 198z" />
    <glyph glyph-name="uni042D" unicode="&#x42d;" horiz-adv-x="838" 
d="M394 791c215 0 389 -154 389 -398c0 -242 -175 -401 -391 -401c-192 0 -311 119 -353 241l73 34c43 -118 137 -198 281 -198c164 0 289 119 303 291h-378v76h377c-20 171 -149 278 -301 278c-159 0 -245 -100 -281 -196l-73 33c40 120 166 240 354 240z" />
    <glyph glyph-name="uni0406" unicode="&#x406;" horiz-adv-x="300" 
d="M109 783h82v-783h-82v783z" />
    <glyph glyph-name="uni0407" unicode="&#x407;" horiz-adv-x="300" 
d="M50 858c-30 0 -59 27 -59 60s29 60 59 60s59 -27 59 -60s-29 -60 -59 -60zM250 858c-30 0 -59 27 -59 60s29 60 59 60s59 -27 59 -60s-29 -60 -59 -60zM109 783h82v-783h-82v783z" />
    <glyph glyph-name="uni0408" unicode="&#x408;" horiz-adv-x="577" 
d="M249 69c90 0 145 58 145 152v562h82v-559c0 -142 -86 -232 -225 -232c-98 0 -178 56 -221 169l68 38c33 -85 83 -130 151 -130z" />
    <glyph glyph-name="uni040B" unicode="&#x40b;" horiz-adv-x="860" 
d="M545 433c-102 0 -181 -40 -248 -101v-332h-81v707h-194v76h543v-76h-268l1 -286c98 73 176 90 253 90c149 0 255 -81 255 -239v-272h-81v251c0 110 -73 182 -180 182z" />
    <glyph glyph-name="uni042E" unicode="&#x42e;" horiz-adv-x="1148" 
d="M715 791c226 0 378 -174 378 -397c0 -225 -153 -402 -380 -402c-213 0 -359 157 -375 364h-147v-356h-82v783h82v-351h147c17 203 164 359 377 359zM715 68c181 0 294 146 294 321c0 177 -112 326 -296 326c-183 0 -292 -151 -292 -325s112 -322 294 -322z" />
    <glyph glyph-name="uni042F" unicode="&#x42f;" horiz-adv-x="722" 
d="M41 0l239 325c-122 16 -216 97 -216 226c0 161 133 232 279 232h270v-783h-82v313h-161l-231 -313h-98zM531 708h-183c-103 0 -201 -46 -201 -161c0 -112 102 -164 202 -164h182v325z" />
    <glyph glyph-name="uni0402" unicode="&#x402;" horiz-adv-x="847" 
d="M806 252c0 -177 -105 -273 -252 -273c-41 0 -78 8 -114 22l18 72c25 -11 50 -17 86 -17c81 0 177 52 177 195c0 110 -71 190 -179 190c-102 0 -178 -37 -245 -98v-343h-82v707h-193v76h543v-76h-268v-277c98 73 177 89 254 89c149 0 255 -93 255 -267z" />
    <glyph glyph-name="uni0496" unicode="&#x496;" horiz-adv-x="1017" 
d="M924 -164v164h-35l-342 380h-6v-380h-82v380h-6l-342 -380h-112l366 401l-350 382h108l331 -367h5v367h82v-367h5l331 367h108l-350 -382l296 -325h70v-240h-77z" />
    <glyph glyph-name="uni0498" unicode="&#x498;" horiz-adv-x="645" 
d="M587 216c0 -116 -92 -207 -231 -222v-158h-82v158c-112 14 -190 81 -225 179l72 36c35 -87 93 -140 194 -140c124 0 188 70 188 146c0 83 -63 145 -189 145h-98v76h96c111 0 173 66 173 141c0 72 -60 138 -172 138c-96 0 -150 -59 -182 -137l-74 33
c35 103 126 181 258 181c167 0 254 -105 254 -208c0 -89 -50 -146 -125 -180v-1c87 -28 143 -95 143 -187z" />
    <glyph glyph-name="uni049A" unicode="&#x49a;" horiz-adv-x="695" 
d="M278 408l327 -332h75v-240h-77v164h-39l-367 377h-6v-377h-82v783h82v-346h5l351 346h115z" />
    <glyph glyph-name="uni04A2" unicode="&#x4a2;" horiz-adv-x="852" 
d="M191 358v-358h-82v783h82v-346h446v346h82v-707h84v-240h-77v164h-89v358h-446z" />
    <glyph glyph-name="uni04AA" unicode="&#x4aa;" horiz-adv-x="837" 
d="M724 268l74 -35c-39 -110 -144 -222 -310 -239v-158h-82v158c-198 17 -352 173 -352 395c0 238 180 402 394 402c192 0 312 -121 349 -240l-74 -34c-32 96 -114 196 -277 196c-166 0 -306 -130 -306 -319c0 -186 130 -324 307 -324c144 0 234 82 277 198z" />
    <glyph glyph-name="uni04AC" unicode="&#x4ac;" horiz-adv-x="651" 
d="M21 706v77h605v-77h-261v-630h84v-240h-77v164h-89v706h-262z" />
    <glyph glyph-name="uni04B2" unicode="&#x4b2;" horiz-adv-x="748" 
d="M657 -164v164h-46l-254 342l-253 -342h-96l300 401l-287 382h96l242 -323l239 323h96l-287 -381l243 -326h84v-240h-77z" />
    <glyph glyph-name="uni04C0" unicode="&#x4c0;" horiz-adv-x="300" 
d="M109 783h82v-783h-82v783z" />
    <glyph glyph-name="uni04C1" unicode="&#x4c1;" horiz-adv-x="1000" 
d="M500 855c-83 0 -146 59 -162 143l56 10c15 -52 46 -90 106 -90s91 38 106 90l56 -10c-16 -84 -79 -143 -162 -143zM547 380h-6v-380h-82v380h-6l-342 -380h-112l366 401l-350 382h108l331 -367h5v367h82v-367h5l331 367h108l-350 -382l366 -401h-112z" />
    <glyph glyph-name="uni04D0" unicode="&#x4d0;" horiz-adv-x="775" 
d="M386 855c-84 0 -147 59 -162 143l55 10c15 -52 47 -90 107 -90s91 38 106 90l56 -10c-16 -84 -79 -143 -162 -143zM600 200h-427l-86 -200h-84l338 783h93l338 -783h-87zM568 275l-182 423l-182 -423h364z" />
    <glyph glyph-name="uni04D2" unicode="&#x4d2;" horiz-adv-x="775" 
d="M286 858c-31 0 -59 27 -59 60s28 60 59 60c30 0 59 -27 59 -60s-29 -60 -59 -60zM486 858c-30 0 -59 27 -59 60s29 60 59 60s59 -27 59 -60s-29 -60 -59 -60zM600 200h-427l-86 -200h-84l338 783h93l338 -783h-87zM568 275l-182 423l-182 -423h364z" />
    <glyph glyph-name="uni04D6" unicode="&#x4d6;" horiz-adv-x="664" 
d="M356 855c-84 0 -147 59 -162 143l56 10c15 -52 46 -90 106 -90s91 38 106 90l56 -10c-16 -84 -79 -143 -162 -143zM191 76h412v-76h-494v783h490v-76h-408v-271h373v-76h-373v-284z" />
    <glyph glyph-name="uni04DC" unicode="&#x4dc;" horiz-adv-x="1000" 
d="M405 858c-30 0 -59 27 -59 60s29 60 59 60s59 -27 59 -60s-29 -60 -59 -60zM595 858c-30 0 -59 27 -59 60s29 60 59 60s59 -27 59 -60s-29 -60 -59 -60zM547 380h-6v-380h-82v380h-6l-342 -380h-112l366 401l-350 382h108l331 -367h5v367h82v-367h5l331 367h108
l-350 -382l366 -401h-112z" />
    <glyph glyph-name="uni04DE" unicode="&#x4de;" horiz-adv-x="645" 
d="M214 858c-31 0 -59 27 -59 60s28 60 59 60c30 0 59 -27 59 -60s-29 -60 -59 -60zM414 858c-30 0 -59 27 -59 60s29 60 59 60s59 -27 59 -60s-29 -60 -59 -60zM587 216c0 -127 -111 -224 -272 -224c-134 0 -227 72 -266 181l72 36c35 -87 93 -140 194 -140
c124 0 188 70 188 146c0 83 -63 145 -189 145h-98v76h96c111 0 173 66 173 141c0 72 -60 138 -172 138c-96 0 -150 -59 -182 -137l-74 33c35 103 126 181 258 181c167 0 254 -105 254 -208c0 -89 -50 -146 -125 -180v-1c87 -28 143 -95 143 -187z" />
    <glyph glyph-name="uni04E2" unicode="&#x4e2;" horiz-adv-x="841" 
d="M589 955v-71h-337v71h337zM191 783v-673l446 673h95v-783h-81v676l-447 -676h-95v783h82z" />
    <glyph glyph-name="uni04E4" unicode="&#x4e4;" horiz-adv-x="841" 
d="M321 858c-30 0 -59 27 -59 60s29 60 59 60s59 -27 59 -60s-29 -60 -59 -60zM521 858c-30 0 -59 27 -59 60s29 60 59 60s59 -27 59 -60s-29 -60 -59 -60zM191 783v-673l446 673h95v-783h-81v676l-447 -676h-95v783h82z" />
    <glyph glyph-name="uni04E6" unicode="&#x4e6;" horiz-adv-x="895" 
d="M349 858c-31 0 -59 27 -59 60s28 60 59 60c30 0 59 -27 59 -60s-29 -60 -59 -60zM549 858c-30 0 -59 27 -59 60s29 60 59 60s59 -27 59 -60s-29 -60 -59 -60zM841 394c0 223 -168 397 -392 397c-227 0 -395 -177 -395 -402c0 -223 168 -397 392 -397
c227 0 395 177 395 402zM756 389c0 -175 -127 -320 -307 -320c-182 0 -310 148 -310 325c0 175 127 320 307 320c182 0 310 -149 310 -325z" />
    <glyph glyph-name="uni04E8" unicode="&#x4e8;" horiz-adv-x="895" 
d="M446 -8c-224 0 -392 174 -392 397c0 225 168 402 395 402c224 0 392 -174 392 -397c0 -225 -168 -402 -395 -402zM446 715c-165 0 -287 -123 -305 -279h613c-21 155 -142 279 -308 279zM756 360h-616c14 -161 138 -292 309 -292c170 0 294 130 307 292z" />
    <glyph glyph-name="uni04EA" unicode="&#x4ea;" horiz-adv-x="895" 
d="M408 918c0 -33 -29 -60 -59 -60c-31 0 -59 27 -59 60s28 60 59 60c30 0 59 -27 59 -60zM608 918c0 -33 -29 -60 -59 -60s-59 27 -59 60s29 60 59 60s59 -27 59 -60zM446 -8c-224 0 -392 174 -392 397c0 225 168 402 395 402c224 0 392 -174 392 -397
c0 -225 -168 -402 -395 -402zM446 715c-165 0 -287 -123 -305 -279h613c-21 155 -142 279 -308 279zM756 360h-616c14 -161 138 -292 309 -292c170 0 294 130 307 292z" />
    <glyph glyph-name="uni04EC" unicode="&#x4ec;" horiz-adv-x="838" 
d="M309 858c-30 0 -59 27 -59 60s29 60 59 60s59 -27 59 -60s-29 -60 -59 -60zM509 858c-30 0 -59 27 -59 60s29 60 59 60s59 -27 59 -60s-29 -60 -59 -60zM394 791c215 0 389 -154 389 -398c0 -242 -175 -401 -391 -401c-192 0 -311 119 -353 241l73 34
c43 -118 137 -198 281 -198c164 0 289 119 303 291h-378v76h377c-20 171 -149 278 -301 278c-159 0 -245 -100 -281 -196l-73 33c40 120 166 240 354 240z" />
    <glyph glyph-name="uni04EE" unicode="&#x4ee;" horiz-adv-x="695" 
d="M528 955v-71h-337v71h337zM12 783h93l263 -494l241 494h91l-316 -637c-25 -51 -57 -92 -91 -117s-75 -38 -117 -38c-60 0 -110 19 -149 51l44 66c27 -21 56 -41 100 -41c40 0 67 14 93 40s45 62 62 98z" />
    <glyph glyph-name="uni04F0" unicode="&#x4f0;" horiz-adv-x="695" 
d="M271 858c-31 0 -60 27 -60 60s29 60 60 60c30 0 59 -27 59 -60s-29 -60 -59 -60zM471 858c-31 0 -59 27 -59 60s28 60 59 60c30 0 59 -27 59 -60s-29 -60 -59 -60zM12 783h93l263 -494l241 494h91l-316 -637c-25 -51 -57 -92 -91 -117s-75 -38 -117 -38
c-60 0 -110 19 -149 51l44 66c27 -21 56 -41 100 -41c40 0 67 14 93 40s45 62 62 98z" />
    <glyph glyph-name="uni04F2" unicode="&#x4f2;" horiz-adv-x="695" 
d="M234 855l108 172h95l-128 -172h-75zM407 855l108 172h94l-128 -172h-74zM12 783h93l263 -494l241 494h91l-316 -637c-25 -51 -57 -92 -91 -117s-75 -38 -117 -38c-60 0 -110 19 -149 51l44 66c27 -21 56 -41 100 -41c40 0 67 14 93 40s45 62 62 98z" />
    <glyph glyph-name="uni04F4" unicode="&#x4f4;" horiz-adv-x="737" 
d="M244 858c-30 0 -59 27 -59 60s29 60 59 60s59 -27 59 -60s-29 -60 -59 -60zM444 858c-30 0 -59 27 -59 60s29 60 59 60c31 0 59 -27 59 -60s-28 -60 -59 -60zM545 0v334c-63 -37 -169 -75 -237 -75c-119 0 -247 51 -247 225v299h81v-289c0 -83 49 -157 171 -157
c80 0 169 37 232 74v372h83v-783h-83z" />
    <glyph glyph-name="uni04F8" unicode="&#x4f8;" horiz-adv-x="937" 
d="M369 858c-31 0 -59 27 -59 60s28 60 59 60c30 0 59 -27 59 -60s-29 -60 -59 -60zM569 858c-30 0 -59 27 -59 60s29 60 59 60s59 -27 59 -60s-29 -60 -59 -60zM191 478h175c134 0 302 -49 302 -230c0 -139 -96 -248 -289 -248h-270v783h82v-305zM829 783h-82v-783h82v783z
M191 76h185c87 0 209 30 209 170c0 94 -73 156 -214 156h-180v-326z" />
    <glyph glyph-name="uni0414.alt" horiz-adv-x="855" 
d="M752 -164v164h-649v-164h-77v240h62l292 707h95l291 -707h64v-240h-78zM427 691l-252 -615h503z" />
    <glyph glyph-name="uni041B.alt" horiz-adv-x="732" 
d="M412 783l315 -783h-91l-270 690l-272 -690h-89l315 783h92z" />
    <glyph glyph-name="uni0430" unicode="&#x430;" horiz-adv-x="568" 
d="M410 308v36c0 86 -47 130 -136 130c-82 0 -127 -49 -153 -105l-64 36c37 85 111 138 219 138c113 0 169 -51 195 -110c12 -29 16 -71 16 -88v-345h-76v94h-1c-42 -66 -100 -103 -180 -103c-108 0 -179 67 -179 157v6c0 116 116 154 211 154h148zM410 244h-149
c-57 0 -132 -18 -132 -90c0 -60 51 -94 115 -94c95 0 166 67 166 165v19z" />
    <glyph glyph-name="uni0431" unicode="&#x431;" horiz-adv-x="656" 
d="M141 413h1c54 108 149 127 212 127c132 0 251 -101 251 -268c0 -171 -113 -281 -269 -281c-149 0 -266 96 -266 320c0 185 7 365 286 436l202 50l21 -65l-192 -50c-217 -57 -236 -152 -246 -269zM150 268c0 -123 76 -209 187 -209c112 0 190 87 190 209
c0 127 -82 205 -189 205c-109 0 -188 -77 -188 -205z" />
    <glyph glyph-name="uni0432" unicode="&#x432;" horiz-adv-x="604" 
d="M88 534h262c86 0 175 -37 175 -134c0 -73 -49 -105 -89 -123c60 -16 118 -52 118 -131c0 -105 -100 -146 -194 -146h-272v534zM166 303h172c40 0 109 14 109 89c0 62 -65 74 -107 74h-174v-163zM166 67h186c51 0 123 17 123 91c0 66 -68 82 -134 82h-175v-173z" />
    <glyph glyph-name="uni0433" unicode="&#x433;" horiz-adv-x="465" 
d="M88 0v534h358v-69h-280v-465h-78z" />
    <glyph glyph-name="uni0453" unicode="&#x453;" horiz-adv-x="465" 
d="M204 625l108 172h95l-128 -172h-75zM166 0v465h280v69h-358v-534h78z" />
    <glyph glyph-name="uni0491" unicode="&#x491;" horiz-adv-x="465" 
d="M166 465v-465h-78v534h282v144h76v-213h-280z" />
    <glyph glyph-name="uni0434" unicode="&#x434;" horiz-adv-x="653" 
d="M29 67h2c76 0 104 106 117 223l28 244h365v-465h62v-234h-75v165h-423v-165h-76v232zM245 465l-20 -181c-8 -68 -26 -174 -77 -215h315v396h-218z" />
    <glyph glyph-name="uni0435" unicode="&#x435;" horiz-adv-x="607" 
d="M560 243h-432c6 -104 87 -183 191 -183c78 0 139 46 169 107l58 -38c-46 -89 -132 -138 -226 -138c-155 0 -271 123 -271 277c0 145 110 275 260 275c165 0 252 -118 252 -274c0 -9 0 -18 -1 -26zM129 309h353c-10 97 -71 166 -173 166c-93 0 -167 -77 -180 -166z" />
    <glyph glyph-name="uni0451" unicode="&#x451;" horiz-adv-x="607" 
d="M213 624c-30 0 -59 26 -59 60c0 33 29 60 59 60s59 -27 59 -60c0 -34 -29 -60 -59 -60zM403 624c-30 0 -59 26 -59 60c0 33 29 60 59 60c31 0 59 -27 59 -60c0 -34 -28 -60 -59 -60zM560 243h-432c6 -104 87 -183 191 -183c78 0 139 46 169 107l58 -38
c-46 -89 -132 -138 -226 -138c-155 0 -271 123 -271 277c0 145 110 275 260 275c165 0 252 -118 252 -274c0 -9 0 -18 -1 -26zM129 309h353c-10 97 -71 166 -173 166c-93 0 -167 -77 -180 -166z" />
    <glyph glyph-name="uni0436" unicode="&#x436;" horiz-adv-x="817" 
d="M455 259h-8v-259h-77v259h-8l-243 -259h-106l261 275l-255 259h100l243 -246h8v246h77v-246h8l243 246h100l-255 -259l261 -275h-106z" />
    <glyph glyph-name="uni0437" unicode="&#x437;" horiz-adv-x="498" 
d="M248 -9c-93 0 -173 46 -211 131l65 34c24 -46 65 -96 147 -96c78 0 118 45 118 88c0 53 -36 90 -116 90h-77v67h75c73 0 109 34 109 85c0 41 -39 84 -110 84c-62 0 -111 -30 -145 -94l-64 33c40 86 120 130 209 130c108 0 188 -65 188 -147c0 -50 -24 -93 -84 -121v-1
c61 -21 94 -64 94 -127c0 -88 -83 -156 -198 -156z" />
    <glyph glyph-name="uni0438" unicode="&#x438;" horiz-adv-x="646" 
d="M166 534v-427l313 427h78v-534h-78v423l-312 -423h-79v534h78z" />
    <glyph glyph-name="uni0439" unicode="&#x439;" horiz-adv-x="646" 
d="M323 623c-84 0 -147 59 -162 143l55 10c15 -52 47 -90 107 -90s91 38 106 90l56 -10c-16 -84 -79 -143 -162 -143zM166 534v-427l312 427h79v-534h-78v423l-312 -423h-79v534h78z" />
    <glyph glyph-name="uni043A" unicode="&#x43a;" horiz-adv-x="554" 
d="M539 534l-293 -259l307 -275h-109l-272 249h-6v-249h-78v534h78v-235h6l259 235h108z" />
    <glyph glyph-name="uni045C" unicode="&#x45c;" horiz-adv-x="555" 
d="M248 625l108 172h95l-128 -172h-75zM88 0h79v249h5l272 -249h110l-308 275l293 259h-107l-260 -235h-5v235h-79v-534z" />
    <glyph glyph-name="uni043B" unicode="&#x43b;" horiz-adv-x="633" 
d="M240 465l-29 -257c-12 -102 -66 -217 -184 -211l-3 1v68c77 0 103 94 110 155l36 313h375v-534h-78v465h-227z" />
    <glyph glyph-name="uni043C" unicode="&#x43c;" horiz-adv-x="806" 
d="M88 534h115l200 -433l200 433h114v-534h-78v453h-1l-210 -453h-51l-210 451h-2v-451h-77v534z" />
    <glyph glyph-name="uni043D" unicode="&#x43d;" horiz-adv-x="639" 
d="M473 534h78v-534h-78v240h-307v-240h-78v534h78v-225h307v225z" />
    <glyph glyph-name="uni043E" unicode="&#x43e;" horiz-adv-x="650" 
d="M324 -9c-155 0 -275 122 -275 274c0 158 119 278 277 278c154 0 275 -121 275 -274c0 -158 -121 -278 -277 -278zM326 60c114 0 195 94 195 205c0 112 -81 210 -197 210s-195 -94 -195 -206s80 -209 197 -209z" />
    <glyph glyph-name="uni043F" unicode="&#x43f;" horiz-adv-x="634" 
d="M88 0v534h458v-534h-78v465h-302v-465h-78z" />
    <glyph glyph-name="uni0440" unicode="&#x440;" horiz-adv-x="673" 
d="M623 268c0 -144 -99 -276 -251 -276c-99 0 -163 50 -206 118v-373h-78v797h77v-116c43 67 106 125 207 125c152 0 251 -136 251 -275zM356 61c118 0 187 92 187 205c0 111 -69 208 -187 208c-110 0 -191 -98 -191 -205c0 -110 78 -208 191 -208z" />
    <glyph glyph-name="uni0441" unicode="&#x441;" horiz-adv-x="600" 
d="M129 270c0 -111 76 -210 193 -210c96 0 146 61 169 120l68 -30c-30 -84 -109 -159 -238 -159c-152 0 -272 116 -272 276c0 156 122 276 273 276c126 0 207 -73 235 -156l-68 -30c-21 58 -72 117 -167 117c-114 0 -193 -93 -193 -204z" />
    <glyph glyph-name="uni0442" unicode="&#x442;" horiz-adv-x="497" 
d="M288 0h-79v465h-189v69h458v-69h-190v-465z" />
    <glyph glyph-name="uni0443" unicode="&#x443;" horiz-adv-x="594" 
d="M126 -263l138 299l-243 498h90l196 -413l185 413h84l-366 -797h-84z" />
    <glyph glyph-name="uni045E" unicode="&#x45e;" horiz-adv-x="594" 
d="M299 623c-84 0 -147 59 -162 143l55 10c16 -52 47 -90 107 -90s91 38 106 90l56 -10c-16 -84 -79 -143 -162 -143zM126 -263l138 299l-243 498h90l196 -413l185 413h84l-366 -797h-84z" />
    <glyph glyph-name="uni0444" unicode="&#x444;" horiz-adv-x="879" 
d="M400 -244v289c-33 -28 -73 -53 -132 -53c-143 0 -215 124 -215 277c0 157 79 274 215 274c61 0 100 -28 132 -57v297h78v-297c32 29 70 57 131 57c139 0 217 -119 217 -276c0 -149 -72 -275 -217 -275c-62 0 -97 23 -131 53v-289h-78zM400 112v310c-29 31 -67 52 -115 52
c-114 0 -152 -98 -152 -209c0 -112 35 -205 152 -205c51 0 87 23 115 52zM478 422v-310c28 -29 65 -52 116 -52c116 0 152 95 152 207c0 111 -40 207 -152 207c-49 0 -87 -21 -116 -52z" />
    <glyph glyph-name="uni0445" unicode="&#x445;" horiz-adv-x="551" 
d="M524 534l-202 -262l211 -272h-93l-165 217l-166 -217h-90l210 271l-203 263h92l158 -207l158 207h90z" />
    <glyph glyph-name="uni0447" unicode="&#x447;" horiz-adv-x="568" 
d="M127 534v-192c0 -68 44 -102 109 -102c59 0 124 21 166 51v243h78v-534h-78v220c-38 -22 -113 -48 -176 -48c-99 0 -176 50 -176 159v203h77z" />
    <glyph glyph-name="uni0446" unicode="&#x446;" horiz-adv-x="654" 
d="M464 69v465h78v-465h62v-234h-75v165h-441v534h78v-465h298z" />
    <glyph glyph-name="uni0448" unicode="&#x448;" horiz-adv-x="919" 
d="M420 69v465h78v-465h254v465h79v-534h-743v534h78v-465h254z" />
    <glyph glyph-name="uni0449" unicode="&#x449;" horiz-adv-x="942" 
d="M420 69v465h78v-465h254v465h79v-465h63v-234h-76v165h-730v534h78v-465h254z" />
    <glyph glyph-name="uni045F" unicode="&#x45f;" horiz-adv-x="630" 
d="M166 69h298v465h78v-534h-189v-165h-76v165h-189v534h78v-465z" />
    <glyph glyph-name="uni044C" unicode="&#x44c;" horiz-adv-x="583" 
d="M166 339h169c109 0 215 -41 215 -162s-97 -177 -205 -177h-257v534h78v-195zM166 69h172c64 0 133 24 133 106c0 75 -70 97 -137 97h-168v-203z" />
    <glyph glyph-name="uni044A" unicode="&#x44a;" horiz-adv-x="672" 
d="M254 339h170c108 0 214 -41 214 -162s-96 -177 -204 -177h-257v465h-156v69h233v-195zM254 69h172c65 0 134 24 134 106c0 75 -71 97 -137 97h-169v-203z" />
    <glyph glyph-name="uni044B" unicode="&#x44b;" horiz-adv-x="839" 
d="M166 339h169c109 0 215 -41 215 -162s-97 -177 -205 -177h-257v534h78v-195zM750 534h-78v-534h78v534zM166 69h172c64 0 133 24 133 106c0 75 -70 97 -137 97h-168v-203z" />
    <glyph glyph-name="uni0459" unicode="&#x459;" horiz-adv-x="962" 
d="M545 339h170c108 0 214 -41 214 -162s-96 -177 -205 -177h-257v465h-227l-29 -257c-11 -102 -67 -217 -184 -211l-3 1v68c77 0 103 94 110 155l35 313h376v-195zM545 69h172c64 0 133 24 133 106c0 75 -70 97 -137 97h-168v-203z" />
    <glyph glyph-name="uni045A" unicode="&#x45a;" horiz-adv-x="967" 
d="M551 534v-200h171c108 0 212 -41 212 -160s-94 -174 -203 -174h-258v267h-307v-267h-78v534h78v-200h307v200h78zM551 69h173c65 0 132 24 132 104c0 74 -69 94 -135 94h-170v-198z" />
    <glyph glyph-name="uni0455" unicode="&#x455;" horiz-adv-x="493" 
d="M442 152c0 -93 -82 -161 -192 -161c-108 0 -172 55 -209 138l64 35c25 -53 64 -104 144 -104c58 0 114 31 114 87c0 47 -39 69 -134 91c-71 16 -109 32 -139 66c-19 22 -29 50 -29 80c0 97 96 159 186 159c106 0 160 -58 189 -124l-64 -35c-24 51 -58 90 -125 90
c-58 0 -108 -38 -108 -84c0 -44 26 -63 125 -84c65 -14 108 -33 140 -66c23 -23 38 -53 38 -88z" />
    <glyph glyph-name="uni0454" unicode="&#x454;" horiz-adv-x="601" 
d="M493 179l67 -29c-30 -84 -109 -159 -238 -159c-152 0 -272 116 -272 276c0 156 122 276 273 276c126 0 207 -73 235 -156l-67 -29c-21 58 -73 117 -168 117c-100 0 -175 -72 -191 -165h250v-68h-252c12 -99 86 -183 193 -183c96 0 147 61 170 120z" />
    <glyph glyph-name="uni044D" unicode="&#x44d;" horiz-adv-x="600" 
d="M282 543c160 0 269 -125 269 -273c0 -164 -120 -279 -272 -279c-129 0 -208 75 -238 159l67 29c26 -63 77 -120 173 -120c109 0 180 81 191 183h-253v68h251c-17 94 -88 165 -189 165c-94 0 -147 -59 -171 -117l-67 29c30 82 111 156 239 156z" />
    <glyph glyph-name="uni0456" unicode="&#x456;" horiz-adv-x="255" 
d="M69 725c0 33 26 59 58 59c33 0 59 -26 59 -59c0 -32 -26 -58 -59 -58c-32 0 -58 26 -58 58zM88 534h79v-534h-79v534z" />
    <glyph glyph-name="uni0457" unicode="&#x457;" horiz-adv-x="255" 
d="M35 624c-31 0 -59 26 -59 60c0 33 28 60 59 60c30 0 59 -27 59 -60c0 -34 -29 -60 -59 -60zM221 624c-31 0 -59 26 -59 60c0 33 28 60 59 60c30 0 59 -27 59 -60c0 -34 -29 -60 -59 -60zM88 534h79v-534h-79v534z" />
    <glyph glyph-name="uni0458" unicode="&#x458;" horiz-adv-x="263" 
d="M77 725c0 33 26 59 58 59c33 0 59 -26 59 -59c0 -32 -26 -58 -59 -58c-32 0 -58 26 -58 58zM174 534v-648c0 -99 -51 -153 -152 -153c-16 0 -34 4 -49 8v65c12 -3 26 -4 38 -4c55 0 85 31 85 86v646h78z" />
    <glyph glyph-name="uni045B" unicode="&#x45b;" horiz-adv-x="632" 
d="M473 0v311c0 95 -49 162 -148 162c-93 0 -159 -74 -159 -169v-304h-78v634h-67v69h67v111h78v-111h195v-69h-195v-196c42 70 104 106 183 106c131 0 202 -89 202 -214v-330h-78z" />
    <glyph glyph-name="uni044E" unicode="&#x44e;" horiz-adv-x="864" 
d="M547 543c154 0 267 -118 267 -277c0 -154 -114 -275 -268 -275c-142 0 -250 104 -264 244h-116v-235h-78v534h78v-233h117c15 138 122 242 264 242zM547 60c113 0 186 94 186 205c0 114 -74 211 -187 211c-115 0 -186 -100 -186 -210c0 -111 77 -206 187 -206z" />
    <glyph glyph-name="uni044F" unicode="&#x44f;" horiz-adv-x="586" 
d="M40 0l156 208c-77 18 -136 72 -136 160c0 79 55 166 201 166h237v-534h-78v194h-146l-140 -194h-94zM420 465h-155c-62 0 -128 -26 -128 -101c0 -53 39 -104 130 -104h153v205z" />
    <glyph glyph-name="uni0452" unicode="&#x452;" horiz-adv-x="616" 
d="M555 330v-401c0 -112 -61 -196 -187 -196c-20 0 -35 2 -50 8v67c16 -5 29 -6 40 -6c77 0 119 47 119 129v379c0 95 -50 163 -149 163c-93 0 -162 -76 -162 -171v-302h-78v634h-67v69h67v111h78v-111h195v-69h-195v-198c42 70 104 108 186 108c131 0 203 -90 203 -214z
" />
    <glyph glyph-name="uni0497" unicode="&#x497;" horiz-adv-x="831" 
d="M455 259h-8v-259h-77v259h-8l-243 -259h-106l261 275l-255 259h100l243 -246h8v246h77v-246h8l243 246h100l-255 -259l195 -206h66v-234h-75v165h-31z" />
    <glyph glyph-name="uni0499" unicode="&#x499;" horiz-adv-x="498" 
d="M446 147c0 -78 -65 -140 -159 -153v-159h-75v158c-77 11 -142 55 -175 129l65 34c24 -46 65 -96 147 -96c78 0 118 45 118 88c0 53 -36 90 -116 90h-77v67h75c73 0 109 34 109 85c0 41 -39 84 -110 84c-62 0 -111 -30 -145 -94l-64 33c40 86 120 130 209 130
c108 0 188 -65 188 -147c0 -50 -24 -93 -84 -121v-1c61 -21 94 -64 94 -127z" />
    <glyph glyph-name="uni049B" unicode="&#x49b;" horiz-adv-x="570" 
d="M172 249h-6v-249h-78v534h78v-235h6l259 235h108l-293 -259l230 -206h77v-234h-75v165h-34z" />
    <glyph glyph-name="uni04A3" unicode="&#x4a3;" horiz-adv-x="663" 
d="M473 240h-307v-240h-78v534h78v-225h307v225h78v-465h62v-234h-75v165h-65v240z" />
    <glyph glyph-name="uni04AB" unicode="&#x4ab;" horiz-adv-x="600" 
d="M491 180l68 -30c-27 -75 -93 -144 -200 -157v-158h-75v158c-134 17 -235 127 -235 274c0 156 122 276 273 276c126 0 207 -73 235 -156l-68 -30c-21 58 -72 117 -167 117c-114 0 -193 -93 -193 -204s76 -210 193 -210c96 0 146 61 169 120z" />
    <glyph glyph-name="uni04AD" unicode="&#x4ad;" horiz-adv-x="500" 
d="M288 465v-396h62v-234h-75v165h-66v465h-189v69h458v-69h-190z" />
    <glyph glyph-name="uni04B3" unicode="&#x4b3;" horiz-adv-x="564" 
d="M275 217l-166 -217h-90l210 271l-203 263h92l158 -207l158 207h90l-202 -262l157 -203h54v-234h-75v165h-18z" />
    <glyph glyph-name="uni04B7" unicode="&#x4b7;" horiz-adv-x="592" 
d="M402 0v220c-38 -22 -113 -48 -176 -48c-99 0 -176 50 -176 159v203h77v-192c0 -68 44 -102 109 -102c59 0 124 21 166 51v243h78v-465h62v-234h-75v165h-65z" />
    <glyph glyph-name="uni04CF" unicode="&#x4cf;" horiz-adv-x="255" 
d="M88 534h79v-534h-79v534z" />
    <glyph glyph-name="uni04C2" unicode="&#x4c2;" horiz-adv-x="817" 
d="M409 623c-84 0 -147 59 -162 143l55 10c15 -52 47 -90 107 -90s91 38 106 90l56 -10c-16 -84 -79 -143 -162 -143zM455 259h-8v-259h-77v259h-8l-243 -259h-106l261 275l-255 259h100l243 -246h8v246h77v-246h8l243 246h100l-255 -259l261 -275h-106z" />
    <glyph glyph-name="uni04D1" unicode="&#x4d1;" horiz-adv-x="568" 
d="M276 623c-83 0 -146 59 -162 143l56 10c15 -52 47 -90 106 -90c60 0 92 38 107 90l55 -10c-15 -84 -78 -143 -162 -143zM410 308v36c0 86 -47 130 -136 130c-82 0 -127 -49 -153 -105l-64 36c37 85 111 138 219 138c113 0 169 -51 195 -110c12 -29 16 -71 16 -88v-345
h-76v94h-1c-42 -66 -100 -103 -180 -103c-108 0 -179 67 -179 157v6c0 116 116 154 211 154h148zM410 244h-149c-57 0 -132 -18 -132 -90c0 -60 51 -94 115 -94c95 0 166 67 166 165v19z" />
    <glyph glyph-name="uni04D3" unicode="&#x4d3;" horiz-adv-x="568" 
d="M182 624c-30 0 -59 26 -59 60c0 33 29 60 59 60s59 -27 59 -60c0 -34 -29 -60 -59 -60zM373 624c-31 0 -60 26 -60 60c0 33 29 60 60 60c30 0 59 -27 59 -60c0 -34 -29 -60 -59 -60zM410 308v36c0 86 -47 130 -136 130c-82 0 -127 -49 -153 -105l-64 36
c37 85 111 138 219 138c113 0 169 -51 195 -110c12 -29 16 -71 16 -88v-345h-76v94h-1c-42 -66 -100 -103 -180 -103c-108 0 -179 67 -179 157v6c0 116 116 154 211 154h148zM410 244h-149c-57 0 -132 -18 -132 -90c0 -60 51 -94 115 -94c95 0 166 67 166 165v19z" />
    <glyph glyph-name="uni04D7" unicode="&#x4d7;" horiz-adv-x="607" 
d="M310 623c-83 0 -146 59 -162 143l56 10c15 -52 46 -90 106 -90s91 38 107 90l55 -10c-15 -84 -78 -143 -162 -143zM560 243h-432c6 -104 87 -183 191 -183c78 0 139 46 169 107l58 -38c-46 -89 -132 -138 -226 -138c-155 0 -271 123 -271 277c0 145 110 275 260 275
c165 0 252 -118 252 -274c0 -9 0 -18 -1 -26zM129 309h353c-10 97 -71 166 -173 166c-93 0 -167 -77 -180 -166z" />
    <glyph glyph-name="uni04DD" unicode="&#x4dd;" horiz-adv-x="817" 
d="M313 624c-30 0 -59 26 -59 60c0 33 29 60 59 60c31 0 60 -27 60 -60c0 -34 -29 -60 -60 -60zM504 624c-30 0 -59 26 -59 60c0 33 29 60 59 60s59 -27 59 -60c0 -34 -29 -60 -59 -60zM455 259h-8v-259h-77v259h-8l-243 -259h-106l261 275l-255 259h100l243 -246h8v246h77
v-246h8l243 246h100l-255 -259l261 -275h-106z" />
    <glyph glyph-name="uni04DF" unicode="&#x4df;" horiz-adv-x="517" 
d="M151 624c-30 0 -59 26 -59 60c0 33 29 60 59 60s59 -27 59 -60c0 -34 -29 -60 -59 -60zM342 624c-31 0 -60 26 -60 60c0 33 29 60 60 60c30 0 59 -27 59 -60c0 -34 -29 -60 -59 -60zM248 -9c-93 0 -173 46 -211 131l65 34c24 -46 65 -96 147 -96c78 0 118 45 118 88
c0 53 -36 90 -116 90h-77v67h75c73 0 109 34 109 85c0 41 -39 84 -110 84c-62 0 -111 -30 -145 -94l-64 33c40 86 120 130 209 130c108 0 188 -65 188 -147c0 -50 -24 -93 -84 -121v-1c61 -21 94 -64 94 -127c0 -88 -83 -156 -198 -156z" />
    <glyph glyph-name="uni04E3" unicode="&#x4e3;" horiz-adv-x="646" 
d="M491 710v-70h-337v70h337zM166 534v-427l313 427h78v-534h-78v423l-312 -423h-79v534h78z" />
    <glyph glyph-name="uni04E5" unicode="&#x4e5;" horiz-adv-x="646" 
d="M228 624c-31 0 -60 26 -60 60c0 33 29 60 60 60c30 0 59 -27 59 -60c0 -34 -29 -60 -59 -60zM418 624c-30 0 -59 26 -59 60c0 33 29 60 59 60s59 -27 59 -60c0 -34 -29 -60 -59 -60zM166 534v-427l313 427h78v-534h-78v423l-312 -423h-79v534h78z" />
    <glyph glyph-name="uni04E7" unicode="&#x4e7;" horiz-adv-x="650" 
d="M230 624c-30 0 -59 26 -59 60c0 33 29 60 59 60c31 0 60 -27 60 -60c0 -34 -29 -60 -60 -60zM421 624c-30 0 -59 26 -59 60c0 33 29 60 59 60s59 -27 59 -60c0 -34 -29 -60 -59 -60zM324 -9c-155 0 -275 122 -275 274c0 158 119 278 277 278c154 0 275 -121 275 -274
c0 -158 -121 -278 -277 -278zM326 60c114 0 195 94 195 205c0 112 -81 210 -197 210s-195 -94 -195 -206s80 -209 197 -209z" />
    <glyph glyph-name="uni04E9" unicode="&#x4e9;" horiz-adv-x="650" 
d="M324 -9c-155 0 -275 122 -275 274c0 158 119 278 277 278c154 0 275 -121 275 -274c0 -158 -121 -278 -277 -278zM324 476c-104 0 -179 -76 -194 -172h390c-17 95 -93 172 -196 172zM521 238h-392c14 -99 91 -179 197 -179c105 0 183 79 195 179z" />
    <glyph glyph-name="uni04EB" unicode="&#x4eb;" horiz-adv-x="650" 
d="M290 684c0 -34 -29 -60 -60 -60c-30 0 -59 26 -59 60c0 33 29 60 59 60c31 0 60 -27 60 -60zM480 684c0 -34 -29 -60 -59 -60s-59 26 -59 60c0 33 29 60 59 60s59 -27 59 -60zM324 -9c-155 0 -275 122 -275 274c0 158 119 278 277 278c154 0 275 -121 275 -274
c0 -158 -121 -278 -277 -278zM324 476c-104 0 -179 -76 -194 -172h390c-17 95 -93 172 -196 172zM521 238h-392c14 -99 91 -179 197 -179c105 0 183 79 195 179z" />
    <glyph glyph-name="uni04ED" unicode="&#x4ed;" horiz-adv-x="600" 
d="M194 624c-30 0 -59 26 -59 60c0 33 29 60 59 60s59 -27 59 -60c0 -34 -29 -60 -59 -60zM384 624c-30 0 -59 26 -59 60c0 33 29 60 59 60c31 0 60 -27 60 -60c0 -34 -29 -60 -60 -60zM282 543c160 0 269 -125 269 -273c0 -164 -120 -279 -272 -279
c-129 0 -208 75 -238 159l67 29c26 -63 77 -120 173 -120c109 0 180 81 191 183h-253v68h251c-17 94 -88 165 -189 165c-94 0 -147 -59 -171 -117l-67 29c30 82 111 156 239 156z" />
    <glyph glyph-name="uni04EF" unicode="&#x4ef;" horiz-adv-x="594" 
d="M468 710v-70h-337v70h337zM126 -263l138 299l-243 498h90l196 -413l185 413h84l-366 -797h-84z" />
    <glyph glyph-name="uni04F1" unicode="&#x4f1;" horiz-adv-x="594" 
d="M208 624c-31 0 -60 26 -60 60c0 33 29 60 60 60c30 0 59 -27 59 -60c0 -34 -29 -60 -59 -60zM398 624c-30 0 -59 26 -59 60c0 33 29 60 59 60s59 -27 59 -60c0 -34 -29 -60 -59 -60zM492 534l-185 -413l-196 413h-90l243 -498l-138 -299h84l366 797h-84z" />
    <glyph glyph-name="uni04F3" unicode="&#x4f3;" horiz-adv-x="594" 
d="M181 625l108 172h94l-128 -172h-74zM353 625l108 172h95l-129 -172h-74zM126 -263l138 299l-243 498h90l196 -413l185 413h84l-366 -797h-84z" />
    <glyph glyph-name="uni04F5" unicode="&#x4f5;" horiz-adv-x="568" 
d="M170 624c-30 0 -59 26 -59 60c0 33 29 60 59 60s59 -27 59 -60c0 -34 -29 -60 -59 -60zM360 624c-30 0 -59 26 -59 60c0 33 29 60 59 60c31 0 59 -27 59 -60c0 -34 -28 -60 -59 -60zM127 534v-192c0 -68 44 -102 109 -102c59 0 124 21 166 51v243h78v-534h-78v220
c-38 -22 -113 -48 -176 -48c-99 0 -176 50 -176 159v203h77z" />
    <glyph glyph-name="uni04F9" unicode="&#x4f9;" horiz-adv-x="839" 
d="M325 624c-31 0 -59 26 -59 60c0 33 28 60 59 60c30 0 59 -27 59 -60c0 -34 -29 -60 -59 -60zM515 624c-30 0 -59 26 -59 60c0 33 29 60 59 60s59 -27 59 -60c0 -34 -29 -60 -59 -60zM166 339h169c109 0 215 -41 215 -162s-97 -177 -205 -177h-257v534h78v-195zM750 534
h-78v-534h78v534zM166 69h172c64 0 133 24 133 106c0 75 -70 97 -137 97h-168v-203z" />
    <glyph glyph-name="uni0434.alt" horiz-adv-x="663" 
d="M80 68l210 466h85l208 -466h42v-233h-75v165h-436v-165h-76v233h42zM161 68h339l-168 383z" />
    <glyph glyph-name="uni0438.alt" horiz-adv-x="632" 
d="M159 534v-311c0 -95 49 -162 148 -162c93 0 159 73 159 168v305h77v-534h-76v98c-42 -73 -105 -108 -183 -108c-132 0 -202 89 -202 214v330h77z" />
    <glyph glyph-name="uni0439.alt" horiz-adv-x="632" 
d="M312 623c-83 0 -146 59 -162 143l56 10c15 -52 47 -90 106 -90c61 0 92 38 107 90l56 -10c-16 -84 -79 -143 -163 -143zM159 534v-311c0 -95 49 -162 148 -162c93 0 159 73 159 168v305h77v-534h-76v98c-42 -73 -105 -108 -183 -108c-132 0 -202 89 -202 214v330h77z" />
    <glyph glyph-name="uni043B.alt" horiz-adv-x="586" 
d="M562 0h-86l-184 447l-185 -447h-83l228 534h82z" />
    <glyph glyph-name="uni043F.alt" horiz-adv-x="632" 
d="M473 0v311c0 95 -49 162 -148 162c-93 0 -159 -74 -159 -169v-304h-78v534h77v-98c42 72 105 108 184 108c131 0 202 -89 202 -214v-330h-78z" />
    <glyph glyph-name="uni0446.alt" horiz-adv-x="657" 
d="M467 0v98c-42 -73 -105 -108 -184 -108c-131 0 -201 89 -201 214v330h77v-311c0 -95 49 -162 148 -162c92 0 159 73 159 168v305h77v-465h65v-234h-75v165h-66z" />
    <glyph glyph-name="uni0448.alt" horiz-adv-x="975" 
d="M522 534v-314c0 -88 42 -159 138 -159c94 0 149 82 149 168v305h77v-534h-76v92c-43 -64 -93 -102 -173 -102c-77 0 -138 37 -171 107c-44 -70 -103 -107 -187 -107c-130 0 -197 90 -197 214v330h77v-311c0 -89 41 -161 138 -161c95 0 149 76 149 165v307h76z" />
    <glyph glyph-name="uni0449.alt" horiz-adv-x="999" 
d="M810 0v92c-43 -64 -93 -102 -173 -102c-77 0 -138 37 -171 107c-44 -70 -103 -107 -187 -107c-130 0 -197 90 -197 214v330h77v-311c0 -89 41 -161 138 -161c95 0 149 76 149 165v307h76v-314c0 -88 42 -159 138 -159c94 0 149 82 149 168v305h77v-465h64v-234h-75v165
h-65z" />
    <glyph glyph-name="uni04D4" unicode="&#x4d4;" horiz-adv-x="1047" 
d="M948 436v-76h-373v-284h412l-1 -76h-492v200h-300l-113 -200h-90l450 783h541l1 -76h-408v-271h373zM494 709h-11l-247 -434h258v434z" />
    <glyph glyph-name="uni04D5" unicode="&#x4d5;" horiz-adv-x="967" 
d="M412 308v36c0 86 -48 130 -137 130c-82 0 -127 -49 -153 -105l-64 36c37 85 111 138 219 138c100 0 165 -46 189 -111c42 67 119 111 204 111c165 0 251 -118 251 -274c0 -9 -1 -18 -1 -26h-433c3 -101 87 -183 191 -183c78 0 139 46 169 107l58 -38
c-46 -89 -132 -138 -226 -138c-98 0 -179 50 -226 125c-48 -83 -123 -125 -216 -125h-3c-110 0 -183 67 -183 157v6c0 116 116 154 211 154h150zM487 309h355c-8 97 -71 166 -173 166c-93 0 -172 -79 -182 -166zM412 244h-151c-57 0 -132 -18 -132 -90c0 -60 52 -94 116 -94
c95 0 167 67 167 165v19z" />
    <glyph glyph-name="Theta" unicode="&#x398;" horiz-adv-x="895" 
d="M841 394c0 -225 -168 -402 -395 -402c-224 0 -392 174 -392 397c0 225 168 402 395 402c224 0 392 -174 392 -397zM756 389c0 176 -128 325 -310 325c-180 0 -307 -145 -307 -320c0 -177 128 -325 310 -325c180 0 307 145 307 320zM668 360v76h-441v-76h441z" />
    <glyph glyph-name="uni03A9" unicode="&#x3a9;" horiz-adv-x="872" 
d="M494 0v163c147 17 235 157 235 272c0 152 -127 279 -292 279c-167 0 -293 -124 -293 -279c0 -119 87 -255 234 -272v-163h-312v72h240v41c-196 72 -245 225 -245 324c0 203 170 351 376 351s374 -147 374 -351c0 -99 -49 -252 -245 -324v-41h241v-72h-313z" />
    <glyph glyph-name="theta" unicode="&#x3b8;" horiz-adv-x="725" 
d="M361 -9c-212 0 -306 209 -306 410c0 203 96 416 310 416c212 0 306 -210 306 -411c0 -202 -96 -415 -310 -415zM362 749c-160 0 -218 -167 -226 -308h454c-9 141 -69 308 -228 308zM591 372h-455c8 -142 66 -312 227 -312c162 0 221 170 228 312z" />
    <glyph glyph-name="pi" unicode="&#x3c0;" horiz-adv-x="697" 
d="M515 463v-323c0 -48 28 -75 86 -75c18 0 36 1 48 4v-65c-15 -5 -46 -8 -61 -8c-115 0 -151 64 -151 142v325h-202v-463h-78v463h-140v71h632v-71h-134z" />
    <glyph glyph-name="zero.slash" horiz-adv-x="767" 
d="M385 791c215 0 324 -204 324 -398s-110 -400 -327 -400c-215 0 -324 202 -324 396s110 402 327 402zM383 715c-169 0 -240 -181 -240 -322c0 -67 15 -143 50 -206l330 474c-36 33 -82 54 -140 54zM384 69c169 0 241 180 241 320c0 67 -16 145 -52 207l-329 -473
c36 -33 82 -54 140 -54z" />
    <glyph glyph-name="fraction" unicode="&#x2044;" horiz-adv-x="610" 
d="M11 0l510 783h80l-511 -783h-79z" />
    <glyph glyph-name="uni2153" unicode="&#x2153;" horiz-adv-x="906" 
d="M67 653l-30 52l131 78h63v-456h-70v381zM171 0l510 783h-79l-511 -783h80zM684 -11c-77 0 -144 43 -167 117l60 26c20 -47 49 -79 107 -79c60 0 98 32 98 72c0 44 -29 74 -96 74h-56v60h52c65 0 91 28 91 70c0 34 -30 69 -90 69c-54 0 -84 -31 -103 -78l-60 26
c22 73 88 116 164 116c94 0 158 -60 158 -128c0 -42 -18 -79 -67 -102c50 -18 75 -57 75 -109c0 -71 -68 -134 -166 -134z" />
    <glyph glyph-name="uni2154" unicode="&#x2154;" horiz-adv-x="1039" 
d="M379 327h-328v63l170 137c53 43 86 79 86 121s-35 79 -88 79c-52 0 -83 -33 -101 -80l-62 26c22 74 85 119 164 119c95 0 157 -65 157 -142c0 -67 -38 -108 -106 -163l-122 -97h230v-63zM812 783l-510 -783h-79l510 783h79zM906 232c50 -18 75 -57 75 -109
c0 -71 -68 -134 -166 -134c-77 0 -144 43 -167 117l60 26c20 -47 49 -79 107 -79c60 0 98 32 98 72c0 44 -29 74 -96 74h-56v60h52c65 0 91 28 91 70c0 34 -30 69 -90 69c-54 0 -84 -31 -103 -78l-60 26c22 73 88 116 164 116c94 0 158 -60 158 -128c0 -42 -18 -79 -67 -102
z" />
    <glyph glyph-name="oneeighth" unicode="&#x215b;" horiz-adv-x="855" 
d="M161 327v381l-94 -55l-30 52l131 78h63v-456h-70zM602 783l-511 -783h80l510 783h-79zM807 123c0 55 -42 94 -91 109c43 17 79 55 79 103c0 87 -84 130 -160 130c-75 0 -161 -46 -161 -130c0 -50 34 -86 80 -103c-49 -16 -93 -55 -93 -109c0 -91 94 -133 173 -133
c77 0 173 45 173 133zM727 332c0 -49 -50 -73 -92 -73c-43 0 -93 25 -93 73s50 72 92 72s93 -25 93 -72zM738 126c0 -52 -60 -74 -104 -74c-43 0 -103 22 -103 74s59 75 103 75c43 0 104 -24 104 -75z" />
    <glyph glyph-name="threeeighths" unicode="&#x215c;" horiz-adv-x="1005" 
d="M210 319c-77 0 -144 43 -167 117l60 26c20 -47 49 -79 107 -79c60 0 98 32 98 72c0 44 -29 74 -96 74h-56v60h52c65 0 91 28 91 70c0 34 -30 69 -90 69c-54 0 -84 -31 -103 -78l-60 26c22 73 88 116 164 116c94 0 158 -60 158 -128c0 -42 -18 -79 -67 -102
c50 -18 75 -57 75 -109c0 -71 -68 -134 -166 -134zM794 783l-510 -783h-80l511 783h79zM960 123c0 -88 -96 -133 -173 -133c-79 0 -172 42 -172 133c0 54 43 93 91 109c-45 17 -80 53 -80 103c0 84 87 130 162 130c76 0 160 -43 160 -130c0 -48 -36 -86 -79 -103
c49 -15 91 -54 91 -109zM879 332c0 47 -50 72 -92 72s-92 -24 -92 -72s50 -73 93 -73c42 0 91 24 91 73zM891 126c0 51 -62 75 -104 75c-43 0 -103 -23 -103 -75s60 -74 104 -74c43 0 103 22 103 74z" />
    <glyph glyph-name="fiveeighths" unicode="&#x215d;" horiz-adv-x="983" 
d="M146 720l-19 -129c31 22 58 31 91 31c88 0 152 -58 152 -146c0 -96 -78 -157 -166 -157c-78 0 -142 45 -165 114l59 28c21 -51 53 -78 106 -78c62 0 98 41 98 92c0 48 -32 87 -96 87c-33 0 -64 -14 -88 -39l-59 24l34 236h259v-63h-206zM772 783l-510 -783h-80l511 783
h79zM938 123c0 -88 -96 -133 -173 -133c-79 0 -172 42 -172 133c0 54 43 93 91 109c-46 17 -80 53 -80 103c0 84 87 130 161 130c77 0 162 -43 162 -130c0 -48 -37 -86 -81 -103c50 -15 92 -54 92 -109zM858 332c0 47 -51 72 -93 72c-43 0 -92 -24 -92 -72s50 -73 92 -73
c43 0 93 24 93 73zM868 126c0 51 -60 75 -103 75c-44 0 -103 -23 -103 -75s60 -74 103 -74c44 0 103 22 103 74z" />
    <glyph glyph-name="seveneighths" unicode="&#x215e;" horiz-adv-x="883" 
d="M290 719h-249v64h325v-66l-194 -389h-79zM83 0l510 783h79l-510 -783h-79zM838 123c0 -88 -96 -133 -172 -133c-79 0 -173 42 -173 133c0 54 44 93 92 109c-46 17 -80 53 -80 103c0 84 87 130 161 130c77 0 161 -43 161 -130c0 -48 -36 -86 -80 -103
c49 -15 91 -54 91 -109zM758 332c0 47 -50 72 -92 72c-43 0 -92 -24 -92 -72s50 -73 92 -73s92 24 92 73zM770 126c0 51 -62 75 -104 75c-44 0 -104 -23 -104 -75s61 -74 104 -74s104 22 104 74z" />
    <glyph glyph-name="uni203D" unicode="&#x203d;" horiz-adv-x="513" 
d="M258 716c-75 0 -124 -41 -153 -113l-70 39c39 101 123 150 223 150c125 0 213 -84 213 -197c0 -95 -56 -147 -123 -206c-56 -49 -81 -80 -81 -145v-49h-71l-6 406h83l-5 -198c48 66 120 100 120 191c0 66 -46 122 -130 122zM170 50c0 32 27 58 59 58c33 0 58 -26 58 -58
c0 -33 -25 -59 -58 -59c-32 0 -59 26 -59 59z" />
    <glyph glyph-name="uni2042" unicode="&#x2042;" horiz-adv-x="916" 
d="M430 625v158h56v-158l147 48l18 -52l-146 -49l89 -124l-44 -33l-92 125l-92 -125l-44 33l89 124l-146 49l18 52zM659 196v158h56v-158l147 48l18 -53l-145 -48l89 -124l-45 -34l-92 126l-91 -126l-45 34l90 124l-146 49l17 52zM200 195v158h56v-158l147 48l18 -52
l-145 -49l89 -124l-45 -34l-92 126l-91 -126l-45 34l90 124l-146 49l17 52z" />
    <glyph glyph-name="uni2051" unicode="&#x2051;" horiz-adv-x="503" 
d="M223 625v158h56v-158l147 48l18 -52l-145 -49l89 -124l-45 -33l-92 125l-91 -125l-45 33l90 124l-146 49l17 52zM223 195v158h56v-158l147 48l18 -52l-145 -49l89 -124l-45 -34l-92 126l-91 -126l-45 34l90 124l-146 49l17 52z" />
    <glyph glyph-name="uni2E18" unicode="&#x2e18;" horiz-adv-x="513" 
d="M343 485c0 -32 -27 -58 -59 -58c-33 0 -58 26 -58 58c0 33 25 59 58 59c32 0 59 -26 59 -59zM255 -181c75 0 124 41 153 113l70 -39c-39 -101 -123 -150 -223 -150c-125 0 -213 84 -213 197c0 95 56 147 123 206c56 49 81 80 81 145v49h71l6 -406h-83l5 198
c-48 -66 -120 -100 -120 -191c0 -66 46 -122 130 -122z" />
    <glyph glyph-name="colon.case" horiz-adv-x="314" 
d="M85 595c0 40 33 72 72 72c40 0 72 -32 72 -72c0 -39 -32 -72 -72 -72c-39 0 -72 33 -72 72zM85 188c0 40 33 72 72 72c40 0 72 -32 72 -72s-32 -72 -72 -72c-39 0 -72 32 -72 72z" />
    <glyph glyph-name="exclamdown.case" horiz-adv-x="296" 
d="M90 725c0 32 26 58 58 58c33 0 59 -26 59 -58c0 -33 -26 -59 -59 -59c-32 0 -58 26 -58 59zM107 -9v138l5 447h73l4 -447v-138h-82z" />
    <glyph glyph-name="uni2E18.case" horiz-adv-x="513" 
d="M343 733c0 -32 -27 -58 -59 -58c-33 0 -58 26 -58 58c0 33 25 59 58 59c32 0 59 -26 59 -59zM255 67c75 0 124 41 153 113l70 -39c-39 -101 -123 -150 -223 -150c-125 0 -213 84 -213 197c0 95 56 147 123 206c56 49 81 80 81 145v49h71l6 -406h-83l5 198
c-48 -66 -120 -100 -120 -191c0 -66 46 -122 130 -122z" />
    <glyph glyph-name="questiondown.case" horiz-adv-x="511" 
d="M343 733c0 -32 -27 -58 -59 -58c-33 0 -58 26 -58 58c0 33 25 59 58 59c32 0 59 -26 59 -59zM255 68c75 0 124 42 150 115l72 -37c-36 -102 -122 -155 -222 -155c-125 0 -213 84 -213 197c0 46 12 78 29 107c20 33 51 63 94 99c58 48 81 77 81 142v40h77v-49
c0 -72 -28 -123 -90 -177l-28 -24c-62 -55 -79 -85 -79 -137c0 -65 45 -121 129 -121z" />
    <glyph glyph-name="semicolon.case" horiz-adv-x="318" 
d="M87 595c0 40 32 72 72 72c39 0 72 -32 72 -72c0 -39 -33 -72 -72 -72c-40 0 -72 33 -72 72zM129 -28l-39 36c45 34 80 74 87 120c-7 -3 -16 -5 -24 -5c-38 0 -66 26 -66 66c0 41 32 71 70 71c46 0 79 -38 79 -98v-4c0 -70 -37 -136 -107 -186z" />
    <glyph glyph-name="braceleft.case" horiz-adv-x="434" 
d="M30 357v69c72 2 146 28 131 135l-16 112c-24 168 58 210 209 210h39v-67h-32c-149 0 -153 -51 -136 -163l14 -92c7 -44 0 -149 -112 -169v-1c112 -20 120 -113 112 -163l-14 -97c-17 -112 -13 -163 136 -163h32v-68h-39c-151 0 -233 43 -209 210l16 113
c15 107 -59 133 -131 134z" />
    <glyph glyph-name="braceright.case" horiz-adv-x="434" 
d="M404 426v-69c-72 -1 -146 -27 -131 -134l17 -113c23 -167 -59 -210 -209 -210h-40v68h32c149 0 154 51 136 163l-14 97c-8 50 0 143 113 163v1c-113 20 -119 125 -112 169l13 92c17 112 13 163 -136 163h-32v67h40c150 0 232 -42 209 -210l-17 -112
c-15 -107 59 -133 131 -135z" />
    <glyph glyph-name="bracketleft.case" horiz-adv-x="423" 
d="M109 883h274v-67h-197v-848h197v-68h-274v983z" />
    <glyph glyph-name="bracketright.case" horiz-adv-x="423" 
d="M40 -32h197v848h-197v67h274v-983h-274v68z" />
    <glyph glyph-name="parenleft.case" horiz-adv-x="401" 
d="M55 379v25c0 208 107 384 285 488l34 -51c-162 -103 -238 -246 -238 -437v-25c0 -191 75 -332 237 -435l-33 -53c-178 105 -285 280 -285 488z" />
    <glyph glyph-name="parenright.case" horiz-adv-x="401" 
d="M346 404v-25c0 -208 -106 -383 -285 -488l-33 53c161 103 237 244 237 435v25c0 191 -77 334 -238 437l34 51c179 -104 285 -280 285 -488z" />
    <glyph glyph-name="emdash.case" horiz-adv-x="1034" 
d="M81 422h872v-78h-872v78z" />
    <glyph glyph-name="endash.case" horiz-adv-x="621" 
d="M81 422h459v-78h-459v78z" />
    <glyph glyph-name="hyphen.case" horiz-adv-x="442" 
d="M78 426h286v-83h-286v83z" />
    <glyph glyph-name="guillemotleft.case" horiz-adv-x="576" 
d="M154 390l127 -132l-48 -47l-180 177l180 181l48 -48zM374 390l127 -132l-47 -47l-181 177l181 181l47 -48z" />
    <glyph glyph-name="guillemotright.case" horiz-adv-x="576" 
d="M75 521l48 48l180 -181l-180 -177l-48 47l127 132zM295 521l48 48l180 -181l-180 -177l-48 47l127 132z" />
    <glyph glyph-name="guilsinglleft.case" horiz-adv-x="356" 
d="M153 390l128 -132l-48 -47l-180 177l180 181l48 -48z" />
    <glyph glyph-name="guilsinglright.case" horiz-adv-x="356" 
d="M75 521l48 48l180 -181l-180 -177l-48 47l128 132z" />
    <glyph glyph-name="dong" unicode="&#x20ab;" horiz-adv-x="701" 
d="M505 0v114c-41 -68 -105 -122 -208 -122c-153 0 -250 130 -250 276c0 139 99 275 250 275c103 0 164 -58 207 -121v212h-185v69h185v111h78v-111h62v-69h-62v-634h-77zM313 61c113 0 192 98 192 208c0 106 -81 205 -192 205c-117 0 -187 -93 -187 -208
c0 -110 70 -205 187 -205zM72 -116h509v-69h-509v69z" />
    <glyph glyph-name="lira" unicode="&#x20a4;" horiz-adv-x="648" 
d="M548 145l57 -40c-29 -71 -100 -116 -174 -116c-91 0 -121 48 -198 48c-39 0 -79 -13 -129 -39l-44 78c89 53 144 113 149 194h-146v67h134c-4 10 -8 19 -13 29s-9 21 -15 32c-7 12 -14 24 -21 37h-85v67h54c-7 21 -11 42 -11 64c0 115 102 225 244 225
c140 0 208 -83 232 -160l-72 -34c-22 66 -71 118 -159 118c-78 0 -160 -55 -160 -153c0 -20 6 -40 14 -60h265v-67h-230c8 -13 15 -26 22 -40c4 -7 6 -14 10 -21c5 -12 10 -24 14 -37h184v-67h-178c-5 -61 -38 -122 -107 -170v-1c20 8 43 13 64 13c71 0 122 -46 184 -46
c54 0 93 37 115 79z" />
    <glyph glyph-name="uni0E3F" unicode="&#xe3f;" horiz-adv-x="734" 
d="M523 407c116 -30 154 -132 154 -192c0 -151 -129 -215 -277 -215h-2v-102h-68v102h-221v783h221v108h68v-108c139 -2 244 -71 244 -197c0 -35 -9 -130 -119 -179zM190 435h140v273h-140v-273zM559 577c0 91 -75 128 -162 131v-272c116 6 162 68 162 141zM190 75h140v287
h-140v-287zM397 75h5c85 0 191 34 191 146c0 107 -107 138 -196 141v-287z" />
    <glyph glyph-name="uni20A9" unicode="&#x20a9;" horiz-adv-x="1182" 
d="M380 0h-90l-115 367h-120v57h102l-112 359h86l111 -359h191l112 359h93l112 -359h193l111 359h83l-113 -359h102v-57h-120l-115 -367h-92l-114 367h-190zM513 424h154l-77 248zM416 367h-156l76 -248h2zM925 367h-157l78 -252h2z" />
    <glyph glyph-name="uni20AE" unicode="&#x20ae;" horiz-adv-x="696" 
d="M394 235v-235h-82v204l-221 -84v74l221 84v102l-221 -84v74l221 84v252h-262v77h606v-77h-262v-221l221 84v-74l-221 -83v-103l221 84v-74z" />
    <glyph glyph-name="uni20B1" unicode="&#x20b1;" horiz-adv-x="784" 
d="M748 510h-81c-18 -115 -114 -204 -286 -204h-156v-306h-82v510h-89v69h89v204h252c174 0 260 -95 272 -204h81v-69zM225 578h358c-12 66 -63 128 -195 128h-163v-128zM225 382h159c124 0 183 62 198 129h-357v-129z" />
    <glyph glyph-name="uni20B4" unicode="&#x20b4;" horiz-adv-x="723" 
d="M63 517h454c10 18 16 39 16 65c0 39 -14 71 -39 93c-34 29 -84 40 -131 40c-75 0 -155 -48 -187 -117l-70 38c46 95 153 155 257 155c72 0 145 -19 193 -63c37 -34 60 -84 60 -145c0 -24 -4 -46 -12 -66h54v-69h-595v69zM658 282h-449c-17 -20 -27 -45 -27 -77
c0 -100 98 -136 182 -136c76 0 161 49 194 118l70 -38c-44 -101 -161 -156 -267 -156c-132 0 -262 61 -262 210c0 30 6 56 18 79h-54v68h595v-68z" />
    <glyph glyph-name="uni20B8" unicode="&#x20b8;" horiz-adv-x="702" 
d="M654 783v-77h-606v77h606zM654 609h-606v-78h262v-531h83v531h261v78z" />
    <glyph glyph-name="uni20B9" unicode="&#x20b9;" horiz-adv-x="687" 
d="M643 714h-201c60 -33 78 -81 84 -131h117v-68h-118c-14 -95 -88 -180 -199 -196l191 -319h-98l-187 317h-167v78h208c87 0 146 43 166 120h-374v68h375c-17 77 -71 122 -157 122h-218v78h578v-69z" />
    <glyph glyph-name="uni20BA" unicode="&#x20ba;" horiz-adv-x="697" 
d="M580 336l80 -8c-24 -179 -146 -328 -416 -328h-70v287l-110 -57v78l110 56v107l-110 -56v77l110 57v234h81v-192l240 124v-77l-240 -124v-107l240 124v-78l-240 -124v-253c236 6 301 127 325 260z" />
    <glyph glyph-name="uni20BD" unicode="&#x20bd;" horiz-adv-x="722" 
d="M61 140v68h96v99h-96v71h96v405h252c190 0 275 -113 275 -235c0 -133 -99 -242 -288 -242h-157v-98h235v-68h-235v-140h-82v140h-96zM239 382h159c144 0 202 84 202 163c0 77 -44 161 -198 161h-163v-324z" />
    <glyph glyph-name="cent.alt" horiz-adv-x="600" 
d="M491 180l68 -30c-27 -76 -95 -145 -204 -157v-95h-75v96c-132 19 -231 128 -231 273c0 141 100 253 231 273v97h75v-96c107 -11 177 -78 202 -154l-68 -30c-21 58 -72 117 -167 117c-114 0 -193 -93 -193 -204s76 -210 193 -210c96 0 146 61 169 120z" />
    <glyph glyph-name="dollar.alt" horiz-adv-x="628" 
d="M572 211c0 -105 -79 -201 -213 -217v-97h-79v97c-115 13 -191 82 -231 189l71 37c37 -91 93 -151 200 -151c92 0 168 54 168 136s-66 128 -182 156c-161 39 -234 108 -234 217c0 121 94 198 208 212v94h79v-94c106 -14 175 -78 206 -161l-70 -39c-26 65 -75 125 -179 125
c-84 0 -162 -51 -162 -133c0 -71 49 -110 167 -140c84 -21 154 -52 197 -99c33 -36 54 -80 54 -132z" />
    <glyph glyph-name="approxequal" unicode="&#x2248;" horiz-adv-x="632" 
d="M511 503l45 -44c-28 -46 -76 -76 -130 -76c-87 0 -155 89 -224 89c-35 0 -57 -20 -79 -44l-46 44c29 44 76 74 130 74c96 0 158 -88 224 -88c35 0 58 21 80 45zM426 194c-87 0 -155 89 -224 89c-35 0 -57 -19 -79 -44l-46 45c29 44 76 74 130 74c96 0 158 -88 224 -88
c35 0 58 21 80 45l45 -44c-28 -46 -76 -77 -130 -77z" />
    <glyph glyph-name="greaterequal" unicode="&#x2265;" horiz-adv-x="671" 
d="M521 375l-436 172v78l519 -210v-81l-519 -211v80zM85 72h519v-72h-519v72z" />
    <glyph glyph-name="infinity" unicode="&#x221e;" horiz-adv-x="1003" 
d="M737 175c-63 0 -122 40 -173 87c-17 16 -31 31 -62 61c-34 -32 -49 -49 -66 -65c-55 -51 -110 -83 -182 -83c-112 0 -195 85 -195 202c0 118 92 205 206 205c67 0 129 -45 179 -93c17 -16 33 -32 58 -58c34 33 50 50 68 67c55 51 107 84 179 84c114 0 195 -87 195 -205
s-93 -202 -207 -202zM455 376l-48 49c-34 36 -84 82 -145 82c-73 0 -126 -59 -126 -130s53 -127 126 -127c59 0 108 42 144 77c12 12 22 23 49 49zM740 507c-60 0 -106 -43 -143 -79c-13 -13 -22 -24 -48 -51c27 -26 36 -36 48 -48c36 -36 83 -79 143 -79
c72 0 128 57 128 127c0 68 -53 130 -128 130z" />
    <glyph glyph-name="integral" unicode="&#x222b;" horiz-adv-x="387" 
d="M155 -38v595c0 141 75 234 221 234v-71c-99 -5 -143 -63 -143 -158v-593c0 -141 -75 -234 -221 -234v71c99 4 143 61 143 156z" />
    <glyph glyph-name="lessequal" unicode="&#x2264;" horiz-adv-x="671" 
d="M586 625v-78l-436 -172l436 -172v-80l-518 211v81zM68 72h518v-72h-518v72z" />
    <glyph glyph-name="minus" unicode="&#x2212;" horiz-adv-x="631" 
d="M78 417h475v-77h-475v77z" />
    <glyph glyph-name="notequal" unicode="&#x2260;" horiz-adv-x="619" 
d="M79 226v76h151l82 150h-233v77h273l67 123l60 -29l-52 -94h113v-77h-153l-81 -150h234v-76h-276l-56 -106l-59 31l40 75h-110z" />
    <glyph glyph-name="partialdiff" unicode="&#x2202;" horiz-adv-x="659" 
d="M304 -8c-146 0 -254 114 -254 260c0 141 115 251 272 251c41 0 121 -10 196 -78c-25 199 -101 291 -255 291c-41 0 -97 -11 -146 -32l-31 69c58 25 125 39 180 39c227 0 333 -172 333 -420c0 -209 -95 -380 -295 -380zM326 427c-86 0 -193 -48 -193 -175
c0 -111 84 -183 175 -183c150 0 209 155 209 270c-71 75 -147 88 -191 88z" />
    <glyph glyph-name="product" unicode="&#x220f;" horiz-adv-x="691" 
d="M653 783v-79h-127v-704h-82v704h-197v-704h-82v704h-127v79h615z" />
    <glyph glyph-name="radical" unicode="&#x221a;" horiz-adv-x="745" 
d="M20 615h178l182 -514l278 857h73l-313 -958h-84l-197 545h-117v70z" />
    <glyph glyph-name="summation" unicode="&#x2211;" horiz-adv-x="621" 
d="M563 705h-396l293 -307l-306 -319h410v-79h-519v79l307 319l-294 309v76h505v-78z" />
    <glyph glyph-name="uni2206" unicode="&#x2206;" horiz-adv-x="837" 
d="M372 783h93l338 -783h-769zM417 697l-266 -621h532z" />
    <glyph glyph-name="uni2236" unicode="&#x2236;" horiz-adv-x="307" 
d="M82 558c0 39 32 71 71 71c40 0 72 -32 72 -71c0 -40 -32 -72 -72 -72c-39 0 -71 32 -71 72zM82 150c0 40 32 72 71 72c40 0 72 -32 72 -72c0 -39 -32 -71 -72 -71c-39 0 -71 32 -71 71z" />
    <glyph glyph-name="arrowup" unicode="&#x2191;" horiz-adv-x="664" 
d="M323 669h18l304 -290l-46 -48l-229 219v-490h-76v490l-229 -219l-46 48z" />
    <glyph glyph-name="uni2197" unicode="&#x2197;" horiz-adv-x="664" 
d="M526 586l13 -13l9 -420l-67 -2l-6 317l-347 -346l-54 53l347 347l-317 6l1 67z" />
    <glyph glyph-name="arrowright" unicode="&#x2192;" horiz-adv-x="664" 
d="M644 374v-20l-290 -303l-49 47l220 228h-491v76h491l-220 228l49 47z" />
    <glyph glyph-name="uni2198" unicode="&#x2198;" horiz-adv-x="664" 
d="M540 144l-13 -14l-421 -8l-1 66l317 6l-347 348l54 53l347 -346l6 316l67 -1z" />
    <glyph glyph-name="arrowdown" unicode="&#x2193;" horiz-adv-x="664" 
d="M341 60h-19l-303 290l46 49l228 -220v490h77v-490l228 220l47 -49z" />
    <glyph glyph-name="uni2199" unicode="&#x2199;" horiz-adv-x="664" 
d="M137 130l-14 14l-9 420l67 1l6 -316l347 346l54 -53l-347 -348l317 -6l-1 -66z" />
    <glyph glyph-name="arrowleft" unicode="&#x2190;" horiz-adv-x="664" 
d="M20 354v20l290 303l48 -47l-219 -228h490v-76h-490l219 -228l-48 -47z" />
    <glyph glyph-name="uni2196" unicode="&#x2196;" horiz-adv-x="664" 
d="M124 573l14 13l420 9l1 -67l-317 -6l347 -347l-54 -53l-347 346l-6 -317l-67 2z" />
    <glyph glyph-name="uni21A9" unicode="&#x21a9;" horiz-adv-x="1078" 
d="M151 241h552c142 0 248 92 248 232c0 144 -100 231 -251 231h-185v74h193c196 0 322 -130 322 -305c0 -176 -125 -308 -322 -308h-557l220 -228l-48 -47l-291 304v18l291 304l48 -46z" />
    <glyph glyph-name="uni21B0" unicode="&#x21b0;" horiz-adv-x="774" 
d="M631 0v292c0 141 -85 190 -227 190h-251l220 -228l-49 -46l-291 303v19l291 303l49 -46l-221 -228h264c197 0 295 -87 295 -263v-296h-80z" />
    <glyph glyph-name="uni21B1" unicode="&#x21b1;" horiz-adv-x="774" 
d="M63 0v296c0 176 98 263 295 263h264l-221 228l49 46l291 -303v-19l-291 -303l-49 46l220 228h-251c-142 0 -227 -49 -227 -190v-292h-80z" />
    <glyph glyph-name="uni21B2" unicode="&#x21b2;" horiz-adv-x="773" 
d="M710 783v-296c0 -175 -97 -262 -295 -262h-263l220 -229l-48 -46l-291 303v19l291 304l48 -47l-220 -228h252c142 0 227 50 227 190v292h79z" />
    <glyph glyph-name="uni21B3" unicode="&#x21b3;" horiz-adv-x="773" 
d="M143 783v-292c0 -140 85 -190 226 -190h252l-220 228l49 47l290 -304v-19l-290 -303l-49 46l220 229h-263c-198 0 -295 87 -295 262v296h80z" />
    <glyph glyph-name="uni21B4" unicode="&#x21b4;" horiz-adv-x="905" 
d="M38 783h295c176 0 263 -97 263 -295v-263l229 220l46 -49l-303 -290h-19l-304 290l47 49l228 -220v252c0 142 -50 227 -190 227h-292v79z" />
    <glyph glyph-name="uni25CF" unicode="&#x25cf;" horiz-adv-x="813" 
d="M36 356c0 206 165 372 370 372s371 -166 371 -372c0 -205 -166 -370 -371 -370s-370 165 -370 370z" />
    <glyph glyph-name="circle" unicode="&#x25cb;" horiz-adv-x="813" 
d="M407 -14c-205 0 -371 165 -371 370c0 206 166 372 371 372s370 -166 370 -372c0 -205 -165 -370 -370 -370zM407 656c-165 0 -297 -135 -297 -300c0 -164 132 -299 297 -299c163 0 294 135 294 299c0 165 -131 300 -294 300z" />
    <glyph glyph-name="lozenge" unicode="&#x25ca;" horiz-adv-x="716" 
d="M312 783h84l289 -390l-289 -393h-84l-290 393zM125 393l229 -312l229 312l-229 311z" />
    <glyph glyph-name="filledbox" unicode="&#x25a0;" horiz-adv-x="908" 
d="M810 711v-711h-709v711h709z" />
    <glyph glyph-name="uni25A1" unicode="&#x25a1;" horiz-adv-x="908" 
d="M101 711h709v-711h-709v711zM174 641v-571h559v571h-559z" />
    <glyph glyph-name="triagup" unicode="&#x25b2;" horiz-adv-x="838" 
d="M838 0h-838l421 730z" />
    <glyph glyph-name="uni25B3" unicode="&#x25b3;" horiz-adv-x="838" 
d="M7 0l412 720l412 -720h-824zM419 572l-287 -502h573z" />
    <glyph glyph-name="uni2605" unicode="&#x2605;" horiz-adv-x="838" 
d="M326 443l93 287l93 -287h302l-244 -177l93 -287l-244 177l-245 -175l94 285l-244 177h302z" />
    <glyph glyph-name="uni2611" unicode="&#x2611;" horiz-adv-x="956" 
d="M810 0h-709v711h645l124 216l62 -37l-122 -211v-679zM735 68v482l-254 -439l-256 310l57 49l191 -231l233 403h-534v-574h563z" />
    <glyph glyph-name="uni2612" unicode="&#x2612;" horiz-adv-x="908" 
d="M101 0v711h709v-711h-709zM735 642h-563v-574h563v574zM670 525l-166 -170l166 -168l-50 -52l-165 168l-168 -172l-50 52l168 172l-168 170l51 51l167 -169l165 169z" />
    <glyph glyph-name="uni2639" unicode="&#x2639;" horiz-adv-x="813" 
d="M407 -14c-205 0 -371 165 -371 370c0 206 166 372 371 372s370 -166 370 -372c0 -205 -165 -370 -370 -370zM407 674c-175 0 -315 -143 -315 -318c0 -174 140 -317 315 -317c173 0 312 144 312 317c0 174 -139 318 -312 318zM382 454c0 -37 -29 -66 -66 -66
s-66 29 -66 66s29 67 66 67s66 -30 66 -67zM563 454c0 -37 -29 -66 -66 -66s-66 29 -66 66s29 67 66 67s66 -30 66 -67zM594 187h-52c-16 67 -78 107 -135 107c-58 0 -122 -39 -136 -107h-53c19 94 99 155 189 155c89 0 168 -63 187 -155z" />
    <glyph glyph-name="smileface" unicode="&#x263a;" horiz-adv-x="813" 
d="M777 356c0 -205 -165 -370 -370 -370s-371 165 -371 370c0 206 166 372 371 372s370 -166 370 -372zM719 356c0 174 -139 318 -312 318c-175 0 -315 -143 -315 -318c0 -174 140 -317 315 -317c173 0 312 144 312 317zM382 454c0 -37 -29 -66 -66 -66s-66 29 -66 66
s29 67 66 67s66 -30 66 -67zM563 454c0 -37 -29 -66 -66 -66s-66 29 -66 66s29 67 66 67s66 -30 66 -67zM407 155c-93 0 -176 71 -196 177h55c15 -78 81 -122 141 -122c59 0 124 45 139 122h54c-19 -104 -101 -177 -193 -177z" />
    <glyph glyph-name="invsmileface" unicode="&#x263b;" horiz-adv-x="813" 
d="M777 356c0 -205 -165 -370 -370 -370s-371 165 -371 370c0 206 166 372 371 372s370 -166 370 -372zM382 454c0 37 -29 67 -66 67s-66 -30 -66 -67s29 -66 66 -66s66 29 66 66zM563 454c0 37 -29 67 -66 67s-66 -30 -66 -67s29 -66 66 -66s66 29 66 66zM600 332h-54
c-15 -77 -80 -122 -139 -122c-60 0 -126 44 -141 122h-55c20 -106 103 -177 196 -177c92 0 174 73 193 177z" />
    <glyph glyph-name="heart" unicode="&#x2665;" horiz-adv-x="872" 
d="M3 480c0 129 99 229 228 229c75 0 146 -38 178 -106c33 71 105 106 181 106c128 0 225 -104 225 -229c0 -212 -241 -395 -406 -494c-165 99 -406 282 -406 494z" />
    <glyph glyph-name="uni2713" unicode="&#x2713;" horiz-adv-x="942" 
d="M305 109l543 597l55 -55l-601 -657l-279 309l56 53z" />
    <glyph glyph-name="uni2715" unicode="&#x2715;" horiz-adv-x="755" 
d="M721 649l-291 -294l297 -296l-54 -55l-297 296l-294 -296l-54 55l294 296l-294 294l55 54l293 -293l291 293z" />
    <glyph glyph-name="estimated" unicode="&#x212e;" horiz-adv-x="866" 
d="M225 393v-254c52 -56 140 -88 216 -88c138 0 236 61 288 165l50 -28c-54 -117 -177 -196 -338 -196c-242 0 -384 179 -384 406c0 218 155 393 384 393c228 0 384 -174 384 -391v-7h-600zM660 451v198c-55 56 -143 85 -220 85c-82 0 -156 -28 -215 -84v-199h435z" />
    <glyph glyph-name="uni2113" unicode="&#x2113;" horiz-adv-x="455" 
d="M198 303v-93c0 -97 45 -149 128 -149c15 0 38 1 59 7v-63c-22 -7 -46 -10 -66 -10c-120 0 -194 70 -194 201v41l-68 -62l-45 47l113 104v298c0 95 51 168 148 168c98 0 148 -62 148 -153c0 -103 -67 -194 -193 -309zM275 726c-67 0 -77 -65 -77 -99v-234
c112 104 151 173 151 243c0 35 -10 90 -74 90z" />
    <glyph glyph-name="uni2116" unicode="&#x2116;" horiz-adv-x="1309" 
d="M747 0h-89l-470 669v-669h-79v783h94l464 -660v660h80v-783zM1249 486c0 -110 -85 -193 -193 -193c-106 0 -194 83 -194 193s87 192 194 192c105 0 193 -83 193 -192zM1177 486c0 68 -49 125 -121 125c-74 0 -122 -57 -122 -125s49 -125 122 -125c72 0 121 56 121 125z
M867 108v69h377v-69h-377z" />
    <glyph glyph-name="at.case" horiz-adv-x="865" 
d="M755 372c8 24 14 55 14 80c0 174 -144 284 -310 284c-190 0 -347 -160 -347 -350c0 -198 146 -339 342 -339c74 0 149 25 209 68l29 -46c-60 -48 -162 -77 -238 -77c-227 0 -398 165 -398 393c0 222 180 406 403 406c197 0 365 -133 365 -338c0 -81 -35 -186 -113 -232
c-26 -15 -52 -26 -83 -26c-45 0 -82 29 -95 72c-34 -45 -83 -72 -140 -72c-87 0 -158 83 -158 168c0 112 80 221 199 221c50 0 99 -26 122 -72l11 70h73l-41 -251c-1 -6 -12 -70 44 -70c57 0 97 64 112 111zM443 522c-81 0 -136 -76 -136 -153c0 -60 41 -110 102 -110
c80 0 133 84 133 158c0 58 -39 105 -99 105z" />
    <glyph glyph-name="uni0308" unicode="&#x308;" horiz-adv-x="0" 
d="M-95 624c-30 0 -59 26 -59 60c0 33 29 60 59 60s59 -27 59 -60c0 -34 -29 -60 -59 -60zM95 624c-30 0 -59 26 -59 60c0 33 29 60 59 60s59 -27 59 -60c0 -34 -29 -60 -59 -60z" />
    <glyph glyph-name="uni0307" unicode="&#x307;" horiz-adv-x="0" 
d="M0 624c-31 0 -60 27 -60 61s29 61 60 61s60 -27 60 -61s-29 -61 -60 -61z" />
    <glyph glyph-name="gravecomb" unicode="&#x300;" horiz-adv-x="0" 
d="M-7 797l109 -172h-75l-129 172h95z" />
    <glyph glyph-name="acutecomb" unicode="&#x301;" horiz-adv-x="0" 
d="M-102 625l109 172h95l-129 -172h-75z" />
    <glyph glyph-name="uni030B" unicode="&#x30b;" horiz-adv-x="0" 
d="M-188 625l108 172h95l-128 -172h-75zM-15 625l108 172h94l-128 -172h-74z" />
    <glyph glyph-name="uni0302" unicode="&#x302;" horiz-adv-x="0" 
d="M91 625l-91 118h-2l-89 -118h-83l133 172h78l137 -172h-83z" />
    <glyph glyph-name="uni030C" unicode="&#x30c;" horiz-adv-x="0" 
d="M37 625h-78l-133 172h83l89 -118h2l91 118h83z" />
    <glyph glyph-name="uni0306" unicode="&#x306;" horiz-adv-x="0" 
d="M0 623c-80 0 -158 56 -162 169h61c4 -64 42 -106 101 -106c58 0 97 39 102 106h60c-2 -105 -75 -169 -162 -169z" />
    <glyph glyph-name="uni030A" unicode="&#x30a;" horiz-adv-x="0" 
d="M0 604c-77 0 -140 60 -140 134c0 73 63 133 140 133c78 0 140 -60 140 -133c0 -74 -62 -134 -140 -134zM0 815c-45 0 -81 -33 -81 -77s36 -79 81 -79c44 0 80 35 80 79c0 41 -38 77 -80 77z" />
    <glyph glyph-name="tildecomb" unicode="&#x303;" horiz-adv-x="0" 
d="M29 715c19 -19 36 -25 50 -25c26 0 41 20 43 81h62c2 -93 -33 -147 -105 -147c-48 0 -75 23 -101 49c-22 23 -39 33 -58 33c-26 0 -41 -19 -43 -80h-62c-1 92 33 146 105 146c46 0 76 -21 109 -57z" />
    <glyph glyph-name="uni0304" unicode="&#x304;" horiz-adv-x="0" 
d="M168 710v-70h-336v70h336z" />
    <glyph glyph-name="uni0312" unicode="&#x312;" horiz-adv-x="0" 
d="M26 846l33 -29c-36 -28 -65 -58 -70 -95c5 1 11 3 18 3c30 0 53 -22 53 -54c0 -33 -26 -57 -57 -57c-37 0 -63 30 -63 79v3c0 56 30 110 86 150z" />
    <glyph glyph-name="uni0326" unicode="&#x326;" horiz-adv-x="0" 
d="M-26 -303l-33 29c36 27 65 58 70 95c-5 -2 -10 -3 -18 -3c-30 0 -53 22 -53 54c0 33 26 57 57 57c37 0 64 -31 64 -79v-4c0 -56 -30 -110 -87 -149z" />
    <glyph glyph-name="uni0327" unicode="&#x327;" horiz-adv-x="0" 
d="M120 -97c0 -93 -74 -147 -165 -147c-25 0 -51 4 -75 12v61c22 -6 45 -9 68 -9c66 0 102 35 102 95c0 36 -19 66 -40 85h69c25 -25 41 -63 41 -97z" />
    <glyph glyph-name="uni0328" unicode="&#x328;" horiz-adv-x="0" 
d="M81 -181v-60c-10 -2 -19 -3 -29 -3c-68 0 -133 37 -133 111c0 54 48 102 87 133h57c-31 -26 -69 -73 -69 -115c0 -53 42 -67 87 -66z" />
    <glyph glyph-name="macron" unicode="&#xaf;" horiz-adv-x="376" 
d="M356 710v-70h-336v70h336z" />
    <glyph glyph-name="brevecyr" horiz-adv-x="0" 
d="M138 623c-84 0 -147 59 -162 143l55 10c15 -52 47 -90 107 -90s91 38 106 90l56 -10c-16 -84 -79 -143 -162 -143z" />
    <glyph glyph-name="uniE09D" unicode="&#xe09d;" horiz-adv-x="705" 
d="M600 -4c-116 0 -152 64 -152 142v328h-246v-466h-78v466h-99v68h99v99c0 124 69 184 164 184c14 0 38 -3 59 -10v-66c-21 7 -44 7 -56 7c-39 0 -89 -22 -89 -113v-101h246v154h78v-154h135v-68h-135v-326c0 -48 28 -75 86 -75c17 0 36 1 49 4v-65c-16 -5 -48 -8 -61 -8z
" />
    <glyph glyph-name="dollar.lowercase" unicode="&#xf653;" horiz-adv-x="493" 
d="M442 152c0 -85 -68 -149 -163 -159v-95h-57v94c-91 9 -147 61 -181 137l64 35c22 -47 56 -93 119 -102v177c-68 16 -105 32 -134 65c-19 22 -29 50 -29 80c0 88 79 147 161 157v96h57v-96c85 -10 131 -63 157 -122l-64 -35c-20 42 -47 77 -94 87v-168
c57 -14 96 -32 126 -63c23 -23 38 -53 38 -88zM139 390c0 -37 19 -57 84 -74v156c-47 -9 -84 -42 -84 -82zM278 225v-162c46 8 85 37 85 84c0 38 -25 60 -85 78z" />
    <glyph glyph-name="uniF730" unicode="&#xf730;" horiz-adv-x="648" 
d="M323 -9c-155 0 -270 129 -270 274c0 153 114 278 272 278c154 0 270 -127 270 -274c0 -151 -116 -278 -272 -278zM325 60c114 0 191 99 191 205c0 107 -77 210 -193 210c-115 0 -191 -99 -191 -206c0 -106 76 -209 193 -209z" />
    <glyph glyph-name="uniF731" unicode="&#xf731;" horiz-adv-x="339" 
d="M167 451l-111 -65l-34 57l152 91h71v-534h-78v451z" />
    <glyph glyph-name="uniF732" unicode="&#xf732;" horiz-adv-x="487" 
d="M52 62l198 170c83 72 103 101 103 148c0 49 -40 96 -110 96c-61 0 -96 -34 -120 -96l-65 26c24 79 89 137 186 137c103 0 183 -65 183 -162c0 -72 -40 -120 -120 -189l-149 -126h272v-66h-378v62z" />
    <glyph glyph-name="uniF733" unicode="&#xf733;" horiz-adv-x="494" 
d="M239 -5c-95 0 -161 49 -191 132l63 30c27 -64 63 -96 128 -96c81 0 119 46 119 90c0 48 -37 89 -120 89h-61v66h60c70 0 109 41 109 86c0 42 -35 84 -109 84c-61 0 -94 -35 -119 -93l-64 28c27 79 91 132 185 132c118 0 181 -74 181 -146c0 -59 -34 -97 -83 -120v-1
c57 -19 95 -63 95 -124c0 -89 -80 -157 -193 -157z" />
    <glyph glyph-name="uniF734" unicode="&#xf734;" horiz-adv-x="534" 
d="M487 185v-67h-80v-118h-76v118h-293v86l272 330h97v-349h80zM331 456l-224 -271h224v271z" />
    <glyph glyph-name="uniF735" unicode="&#xf735;" horiz-adv-x="482" 
d="M163 467l-26 -164c24 26 71 40 108 40c108 0 184 -64 184 -169c0 -112 -89 -179 -196 -179c-88 0 -155 47 -187 129l63 32c26 -61 61 -95 125 -95c68 0 121 42 121 111c0 65 -47 107 -121 107c-36 0 -79 -19 -109 -55l-63 25l42 285h299v-67h-240z" />
    <glyph glyph-name="uniF736" unicode="&#xf736;" horiz-adv-x="498" 
d="M256 -5c-64 0 -133 29 -167 89c-27 47 -34 89 -34 166c0 150 73 293 234 293c63 0 113 -27 154 -66l-39 -56c-35 32 -66 54 -114 54c-102 0 -158 -82 -163 -193c36 49 87 66 137 66c115 0 185 -81 185 -171c0 -118 -92 -182 -193 -182zM256 285c-67 0 -123 -45 -123 -108
c0 -73 61 -116 123 -116c66 0 122 38 122 114c0 56 -45 110 -122 110z" />
    <glyph glyph-name="uniF737" unicode="&#xf737;" horiz-adv-x="444" 
d="M99 0l231 466h-295v68h373v-75l-226 -459h-83z" />
    <glyph glyph-name="uniF738" unicode="&#xf738;" horiz-adv-x="516" 
d="M258 -9c-91 0 -201 47 -201 154c0 68 58 111 110 127c-49 17 -96 56 -96 121c0 98 102 150 187 150c91 0 188 -51 188 -150c0 -60 -48 -103 -97 -121c51 -14 110 -57 110 -127c0 -103 -111 -154 -201 -154zM149 389c0 -48 46 -87 109 -87c61 0 110 36 110 87
c0 48 -48 86 -110 86c-63 0 -109 -38 -109 -86zM135 148c0 -49 52 -89 123 -89c68 0 123 37 123 89c0 49 -54 89 -124 89s-122 -40 -122 -89z" />
    <glyph glyph-name="uniF739" unicode="&#xf739;" horiz-adv-x="498" 
d="M50 360c0 116 91 183 192 183c65 0 133 -30 168 -90c27 -46 33 -88 33 -165c0 -150 -70 -293 -230 -293c-73 0 -117 29 -158 68l39 56c35 -32 67 -57 118 -57c100 0 153 80 159 188c-37 -49 -87 -66 -136 -66c-116 0 -185 77 -185 176zM243 476c-66 0 -123 -40 -123 -113
c0 -66 45 -115 123 -115c71 0 122 49 122 112c0 73 -60 116 -122 116z" />
    <glyph glyph-name="uni04B6" unicode="&#x4b6;" horiz-adv-x="760" 
d="M545 0v334c-63 -37 -169 -75 -237 -75c-119 0 -247 51 -247 225v299h81v-289c0 -83 49 -157 171 -157c80 0 169 37 232 74v372h83v-707h83v-240h-77v164h-89z" />
    <glyph glyph-name="circumflex" unicode="&#x2c6;" horiz-adv-x="388" 
d="M285 625l-91 118h-2l-89 -118h-83l133 172h78l137 -172h-83z" />
    <glyph glyph-name="tilde" unicode="&#x2dc;" horiz-adv-x="409" 
d="M234 715c19 -19 36 -25 50 -25c26 0 41 20 43 81h62c2 -93 -33 -147 -105 -147c-48 0 -75 23 -101 49c-22 23 -39 33 -58 33c-26 0 -41 -19 -43 -80h-62c-1 92 33 146 105 146c46 0 76 -21 109 -57z" />
    <glyph glyph-name="hungarumlaut" unicode="&#x2dd;" horiz-adv-x="415" 
d="M20 625l108 172h95l-128 -172h-75zM193 625l108 172h94l-128 -172h-74z" />
    <glyph glyph-name="commaaccent" unicode="&#xf6c3;" horiz-adv-x="0" 
d="M54 -303l-33 29c36 27 65 58 70 95c-5 -2 -10 -3 -18 -3c-30 0 -53 22 -53 54c0 33 26 57 57 57c37 0 64 -31 64 -79v-4c0 -56 -30 -110 -87 -149z" />
    <glyph glyph-name="cedilla" unicode="&#xb8;" horiz-adv-x="280" 
d="M260 -97c0 -93 -74 -147 -165 -147c-25 0 -51 4 -75 12v61c22 -6 45 -9 68 -9c66 0 102 35 102 95c0 36 -19 66 -40 85h69c25 -25 41 -63 41 -97z" />
    <glyph glyph-name="dotaccent" unicode="&#x2d9;" horiz-adv-x="160" 
d="M80 624c-31 0 -60 27 -60 61s29 61 60 61s60 -27 60 -61s-29 -61 -60 -61z" />
    <glyph glyph-name="breve" unicode="&#x2d8;" horiz-adv-x="364" 
d="M182 623c-80 0 -158 56 -162 169h61c4 -64 42 -106 101 -106c58 0 97 39 102 106h60c-2 -105 -75 -169 -162 -169z" />
    <glyph glyph-name="zero.slash.osf" horiz-adv-x="742" 
d="M372 619c193 0 311 -138 311 -313s-122 -314 -312 -314c-180 0 -312 126 -312 314c0 175 120 313 313 313zM143 306c0 -64 20 -126 61 -171l276 387c-31 15 -67 24 -109 24c-158 0 -228 -118 -228 -240zM371 66c156 0 228 118 228 240c0 63 -19 125 -59 170l-276 -387
c30 -15 65 -23 107 -23z" />
    <glyph glyph-name="zero.osf" horiz-adv-x="742" 
d="M371 -8c-180 0 -312 126 -312 314c0 175 120 313 313 313s311 -138 311 -313s-122 -314 -312 -314zM371 545c-157 0 -227 -118 -227 -239c0 -122 72 -239 227 -239s227 117 227 239c0 121 -71 239 -227 239z" />
    <glyph glyph-name="one.osf" horiz-adv-x="430" 
d="M50 412l-37 62l227 137h80v-611h-82v524z" />
    <glyph glyph-name="two.osf" horiz-adv-x="632" 
d="M67 76l245 136c114 63 166 117 166 186c0 84 -63 148 -164 148c-95 0 -149 -57 -181 -141l-74 31c31 104 121 187 257 187c155 0 247 -107 247 -223c0 -115 -89 -187 -197 -245l-147 -79h353v-76h-505v76z" />
    <glyph glyph-name="three.osf" horiz-adv-x="644" 
d="M583 47c0 -125 -109 -224 -270 -224c-134 0 -225 71 -264 180l72 36c35 -87 91 -139 192 -139c124 0 186 73 186 146c0 80 -61 145 -187 145h-78v76h76c107 0 171 66 171 141c0 70 -58 138 -170 138c-96 0 -148 -58 -180 -136l-74 33c35 103 124 180 256 180
c167 0 252 -107 252 -208c0 -89 -50 -146 -125 -180v-1c87 -28 143 -95 143 -187z" />
    <glyph glyph-name="four.osf" horiz-adv-x="681" 
d="M437 0h-407v90l384 521h103v-540h131v-71h-131v-172h-80v172zM437 525l-335 -454h335v454z" />
    <glyph glyph-name="five.osf" horiz-adv-x="630" 
d="M192 534l-41 -278c38 42 112 64 170 64c153 0 257 -92 257 -243c0 -160 -123 -257 -274 -257c-124 0 -217 68 -258 177l71 38c35 -84 89 -138 189 -138c104 0 188 66 188 178c0 104 -75 172 -188 172c-57 0 -122 -30 -163 -80l-76 31l60 413h413v-77h-348z" />
    <glyph glyph-name="six.osf" horiz-adv-x="674" 
d="M397 713c-174 0 -254 -150 -255 -327c52 84 150 113 216 113c165 0 263 -116 263 -245c0 -169 -129 -262 -274 -262c-93 0 -190 43 -239 128c-39 67 -48 128 -48 243c0 223 106 428 336 428c90 0 161 -38 212 -88l-44 -65c-42 40 -92 75 -167 75zM346 427
c-104 0 -194 -71 -194 -173c0 -117 97 -186 194 -186c103 0 194 61 194 182c0 92 -73 177 -194 177z" />
    <glyph glyph-name="seven.osf" horiz-adv-x="609" 
d="M38 611h533v-76l-361 -707h-91l364 707h-445v76z" />
    <glyph glyph-name="eight.osf" horiz-adv-x="666" 
d="M333 -8c-134 0 -275 73 -275 222c0 82 58 156 164 190c-97 28 -145 112 -145 179c0 136 141 208 256 208c118 0 257 -69 257 -208c0 -74 -53 -151 -146 -179c108 -31 164 -108 164 -190c0 -144 -139 -222 -275 -222zM333 717c-74 0 -175 -46 -175 -137
c0 -99 108 -144 175 -144s176 46 176 143c0 91 -100 138 -176 138zM333 66c82 0 192 45 192 148s-108 152 -192 152c-82 0 -192 -48 -192 -150c0 -106 107 -150 192 -150z" />
    <glyph glyph-name="nine.osf" horiz-adv-x="676" 
d="M285 -98c171 0 245 148 249 319c-52 -84 -150 -113 -216 -113c-165 0 -263 110 -263 253c0 166 129 262 274 262c93 0 190 -43 239 -128c39 -67 48 -128 48 -243c0 -223 -102 -428 -330 -428c-104 0 -168 42 -219 92l44 65c42 -40 93 -79 174 -79zM330 180
c111 0 194 79 194 181c0 117 -97 186 -194 186c-103 0 -194 -65 -194 -182c0 -106 73 -185 194 -185z" />
    <glyph glyph-name="zero.slash.tosf" 
d="M342 619c172 0 292 -129 292 -313c0 -183 -120 -314 -295 -314c-173 0 -293 130 -293 313c0 184 120 314 296 314zM130 305c0 -51 15 -112 50 -159l265 372c-29 17 -63 27 -105 27c-155 0 -210 -139 -210 -240zM340 66c151 0 210 135 210 238c0 52 -14 114 -48 162
l-265 -373c28 -17 62 -27 103 -27z" />
    <glyph glyph-name="zero.tosf" 
d="M339 -8c-173 0 -293 130 -293 313c0 184 119 314 296 314c172 0 292 -129 292 -313c0 -183 -120 -314 -295 -314zM340 544c-154 0 -209 -138 -209 -239s59 -238 209 -238c151 0 209 134 209 237c0 101 -54 240 -209 240z" />
    <glyph glyph-name="one.tosf" 
d="M315 76v451l-208 -102l-32 64l242 122h80v-535h206v-76h-522v76h234z" />
    <glyph glyph-name="two.tosf" 
d="M89 76l245 136c114 63 166 117 166 186c0 84 -63 148 -164 148c-95 0 -149 -57 -181 -141l-74 31c31 104 121 187 257 187c155 0 247 -107 247 -223c0 -115 -89 -187 -197 -245l-147 -79h353v-76h-505v76z" />
    <glyph glyph-name="three.tosf" 
d="M602 47c0 -125 -109 -224 -270 -224c-134 0 -225 71 -264 180l72 36c35 -87 91 -139 192 -139c124 0 186 73 186 146c0 80 -61 145 -187 145h-78v76h76c107 0 171 66 171 141c0 70 -58 138 -170 138c-96 0 -148 -58 -180 -136l-74 33c35 103 124 180 256 180
c167 0 252 -107 252 -208c0 -89 -50 -146 -125 -180v-1c87 -28 143 -95 143 -187z" />
    <glyph glyph-name="four.tosf" 
d="M447 0h-402v90l379 521h103v-540h109v-71h-109v-172h-80v172zM447 524l-330 -453h330v453z" />
    <glyph glyph-name="five.tosf" 
d="M221 534l-41 -278c38 42 112 64 170 64c153 0 257 -92 257 -243c0 -160 -123 -257 -274 -257c-124 0 -217 68 -258 177l71 38c35 -84 89 -138 189 -138c104 0 188 66 188 178c0 104 -75 172 -188 172c-57 0 -122 -30 -163 -80l-76 31l60 413h413v-77h-348z" />
    <glyph glyph-name="six.tosf" 
d="M397 713c-174 0 -254 -150 -255 -327c52 84 150 113 216 113c165 0 263 -116 263 -245c0 -169 -129 -262 -274 -262c-93 0 -190 43 -239 128c-39 67 -48 128 -48 243c0 223 106 428 336 428c90 0 161 -38 212 -88l-44 -65c-42 40 -92 75 -167 75zM346 427
c-104 0 -194 -71 -194 -173c0 -117 97 -186 194 -186c103 0 194 61 194 182c0 92 -73 177 -194 177z" />
    <glyph glyph-name="seven.tosf" 
d="M74 611h533v-76l-361 -707h-91l364 707h-445v76z" />
    <glyph glyph-name="eight.tosf" 
d="M340 -8c-134 0 -275 73 -275 222c0 82 58 156 164 190c-97 28 -145 112 -145 179c0 136 141 208 256 208c118 0 257 -69 257 -208c0 -74 -53 -151 -146 -179c108 -31 164 -108 164 -190c0 -144 -139 -222 -275 -222zM340 717c-74 0 -175 -46 -175 -137
c0 -99 108 -144 175 -144s176 46 176 143c0 91 -100 138 -176 138zM340 66c82 0 192 45 192 148s-108 152 -192 152c-82 0 -192 -48 -192 -150c0 -106 107 -150 192 -150z" />
    <glyph glyph-name="nine.tosf" 
d="M290 -98c171 0 245 148 249 319c-52 -84 -150 -113 -216 -113c-165 0 -263 110 -263 253c0 166 129 262 274 262c93 0 190 -43 239 -128c39 -67 48 -128 48 -243c0 -223 -102 -428 -330 -428c-104 0 -168 42 -219 92l44 65c42 -40 93 -79 174 -79zM335 180
c111 0 194 79 194 181c0 117 -97 186 -194 186c-103 0 -194 -65 -194 -182c0 -106 73 -185 194 -185z" />
    <glyph glyph-name="zero.slash.tf" 
d="M342 791c203 0 292 -173 292 -396s-91 -403 -296 -403c-207 0 -292 176 -292 399s87 400 296 400zM340 715c-182 0 -210 -204 -210 -323c0 -55 6 -129 30 -192l316 457c-31 35 -74 58 -136 58zM340 66c182 0 209 206 209 326c0 56 -6 130 -30 193l-317 -458
c31 -37 76 -61 138 -61z" />
    <glyph glyph-name="zero.tf" 
d="M338 -8c-207 0 -292 176 -292 399s87 400 296 400c203 0 292 -173 292 -396s-91 -403 -296 -403zM340 715c-174 0 -210 -186 -210 -323s37 -325 210 -325s209 188 209 325s-35 323 -209 323z" />
    <glyph glyph-name="one.tf" 
d="M315 76v624l-208 -103l-32 65l242 121h80v-707h206v-76h-522v76h234z" />
    <glyph glyph-name="two.tf" 
d="M78 76l284 252c122 107 155 155 155 231c0 80 -64 156 -172 156c-96 0 -150 -57 -182 -141l-74 31c31 104 121 187 258 187c145 0 255 -94 255 -231c0 -103 -55 -172 -172 -275l-240 -210h416v-76h-528v76z" />
    <glyph glyph-name="three.tf" 
d="M602 216c0 -125 -109 -224 -270 -224c-134 0 -225 71 -264 180l72 36c35 -87 91 -139 192 -139c124 0 186 73 186 146c0 80 -61 145 -187 145h-78v76h76c107 0 171 66 171 141c0 70 -58 138 -170 138c-96 0 -148 -58 -180 -136l-74 33c35 103 124 180 256 180
c167 0 252 -107 252 -208c0 -89 -50 -146 -125 -180v-1c87 -28 143 -95 143 -187z" />
    <glyph glyph-name="four.tf" 
d="M447 188h-402v90l379 505h103v-524h109v-71h-109v-188h-80v188zM447 698l-329 -439h329v439z" />
    <glyph glyph-name="five.tf" 
d="M221 706l-41 -278c38 42 112 64 170 64c153 0 257 -92 257 -243c0 -160 -123 -257 -274 -257c-124 0 -217 68 -258 177l71 38c35 -84 89 -138 189 -138c104 0 188 66 188 178c0 104 -75 172 -188 172c-57 0 -122 -30 -163 -80l-76 31l60 413h413v-77h-348z" />
    <glyph glyph-name="six.tf" 
d="M397 713c-174 0 -254 -150 -255 -327c52 84 150 113 216 113c165 0 263 -116 263 -245c0 -169 -129 -262 -274 -262c-93 0 -190 43 -239 128c-39 67 -48 128 -48 243c0 223 106 428 336 428c90 0 161 -38 212 -88l-44 -65c-42 40 -92 75 -167 75zM346 427
c-104 0 -194 -71 -194 -173c0 -117 97 -186 194 -186c103 0 194 61 194 182c0 92 -73 177 -194 177z" />
    <glyph glyph-name="seven.tf" 
d="M74 783h533v-76l-361 -707h-91l364 707h-445v76z" />
    <glyph glyph-name="eight.tf" 
d="M340 -8c-134 0 -275 73 -275 222c0 82 58 156 164 190c-97 28 -145 112 -145 179c0 136 141 208 256 208c118 0 257 -69 257 -208c0 -74 -53 -151 -146 -179c108 -31 164 -108 164 -190c0 -144 -139 -222 -275 -222zM340 717c-74 0 -175 -46 -175 -137
c0 -99 108 -144 175 -144s176 46 176 143c0 91 -100 138 -176 138zM340 66c82 0 192 45 192 148s-108 152 -192 152c-82 0 -192 -48 -192 -150c0 -106 107 -150 192 -150z" />
    <glyph glyph-name="nine.tf" 
d="M289 70c171 0 245 148 249 319c-52 -84 -150 -113 -216 -113c-165 0 -263 110 -263 253c0 166 129 262 274 262c93 0 190 -43 239 -128c39 -67 48 -128 48 -243c0 -223 -102 -428 -330 -428c-104 0 -168 42 -219 92l44 65c42 -40 93 -79 174 -79zM334 348
c111 0 194 79 194 181c0 117 -97 186 -194 186c-103 0 -194 -65 -194 -182c0 -106 73 -185 194 -185z" />
    <glyph glyph-name="cent.tf" 
d="M517 180l68 -30c-28 -78 -98 -148 -211 -158v-94h-65v95c-134 18 -234 128 -234 274c0 142 102 255 234 273v97h65v-95c111 -9 183 -78 209 -155l-68 -30c-19 53 -63 107 -143 116v-412c80 10 124 65 145 119zM155 270c0 -98 60 -187 155 -206v406
c-93 -18 -155 -102 -155 -200z" />
    <glyph glyph-name="currency.tf" 
d="M578 270c0 -54 -20 -103 -52 -142l84 -85l-48 -48l-87 87c-39 -26 -87 -41 -138 -41s-98 15 -137 41l-87 -87l-48 48l85 85c-32 39 -51 89 -51 142s19 103 50 142l-84 85l48 48l87 -86c38 27 86 42 137 42s99 -15 138 -42l87 86l48 -48l-84 -84c32 -39 52 -89 52 -143z
M173 270c0 -95 70 -160 164 -160s167 65 167 160s-73 163 -167 163s-164 -68 -164 -163z" />
    <glyph glyph-name="dollar.tf" 
d="M603 222c0 -129 -95 -213 -224 -226v-98h-68v98c-136 14 -232 117 -243 219l76 21c15 -80 85 -148 167 -162v291l-34 7c-35 7 -93 26 -134 66c-32 31 -54 75 -54 135c0 125 103 205 222 215v103h68v-104c139 -16 201 -108 216 -184l-74 -23c-12 48 -52 114 -142 130v-275
c73 -15 120 -36 156 -69c54 -50 68 -111 68 -144zM311 448v265c-75 -9 -140 -60 -140 -136c0 -58 35 -109 114 -124zM379 352v-279c75 10 141 55 141 140c0 86 -73 126 -141 139z" />
    <glyph glyph-name="dong.tf" 
d="M506 0v114c-41 -68 -105 -122 -208 -122c-153 0 -250 130 -250 276c0 139 99 275 250 275c103 0 164 -58 207 -121v212h-185v69h185v111h78v-111h57v-69h-57v-634h-77zM314 61c113 0 192 98 192 208c0 106 -81 205 -192 205c-117 0 -187 -93 -187 -208
c0 -110 70 -205 187 -205zM73 -116h509v-69h-509v69z" />
    <glyph glyph-name="euro.tf" 
d="M628 104l22 -76c-39 -19 -90 -35 -170 -35c-178 0 -328 107 -374 281h-74v69h62c-1 15 -2 30 -2 46c0 17 1 34 3 51h-63v69h76c48 170 195 283 376 283c61 0 116 -13 159 -32l-24 -76c-38 18 -73 29 -134 29c-135 0 -247 -79 -290 -204h370l-22 -69h-363
c-2 -15 -3 -30 -3 -46c0 -17 1 -34 3 -51h334l-22 -69h-296c42 -122 150 -204 289 -204c67 0 105 15 143 34z" />
    <glyph glyph-name="hryvnia.tf" 
d="M43 517h454c10 18 16 39 16 65c0 39 -14 71 -39 93c-34 30 -84 40 -131 40c-75 0 -155 -48 -187 -117l-70 38c46 95 153 155 257 155c72 0 145 -19 193 -63c37 -34 60 -84 60 -145c0 -24 -4 -46 -12 -66h54v-69h-595v69zM638 282h-449c-17 -20 -27 -45 -27 -77
c0 -100 98 -136 182 -136c76 0 161 49 194 118l70 -38c-44 -101 -161 -156 -267 -156c-132 0 -262 61 -262 210c0 30 6 56 18 79h-54v68h595v-68z" />
    <glyph glyph-name="uni20BA.tf" 
d="M549 336l80 -8c-19 -180 -136 -328 -406 -328h-70v287l-106 -55v78l106 54v107l-106 -54v77l106 55v234h81v-192l240 124v-77l-240 -124v-107l240 124v-78l-240 -124v-253c236 6 293 122 315 260z" />
    <glyph glyph-name="uni20B1.tf" 
d="M648 510h-65c-18 -115 -114 -204 -286 -204h-100v-306h-82v510h-84v69h84v204h196c174 0 260 -95 272 -204h65v-69zM197 578h302c-12 66 -63 128 -195 128h-107v-128zM197 382h103c124 0 183 62 198 129h-301v-129z" />
    <glyph glyph-name="uni20B9.tf" 
d="M599 714h-191c60 -33 78 -81 84 -131h107v-68h-108c-14 -95 -88 -180 -199 -196l191 -319h-98l-187 317h-117v78h158c87 0 146 43 166 120h-324v68h325c-17 77 -71 122 -157 122h-168v78h518v-69z" />
    <glyph glyph-name="sterling.tf" 
d="M561 145l57 -40c-29 -71 -100 -116 -174 -116c-91 0 -121 48 -198 48c-39 0 -79 -13 -129 -39l-44 78c93 56 149 119 149 206c0 20 -6 42 -15 64h-131v75h93c-27 46 -50 95 -50 145c0 115 102 225 244 225c140 0 208 -83 232 -160l-72 -34c-22 66 -71 118 -159 118
c-78 0 -160 -55 -160 -153c0 -46 30 -92 57 -141h222v-75h-187c6 -19 10 -39 10 -57c0 -67 -32 -136 -108 -189v-1c20 8 43 13 64 13c71 0 122 -46 184 -46c54 0 93 37 115 79z" />
    <glyph glyph-name="uni20AE.tf" 
d="M381 235v-235h-82v204l-221 -84v74l221 84v102l-221 -84v74l221 84v252h-257v77h596v-77h-257v-221l221 84v-74l-221 -83v-103l221 84v-74z" />
    <glyph glyph-name="yen.tf" 
d="M381 0h-83v136h-242v66h242v99h-242v67h218l-255 415h98l224 -379l225 379h94l-256 -415h219v-67h-242v-99h242v-66h-242v-136z" />
    </font>
</defs>
</svg>
